<?xml version="1.0" encoding="utf-8"?>
<!-- Generator: Adobe Illustrator 15.0.2, SVG Export Plug-In . SVG Version: 6.00 Build 0)  -->
<!DOCTYPE svg PUBLIC "-//W3C//DTD SVG 1.1//EN" "http://www.w3.org/Graphics/SVG/1.1/DTD/svg11.dtd">
<svg version="1.1" id="Isolation_Mode" xmlns="http://www.w3.org/2000/svg" xmlns:xlink="http://www.w3.org/1999/xlink" x="0px"
	 y="0px" width="293px" height="54px" viewBox="0 0 293 54" enable-background="new 0 0 293 54" xml:space="preserve">
<path fill="#FFFFFF" d="M69.592,7.051h2.976v13.431h-2.976V7.051z M77.527,7.051h2.738l6.313,8.272V7.051h2.928v13.431h-2.521
	l-6.53-8.54v8.54h-2.928V7.051z M103.329,7.051h6.258c1.539,0,2.751,0.425,3.528,1.19c0.614,0.616,0.924,1.36,0.924,2.282v0.039
	c0,1.518-0.815,2.361-1.778,2.897c1.562,0.595,2.526,1.498,2.526,3.303V16.8c0,2.457-2.001,3.682-5.048,3.682h-6.41V7.051z
	 M108.953,12.482c1.313,0,2.138-0.421,2.138-1.422v-0.036c0-0.886-0.695-1.383-1.948-1.383h-2.928v2.841H108.953z M109.739,17.894
	c1.313,0,2.102-0.461,2.102-1.458v-0.04c0-0.902-0.677-1.458-2.193-1.458h-3.433v2.956H109.739z M118.961,7.051h2.968v10.747h6.719
	v2.684h-9.687V7.051z M137.43,6.953h2.735l5.776,13.529h-3.098l-1.232-3.011h-5.705l-1.227,3.011h-3.025L137.43,6.953z
	 M140.554,14.863l-1.792-4.359l-1.797,4.359H140.554z M148.258,13.806v-0.04c0-3.818,2.883-6.944,7.024-6.944
	c2.545,0,4.067,0.843,5.322,2.073l-1.893,2.165c-1.034-0.938-2.099-1.517-3.444-1.517c-2.277,0-3.911,1.884-3.911,4.185v0.039
	c0,2.305,1.595,4.225,3.911,4.225c1.536,0,2.481-0.616,3.543-1.576l1.885,1.903c-1.384,1.474-2.926,2.396-5.525,2.396
	C151.206,20.715,148.258,17.664,148.258,13.806z M164.508,7.051h2.967v5.872l5.467-5.872h3.584l-5.494,5.699l5.744,7.732h-3.563
	l-4.182-5.718l-1.557,1.612v4.106h-2.967V7.051z M207.212,10.466c-2.155,1.008-5.007,2.178-5.644,2.557
	c2.506,0.123,3.901,2.208,3.901,4.259c0,3.565-3.17,6.341-7.285,6.341c-3.172,0-6.236-1.641-7.286-4.195
	c-0.885,0.221-1.489,0.283-1.992,0.283c-2.762,0-5.07-1.955-5.07-4.291c0-1.2,0.602-2.083,1.488-2.145
	c-0.03,0.503-0.063,0.944-0.063,1.322c0,2.367,1.678,4.26,3.798,4.26c0.413,0,0.954-0.062,1.521-0.158
	c-0.215-1.04-0.283-1.701-0.283-2.303c0-4.037,2.853-7.291,7.002-7.291c-0.89-1.198-1.111-1.734-1.111-2.933
	c0-2.966,2.501-5.175,5.921-5.175c2.691,0,4.875,1.545,4.875,3.441c0,1.355-1.229,2.616-2.626,2.616
	c-1.138,0-1.774-0.441-2.404-1.608l0.507-0.064c0.601,0.854,1.107,1.17,1.926,1.17c1.084,0,2.094-0.977,2.094-2.113
	c0-1.294-1.169-2.21-2.784-2.21c-2.631,0-4.876,2.21-4.876,4.859c0,1.294,0.248,2.051,1.74,3.091l0.091,0.347
	c-0.629-0.094-1.168-0.127-1.612-0.127c-2.629,0-5.444,2.968-5.034,6.819c1.175-0.76,2.405-1.201,2.405-1.201
	c0.192-2.144,2.658-3.975,6.369-5.144c6.27-1.925,7.722-2.839,7.722-4.893c0-0.754-0.153-1.136-0.824-2.017l0.224-0.22
	c0.917,0.881,1.173,1.356,1.173,2.271C211.072,7.689,209.52,9.361,207.212,10.466z M201.064,13.652c-1.236,0-1.838,0.41-2.817,1.8
	c0.979-0.221,1.333-0.316,1.808-0.316c1.486,0,2.784,1.197,2.784,2.556c0,1.262-1.172,2.241-2.721,2.241
	c-1.746,0-3.578-1.102-3.675-3.312c0,0-1.362,0.628-2.314,1.323c0.347,2.336,2.792,4.672,5.415,4.672
	c2.854,0,5.256-2.43,5.256-5.303C204.8,15.231,203.157,13.652,201.064,13.652z M199.957,15.61c-0.696,0-1.297,0.251-1.965,0.503
	c-0.126,0.412-0.154,0.756-0.154,1.107c0,1.322,0.981,2.208,2.309,2.208c1.076,0,1.962-0.853,1.962-1.864
	C202.108,16.46,201.161,15.61,199.957,15.61z M219.612,7.051h3.178l2.794,9.096l3.021-9.135h2.546l3.02,9.135l2.797-9.096h3.103
	l-4.606,13.53h-2.579l-3.047-8.789l-3.044,8.789h-2.579L219.612,7.051z M243.705,7.051h2.966v5.316h5.476V7.051h2.966v13.431h-2.966
	v-5.388h-5.476v5.388h-2.966V7.051z M260.094,7.051h2.973v13.431h-2.973V7.051z M270.878,9.778h-4.103V7.051h11.17v2.727h-4.1
	v10.705h-2.968V9.778z M281.609,7.051h10.17V9.68h-7.226v2.727h6.353v2.629h-6.353v2.819h7.319v2.628h-10.264V7.051z M69.565,28.947
	h10.146c2.896,0,5.224,0.874,6.709,2.351c1.142,1.142,1.818,2.786,1.818,4.636V36c0,3.895-2.698,6.18-6.407,6.851l7.245,9.605
	h-3.261l-6.845-9.135h-6.74v9.135h-2.666V28.947z M79.476,40.938c3.538,0,6.065-1.814,6.065-4.839v-0.065
	c0-2.891-2.225-4.636-6.032-4.636h-7.277v9.541H79.476z M97.734,28.947h17.059v2.416H100.4v8.03h12.876v2.414H100.4v8.232h14.563
	v2.417H97.734V28.947z M124.453,28.947h8.828c5.329,0,8.833,2.822,8.833,7.455v0.069c0,5.068-4.245,7.69-9.272,7.69h-5.729v8.295
	h-2.659V28.947z M132.945,41.742c3.912,0,6.473-2.083,6.473-5.173v-0.065c0-3.361-2.525-5.107-6.342-5.107h-5.964v10.345H132.945z
	 M148.017,40.767v-0.065c0-6.483,4.882-12.156,12.061-12.156c7.182,0,12.006,5.607,12.006,12.091v0.064
	c0,6.48-4.89,12.156-12.071,12.156C152.832,52.858,148.017,47.248,148.017,40.767z M169.317,40.767v-0.065
	c0-5.342-3.911-9.708-9.306-9.708c-5.388,0-9.233,4.3-9.233,9.643v0.064c0,5.339,3.912,9.704,9.299,9.704
	C165.474,50.406,169.317,46.109,169.317,40.767z M180.023,28.947h10.146c2.902,0,5.224,0.874,6.708,2.351
	c1.147,1.142,1.818,2.786,1.818,4.636V36c0,3.895-2.692,6.18-6.4,6.851l7.246,9.605h-3.269l-6.845-9.135h-6.74v9.135h-2.665V28.947z
	 M189.933,40.938c3.538,0,6.071-1.814,6.071-4.839v-0.065c0-2.891-2.23-4.636-6.037-4.636h-7.278v9.541H189.933z M211.168,31.397
	h-7.92v-2.45h18.539v2.45h-7.92v21.059h-2.699V31.397z M230.513,28.947h2.665v23.509h-2.665V28.947z M243.451,28.947h2.494
	l14.865,18.84v-18.84h2.6v23.509h-2.128L246.05,33.179v19.277h-2.599V28.947z M270.298,40.767v-0.065
	c0-6.447,4.753-12.156,11.827-12.156c3.977,0,6.438,1.138,8.801,3.119l-1.719,2.018c-1.825-1.58-3.848-2.688-7.181-2.688
	c-5.226,0-8.965,4.401-8.965,9.643v0.064c0,5.608,3.604,9.77,9.331,9.77c2.699,0,5.2-1.04,6.814-2.348v-5.847h-7.181v-2.383h9.74
	v9.37c-2.193,1.949-5.492,3.593-9.47,3.593C274.88,52.858,270.298,47.483,270.298,40.767z M25.294,34.232
	c0,0-1.601,0.815-2.716,1.712c0.406,3.016,3.274,6.032,6.361,6.032c3.352,0,6.181-3.139,6.181-6.848
	c0-2.689-1.936-4.728-4.392-4.728c-1.452,0-2.161,0.53-3.314,2.322c1.153-0.284,1.563-0.408,2.123-0.408
	c1.749,0,3.273,1.549,3.273,3.302c0,1.63-1.374,2.894-3.2,2.894C27.563,38.513,25.406,37.085,25.294,34.232z M35.744,27.383
	c-1.973,0.96-3.88,1.85-4.421,2.204c2.413,0.134,3.946,1.969,4.421,4.086V27.383z M31.955,35.455c0-1.426-1.116-2.526-2.529-2.526
	c-0.82,0-1.525,0.326-2.31,0.651c-0.147,0.531-0.185,0.979-0.185,1.427c0,1.712,1.154,2.854,2.717,2.854
	C30.912,37.86,31.955,36.759,31.955,35.455z M34.598,21.883c-1.339,0-2.084-0.57-2.829-2.078l0.597-0.083
	c0.707,1.101,1.302,1.508,2.271,1.508c0.386,0,0.766-0.119,1.107-0.325v-4.76c-0.531-0.317-1.19-0.498-1.929-0.498
	c-3.087,0-5.729,2.853-5.729,6.276c0,1.671,0.298,2.65,2.047,3.995l0.11,0.448c-0.745-0.123-1.375-0.163-1.898-0.163
	c-3.088,0-6.399,3.832-5.917,8.803c1.378-0.978,2.829-1.548,2.829-1.548c0.223-2.771,3.127-5.136,7.48-6.643
	c1.131-0.381,2.127-0.733,3.007-1.063v-4.139C35.386,21.785,34.996,21.883,34.598,21.883z M27.342,43.28
	c-3.362,0-6.631-1.728-8.138-4.494v4.744c0,4.55,3.701,8.24,8.27,8.24c4.569,0,8.271-3.689,8.271-8.24v-6.834
	C34.992,40.501,31.599,43.28,27.342,43.28z M38.066,9.714V24.8c2.934-1.343,3.752-2.472,3.752-4.302
	c0-0.978-0.187-1.467-0.969-2.608l0.264-0.286c1.077,1.142,1.375,1.753,1.375,2.935c0,2.127-1.771,4.253-4.422,5.68V43.53
	c0,4.55,3.704,8.24,8.271,8.24c4.569,0,8.272-3.689,8.272-8.24V9.714H38.066z M16.437,38.228c-3.239,0-5.956-2.528-5.956-5.544
	c0-1.548,0.708-2.689,1.751-2.771c-0.038,0.652-0.075,1.223-0.075,1.712c0,3.056,1.973,5.502,4.465,5.502
	c0.069,0,0.141-0.002,0.214-0.005V9.719H0.295v33.815c0,4.551,3.703,8.242,8.268,8.242c4.568,0,8.272-3.69,8.272-8.242v-5.32
	C16.695,38.223,16.562,38.228,16.437,38.228z M26.3,24.533c-1.043-1.55-1.304-2.243-1.304-3.791c0-3.831,2.94-6.684,6.959-6.684
	c1.452,0,2.778,0.421,3.789,1.113V5.564h-16.54v23.462C20.577,26.327,23.111,24.533,26.3,24.533z"/>
</svg>
