<?xml version="1.0" encoding="utf-8"?>
<!-- Generator: Adobe Illustrator 15.0.2, SVG Export Plug-In . SVG Version: 6.00 Build 0)  -->
<!DOCTYPE svg PUBLIC "-//W3C//DTD SVG 1.1//EN" "http://www.w3.org/Graphics/SVG/1.1/DTD/svg11.dtd">
<svg version="1.1" id="Layer_1" xmlns="http://www.w3.org/2000/svg" xmlns:xlink="http://www.w3.org/1999/xlink" x="0px" y="0px"
	 width="153px" height="131px" viewBox="-51.909 -43.758 153 131" enable-background="new -51.909 -43.758 153 131"
	 xml:space="preserve">
<polygon fill="#FFFFFF" points="75.781,9.998 75.86,10.045 76.926,10.639 77.055,10.545 76.528,10.154 76.07,9.865 "/>
<polygon fill="#FFFFFF" points="75.133,10.322 76.348,11.06 76.717,10.792 75.84,10.327 75.531,10.122 "/>
<polygon fill="#FFFFFF" points="7.787,55.314 8.335,54.678 8.28,54.607 "/>
<polygon fill="#FFFFFF" points="7.06,54.943 7.379,55.66 8.196,54.507 7.902,54.139 "/>
<polygon fill="#FFFFFF" points="7.872,55.06 8.26,54.586 8.215,54.525 "/>
<polygon fill="#FFFFFF" points="7.538,56.007 7.558,56.037 7.827,55.655 "/>
<polygon fill="#FFFFFF" points="19.905,47.346 20.437,46.705 20.373,46.622 "/>
<polygon fill="#FFFFFF" points="19.147,46.894 19.506,47.691 20.288,46.508 19.974,46.09 "/>
<polygon fill="#FFFFFF" points="19.685,48.079 19.705,48.112 19.959,47.72 "/>
<polygon fill="#FFFFFF" points="19.974,47.073 20.353,46.599 20.303,46.529 "/>
<polygon fill="#FFFFFF" points="27.664,35.735 27.997,35.226 27.948,35.157 "/>
<polygon fill="#FFFFFF" points="27.61,36.011 28.092,35.325 28.023,35.246 "/>
<polygon fill="#FFFFFF" points="26.818,35.611 27.245,36.394 27.928,35.134 27.584,34.746 "/>
<polygon fill="#FFFFFF" points="27.46,36.776 27.475,36.808 27.694,36.385 "/>
<polygon fill="#FFFFFF" points="-12.085,41.615 -11.97,41.256 -11.986,41.247 "/>
<polygon fill="#FFFFFF" points="-11.97,41.921 -12.07,42.275 -11.721,42.159 -11.682,42.083 -11.472,41.621 -11.806,41.374 "/>
<polygon fill="#FFFFFF" points="-12.04,41.886 -12.195,42.31 -12.155,42.295 -12.031,41.895 -12,41.789 "/>
<polygon fill="#FFFFFF" points="-12.115,42.289 -12.095,42.281 -12.01,41.987 "/>
<polygon fill="#FFFFFF" points="-11.174,42.421 -11.363,42.901 -11.602,43.384 -11.388,43.628 -10.91,42.607 -10.511,41.775 
	-10.845,41.592 "/>
<polygon fill="#FFFFFF" points="-11.517,42.189 -11.577,42.316 -11.886,43.045 -11.732,43.222 -11.682,43.104 -11.358,42.298 
	-11.034,41.491 -11.159,41.424 "/>
<polygon fill="#FFFFFF" points="-35.598,50.332 -34.836,50.209 -34.856,50.158 "/>
<polygon fill="#FFFFFF" points="0.331,54.928 0.177,55.396 0.221,55.378 0.336,54.931 0.361,54.833 "/>
<polygon fill="#FFFFFF" points="0.252,55.364 0.286,55.355 0.356,55.036 "/>
<polygon fill="#FFFFFF" points="0.904,55.228 0.844,55.361 0.551,56.119 0.705,56.299 0.76,56.178 1.063,55.337 1.377,54.495 
	1.248,54.428 "/>
<polygon fill="#FFFFFF" points="-24.143,64.946 -23.371,64.757 -23.386,64.704 "/>
<polygon fill="#FFFFFF" points="8.036,72.241 8.31,71.971 8.305,71.956 "/>
<polygon fill="#FFFFFF" points="7.523,72.927 7.538,72.936 7.573,72.936 7.911,72.603 "/>
<polygon fill="#FFFFFF" points="7.976,72.562 7.593,72.933 8.016,72.924 8.135,72.847 8.559,72.55 8.395,72.162 "/>
<polygon fill="#FFFFFF" points="7.941,72.506 7.483,72.895 7.508,72.924 7.951,72.509 8.021,72.436 "/>
<polygon fill="#FFFFFF" points="8.21,73.006 8.111,73.062 7.568,73.415 7.583,73.598 7.667,73.544 8.26,73.148 8.843,72.753 
	8.798,72.656 "/>
<polygon fill="#FFFFFF" points="8.315,73.306 7.966,73.544 7.583,73.768 7.603,74.028 8.4,73.544 9.037,73.165 8.918,72.901 "/>
<polygon fill="#FFFFFF" points="-4.973,73.906 -4.958,73.863 -5.551,73.692 "/>
<polygon fill="#FFFFFF" points="54.225,17.179 54.703,17.659 54.275,17.177 "/>
<polygon fill="#FFFFFF" points="-17.304,43.207 -17.265,43.696 -17.115,43.76 -17.125,43.675 -17.245,42.601 -17.34,42.601 "/>
<polygon fill="#FFFFFF" points="-18.057,42.931 -18.151,42.601 -18.171,42.598 "/>
<polygon fill="#FFFFFF" points="-17.653,43.622 -17.429,43.545 -17.529,42.654 -17.947,42.61 "/>
<polygon fill="#FFFFFF" points="-17.758,43.657 -17.718,43.643 -17.892,43.028 "/>
<polygon fill="#FFFFFF" points="-17.703,43.634 -17.668,43.625 -17.802,43.187 "/>
<polygon fill="#FFFFFF" points="-17.001,43.481 -16.986,43.81 -16.777,43.893 -16.851,42.624 -17.1,42.604 "/>
<g>
	<g>
		<defs>
			<rect id="SVGID_1_" x="-51.909" y="-43.758" width="153" height="131"/>
		</defs>
		<clipPath id="SVGID_2_">
			<use xlink:href="#SVGID_1_"  overflow="visible"/>
		</clipPath>
		<path clip-path="url(#SVGID_2_)" fill="#FFFFFF" d="M-16.573,42.639l0.07,1.365l1.33,0.535l0.05-0.509l0.095,0.639
			c0.792,0.421,1.166,1.05,1.26,1.741c0.318,0.465,0,1.277-0.389,1.783c-0.025,0.206-0.309,0.303-0.553,0.389l-1.559,1.624
			c-0.02,0.506-0.309,0.494-0.568,0.677l0.488,0.941l-0.667-0.874l-0.299,0.067l-0.07-0.021l0.284,0.794l-0.508-0.855
			c-0.184-0.059-0.354-0.041-0.488-0.235c-0.603-0.441-1.395-0.313-1.888-0.956l-0.14,0.411l-0.333,0.706l0.159-0.576l0.299-0.559
			c-0.607-0.612-1.265-1.165-1.439-1.948c-0.728-0.094-1.504-0.611-1.031-1.1l0.702-0.568c0.135-1.933,2.67-2.101,3.88-2.409
			l-0.164-0.592l-0.149-0.512c-0.678-0.038-1.549-0.053-2.59-0.012l-0.314,0.238l-1.006,0.303c-2.725,1.054-2.431,4.913-0.917,7.179
			l0.338-0.312l-0.259,0.396l1.051,1.15l1.111-1.639c-0.209,0.563-0.478,1.251-0.732,2.039c0.792,0.665,2.042,0.982,3.113,1.389
			c1.086-0.073,2.236-0.395,3.248-0.694l0.224-0.738c0.219-0.273,0.543-0.354,0.956-0.365l1.504-1.697l-0.643-0.229l0.787,0.059
			C-9.136,45.146-15.083,41.706-16.573,42.639"/>
	</g>
	<g>
		<defs>
			<rect id="SVGID_3_" x="-51.909" y="-43.758" width="153" height="131"/>
		</defs>
		<clipPath id="SVGID_4_">
			<use xlink:href="#SVGID_3_"  overflow="visible"/>
		</clipPath>
		<path clip-path="url(#SVGID_4_)" fill="#FFFFFF" d="M-13.061,57.169c-0.498,1.065-0.443,2.004-0.229,2.801l0.612-0.279
			l-0.567,0.539c1.489,4.219,5.149,5.969,7.291,6.078l-0.06-1.362c-0.423-0.104-0.862-0.351-1.315-0.715l-0.055,0.491l-0.134-0.621
			c-0.767-0.441-1.554-1.282-2.167-2.147c-0.708-0.365-1.176-1.083-1.195-1.912c-0.115-0.235-0.02-0.465,0.084-0.662
			c-0.145-0.724,0.07-1.012,0.354-1.271c0.05-0.282,0.274-0.541,0.548-0.709l-0.383-0.959l0.598,0.909l0.354-0.032l0.084,0.029
			L-9.5,56.531l0.518,0.912l0.643,0.394c0.881,0.035,1.813,0.283,2.634,0.598l-0.04-0.421l0.055-0.747l0.08,0.564l-0.07,0.612
			c0.966,0.335,1.798,0.841,2.485,1.371c0.792-0.259,1.415,0.088,1.459,0.647l-0.319,0.835c0.563,1.98-1.653,3.56-2.615,3.854
			l0.249,0.544l0.254,0.462c0.663-0.235,2.022-0.186,2.675-1.051l0.109-0.438l0.896-0.617c1.798-2.019,0.179-6.031-2.525-7.185
			l-0.185,0.424l0.075-0.482l-1.384-0.706l-0.423,1.886l-0.085-2.083c-0.976-0.362-2.007-0.642-3.152-0.703
			c-1.021-0.085-2.127-0.032-3.257,0.503l-0.414,0.753C-12.125,56.79-12.613,56.922-13.061,57.169"/>
	</g>
	<g>
		<defs>
			<rect id="SVGID_5_" x="-51.909" y="-43.758" width="153" height="131"/>
		</defs>
		<clipPath id="SVGID_6_">
			<use xlink:href="#SVGID_5_"  overflow="visible"/>
		</clipPath>
		<polygon clip-path="url(#SVGID_6_)" fill="#FFFFFF" points="-4.779,65.216 -4.819,65.24 -4.574,65.804 		"/>
	</g>
	<g>
		<defs>
			<rect id="SVGID_7_" x="-51.909" y="-43.758" width="153" height="131"/>
		</defs>
		<clipPath id="SVGID_8_">
			<use xlink:href="#SVGID_7_"  overflow="visible"/>
		</clipPath>
		<polygon clip-path="url(#SVGID_8_)" fill="#FFFFFF" points="-5.247,65.254 -5.396,65.193 -5.386,65.272 -5.222,66.358 
			-5.117,66.364 -5.182,65.751 		"/>
	</g>
	<g>
		<defs>
			<rect id="SVGID_9_" x="-51.909" y="-43.758" width="153" height="131"/>
		</defs>
		<clipPath id="SVGID_10_">
			<use xlink:href="#SVGID_9_"  overflow="visible"/>
		</clipPath>
		<polygon clip-path="url(#SVGID_10_)" fill="#FFFFFF" points="-5.077,65.407 -4.913,66.263 -4.45,66.201 -4.873,65.275 		"/>
	</g>
	<g>
		<defs>
			<rect id="SVGID_11_" x="-51.909" y="-43.758" width="153" height="131"/>
		</defs>
		<clipPath id="SVGID_12_">
			<use xlink:href="#SVGID_11_"  overflow="visible"/>
		</clipPath>
		<polygon clip-path="url(#SVGID_12_)" fill="#FFFFFF" points="-4.216,66.157 -4.201,66.157 -4.39,65.858 		"/>
	</g>
	<g>
		<defs>
			<rect id="SVGID_13_" x="-51.909" y="-43.758" width="153" height="131"/>
		</defs>
		<clipPath id="SVGID_14_">
			<use xlink:href="#SVGID_13_"  overflow="visible"/>
		</clipPath>
		<polygon clip-path="url(#SVGID_14_)" fill="#FFFFFF" points="-4.859,65.266 -4.684,65.669 -4.834,65.251 		"/>
	</g>
	<g>
		<defs>
			<rect id="SVGID_15_" x="-51.909" y="-43.758" width="153" height="131"/>
		</defs>
		<clipPath id="SVGID_16_">
			<use xlink:href="#SVGID_15_"  overflow="visible"/>
		</clipPath>
		<polygon clip-path="url(#SVGID_16_)" fill="#FFFFFF" points="-5.531,65.133 -5.735,65.051 -5.645,66.331 -5.371,66.352 
			-5.511,65.469 		"/>
	</g>
	<g>
		<defs>
			<rect id="SVGID_17_" x="-51.909" y="-43.758" width="153" height="131"/>
		</defs>
		<clipPath id="SVGID_18_">
			<use xlink:href="#SVGID_17_"  overflow="visible"/>
		</clipPath>
		<polygon clip-path="url(#SVGID_18_)" fill="#FFFFFF" points="1.696,72.453 1.686,72.448 1.79,72.782 		"/>
	</g>
	<g>
		<defs>
			<rect id="SVGID_19_" x="-51.909" y="-43.758" width="153" height="131"/>
		</defs>
		<clipPath id="SVGID_20_">
			<use xlink:href="#SVGID_19_"  overflow="visible"/>
		</clipPath>
		<path clip-path="url(#SVGID_20_)" fill="#FFFFFF" d="M6.049,79.119l0.708-0.129c0.732-3.536-1.708-6.379-3.69-6.385l-0.194,1.359
			l0.852,0.545l0.184-0.386l-0.119,0.523c0.125,0.671,0.802,1.098,0.687,1.95c0.234,0.438,0.688,1.106,0.149,1.577l-0.403,0.4
			c-0.134,0.55-0.369,1.047-0.812,1.159L3.22,80.531l0.478,0.895l-0.573-0.759l-0.179,0.159l-0.055-0.06l0.284,0.815
			c-0.174-0.197-0.354-0.624-0.448-0.997l-0.294-0.478c-0.358,0.074-0.827-0.253-1.215-0.759l-0.194,0.354l-0.409,0.623l0.224-0.5
			l0.359-0.491c-0.593-0.382-0.757-1.044-1.051-1.604C-0.69,77.666-1.148,77.248-0.8,76.81l0.608-0.567
			c-0.07-1.81,1.105-2.501,2.131-2.698l-0.144-0.591l-0.145-0.515c-0.593,0.032-1.459-0.244-2.246,0.441l-0.155,0.385l-0.876,0.418
			c-1.15,1.653-1.245,3.98-0.089,6.202l0.388-0.274l-0.354,0.368c0.14,0.406,0.533,0.671,0.812,1.015l1.28-1.45
			c-0.274,0.477-0.618,1.083-0.961,1.789c0.518,0.706,1.3,1.253,2.595,1.395c1.13,0.408,1.927-0.023,2.689-0.691l0.194-0.715
			c0.224-0.227,0.583-0.289,1.041-0.324c0.453-0.547,0.508-1.224,0.742-1.814L6.049,79.119z"/>
	</g>
	<g>
		<defs>
			<rect id="SVGID_21_" x="-51.909" y="-43.758" width="153" height="131"/>
		</defs>
		<clipPath id="SVGID_22_">
			<use xlink:href="#SVGID_21_"  overflow="visible"/>
		</clipPath>
		<polygon clip-path="url(#SVGID_22_)" fill="#FFFFFF" points="2.064,73.497 1.93,72.883 2.03,73.509 		"/>
	</g>
	<g>
		<defs>
			<rect id="SVGID_23_" x="-51.909" y="-43.758" width="153" height="131"/>
		</defs>
		<clipPath id="SVGID_24_">
			<use xlink:href="#SVGID_23_"  overflow="visible"/>
		</clipPath>
		<polygon clip-path="url(#SVGID_24_)" fill="#FFFFFF" points="2.099,73.48 2.01,73.041 2.074,73.489 		"/>
	</g>
	<g>
		<defs>
			<rect id="SVGID_25_" x="-51.909" y="-43.758" width="153" height="131"/>
		</defs>
		<clipPath id="SVGID_26_">
			<use xlink:href="#SVGID_25_"  overflow="visible"/>
		</clipPath>
		<polygon clip-path="url(#SVGID_26_)" fill="#FFFFFF" points="2.403,73.076 2.393,73.577 2.488,73.654 2.493,73.569 2.488,72.471 
			2.413,72.459 		"/>
	</g>
	<g>
		<defs>
			<rect id="SVGID_27_" x="-51.909" y="-43.758" width="153" height="131"/>
		</defs>
		<clipPath id="SVGID_28_">
			<use xlink:href="#SVGID_27_"  overflow="visible"/>
		</clipPath>
		<polygon clip-path="url(#SVGID_28_)" fill="#FFFFFF" points="2.607,73.389 2.573,73.724 2.702,73.83 2.822,72.544 2.607,72.497 		
			"/>
	</g>
	<g>
		<defs>
			<rect id="SVGID_29_" x="-51.909" y="-43.758" width="153" height="131"/>
		</defs>
		<clipPath id="SVGID_30_">
			<use xlink:href="#SVGID_29_"  overflow="visible"/>
		</clipPath>
		<polygon clip-path="url(#SVGID_30_)" fill="#FFFFFF" points="2.114,73.477 2.288,73.406 2.249,72.509 1.88,72.465 		"/>
	</g>
	<g>
		<defs>
			<rect id="SVGID_31_" x="-51.909" y="-43.758" width="153" height="131"/>
		</defs>
		<clipPath id="SVGID_32_">
			<use xlink:href="#SVGID_31_"  overflow="visible"/>
		</clipPath>
		<polygon clip-path="url(#SVGID_32_)" fill="#FFFFFF" points="-0.302,46.661 -0.555,46.723 -0.874,46.973 -0.824,46.964 
			-0.386,46.831 -0.411,46.891 -0.057,46.735 -0.008,46.567 -0.286,46.628 		"/>
	</g>
	<g>
		<defs>
			<rect id="SVGID_33_" x="-51.909" y="-43.758" width="153" height="131"/>
		</defs>
		<clipPath id="SVGID_34_">
			<use xlink:href="#SVGID_33_"  overflow="visible"/>
		</clipPath>
		<polygon clip-path="url(#SVGID_34_)" fill="#FFFFFF" points="-0.072,46.773 -0.062,46.746 -0.221,46.825 		"/>
	</g>
	<g>
		<defs>
			<rect id="SVGID_35_" x="-51.909" y="-43.758" width="153" height="131"/>
		</defs>
		<clipPath id="SVGID_36_">
			<use xlink:href="#SVGID_35_"  overflow="visible"/>
		</clipPath>
		<polygon clip-path="url(#SVGID_36_)" fill="#FFFFFF" points="-0.082,46.814 -0.072,46.784 -0.286,46.881 		"/>
	</g>
	<g>
		<defs>
			<rect id="SVGID_37_" x="-51.909" y="-43.758" width="153" height="131"/>
		</defs>
		<clipPath id="SVGID_38_">
			<use xlink:href="#SVGID_37_"  overflow="visible"/>
		</clipPath>
		<polygon clip-path="url(#SVGID_38_)" fill="#FFFFFF" points="-0.476,47.029 -0.361,46.982 -0.47,47.02 		"/>
	</g>
	<g>
		<defs>
			<rect id="SVGID_39_" x="-51.909" y="-43.758" width="153" height="131"/>
		</defs>
		<clipPath id="SVGID_40_">
			<use xlink:href="#SVGID_39_"  overflow="visible"/>
		</clipPath>
		<polygon clip-path="url(#SVGID_40_)" fill="#FFFFFF" points="1.796,57.811 1.88,57.746 1.89,57.578 1.576,57.834 1.586,58.005 		
			"/>
	</g>
	<g>
		<defs>
			<rect id="SVGID_41_" x="-51.909" y="-43.758" width="153" height="131"/>
		</defs>
		<clipPath id="SVGID_42_">
			<use xlink:href="#SVGID_41_"  overflow="visible"/>
		</clipPath>
		<polygon clip-path="url(#SVGID_42_)" fill="#FFFFFF" points="1.591,58.105 1.596,58.17 1.746,58.075 1.865,57.979 1.875,57.852 
			1.855,57.869 		"/>
	</g>
	<g>
		<defs>
			<rect id="SVGID_43_" x="-51.909" y="-43.758" width="153" height="131"/>
		</defs>
		<clipPath id="SVGID_44_">
			<use xlink:href="#SVGID_43_"  overflow="visible"/>
		</clipPath>
		<path clip-path="url(#SVGID_44_)" fill="#FFFFFF" d="M-3.798,47.17c0.289-0.436,0.254-0.403,0-0.074
			C-3.798,47.119-3.798,47.141-3.798,47.17"/>
	</g>
	<g>
		<defs>
			<rect id="SVGID_45_" x="-51.909" y="-43.758" width="153" height="131"/>
		</defs>
		<clipPath id="SVGID_46_">
			<use xlink:href="#SVGID_45_"  overflow="visible"/>
		</clipPath>
		<polygon clip-path="url(#SVGID_46_)" fill="#FFFFFF" points="-7.653,32.327 -7.613,32.242 -7.886,32.566 		"/>
	</g>
	<g>
		<defs>
			<rect id="SVGID_47_" x="-51.909" y="-43.758" width="153" height="131"/>
		</defs>
		<clipPath id="SVGID_48_">
			<use xlink:href="#SVGID_47_"  overflow="visible"/>
		</clipPath>
		<polygon clip-path="url(#SVGID_48_)" fill="#FFFFFF" points="-0.974,47.158 -1.158,47.197 -1.601,47.555 -0.864,47.352 
			-0.441,46.988 		"/>
	</g>
	<g>
		<defs>
			<rect id="SVGID_49_" x="-51.909" y="-43.758" width="153" height="131"/>
		</defs>
		<clipPath id="SVGID_50_">
			<use xlink:href="#SVGID_49_"  overflow="visible"/>
		</clipPath>
		<polygon clip-path="url(#SVGID_50_)" fill="#FFFFFF" points="-7.707,32.46 -7.667,32.36 -8.021,32.757 		"/>
	</g>
	<g>
		<defs>
			<rect id="SVGID_51_" x="-51.909" y="-43.758" width="153" height="131"/>
		</defs>
		<clipPath id="SVGID_52_">
			<use xlink:href="#SVGID_51_"  overflow="visible"/>
		</clipPath>
		<polygon clip-path="url(#SVGID_52_)" fill="#FFFFFF" points="-8.385,33.304 -8.2,33.105 -8.37,33.269 		"/>
	</g>
	<g>
		<defs>
			<rect id="SVGID_53_" x="-51.909" y="-43.758" width="153" height="131"/>
		</defs>
		<clipPath id="SVGID_54_">
			<use xlink:href="#SVGID_53_"  overflow="visible"/>
		</clipPath>
		<path clip-path="url(#SVGID_54_)" fill="#FFFFFF" d="M-5.481,37.826c0.025,0.123-0.015,0.221-0.04,0.323
			C-5.406,38.073-5.342,37.979-5.481,37.826"/>
	</g>
	<g>
		<defs>
			<rect id="SVGID_55_" x="-51.909" y="-43.758" width="153" height="131"/>
		</defs>
		<clipPath id="SVGID_56_">
			<use xlink:href="#SVGID_55_"  overflow="visible"/>
		</clipPath>
		<path clip-path="url(#SVGID_56_)" fill="#FFFFFF" d="M-8.474,38.806l0.951-1.801c0.528-2.488-1.723,0.2-2.878,1.716
			c0.025-0.039,0.04-0.06,0.064-0.098c1.016-2.356,1.878-4.369,2.51-5.872l-0.329,0.354l-0.264,0.265
			c-0.627,1.347-1.399,3.036-2.311,5.048l-0.289,0.789c-0.677,1.091,0.613,0.638,0.856,0.012c1.729-1.08,3.791-5.657,1.624-1.345
			l-1.514,3.878c0.04,0.091,0.095,0.12,0.145,0.182C-9.047,41.374-9.172,39.777-8.474,38.806"/>
	</g>
	<g>
		<defs>
			<rect id="SVGID_57_" x="-51.909" y="-43.758" width="153" height="131"/>
		</defs>
		<clipPath id="SVGID_58_">
			<use xlink:href="#SVGID_57_"  overflow="visible"/>
		</clipPath>
		<path clip-path="url(#SVGID_58_)" fill="#FFFFFF" d="M-5.326,50.762l-0.279,0.194c0.105,0.085,0.249-0.015,0.409-0.212
			c0.901-0.194,3.382-2.542,3.845-2.975l-0.852,0.271c-0.852,0.659-1.753,1.472-2.739,2.339c0.513-0.864,1.101-2.433,1.15-3.209
			c-0.169,0.25-0.408,0.614-0.822,1.235C-5.606,50.129-5.69,50.741-5.326,50.762 M-4.739,50.344l-0.333,0.235
			c0.02-0.032,0.04-0.059,0.064-0.088L-4.739,50.344z"/>
	</g>
	<g>
		<defs>
			<rect id="SVGID_59_" x="-51.909" y="-43.758" width="153" height="131"/>
		</defs>
		<clipPath id="SVGID_60_">
			<use xlink:href="#SVGID_59_"  overflow="visible"/>
		</clipPath>
		<path clip-path="url(#SVGID_60_)" fill="#FFFFFF" d="M-5.615,38.223c-0.02,0.101-0.045,0.212-0.09,0.342
			c0.095-0.124,0.149-0.262,0.185-0.415C-5.551,38.173-5.575,38.202-5.615,38.223"/>
	</g>
	<g>
		<defs>
			<rect id="SVGID_61_" x="-51.909" y="-43.758" width="153" height="131"/>
		</defs>
		<clipPath id="SVGID_62_">
			<use xlink:href="#SVGID_61_"  overflow="visible"/>
		</clipPath>
		<path clip-path="url(#SVGID_62_)" fill="#FFFFFF" d="M-19.108,38.259c-0.02-0.023-0.035-0.054-0.055-0.08
			C-19.167,38.229-19.147,38.259-19.108,38.259"/>
	</g>
	<g>
		<defs>
			<rect id="SVGID_63_" x="-51.909" y="-43.758" width="153" height="131"/>
		</defs>
		<clipPath id="SVGID_64_">
			<use xlink:href="#SVGID_63_"  overflow="visible"/>
		</clipPath>
		<polygon clip-path="url(#SVGID_64_)" fill="#FFFFFF" points="-7.777,31.892 -8.165,32.101 -8.683,32.574 -8.614,32.536 
			-7.822,32.092 -8.18,32.861 -7.598,32.213 -7.384,31.69 -7.523,31.798 		"/>
	</g>
	<g>
		<defs>
			<rect id="SVGID_65_" x="-51.909" y="-43.758" width="153" height="131"/>
		</defs>
		<clipPath id="SVGID_66_">
			<use xlink:href="#SVGID_65_"  overflow="visible"/>
		</clipPath>
		<path clip-path="url(#SVGID_66_)" fill="#FFFFFF" d="M-21.244,28.515c-0.025-0.056-0.08-0.088-0.174-0.118
			C-21.354,28.436-21.294,28.459-21.244,28.515"/>
	</g>
	<g>
		<defs>
			<rect id="SVGID_67_" x="-51.909" y="-43.758" width="153" height="131"/>
		</defs>
		<clipPath id="SVGID_68_">
			<use xlink:href="#SVGID_67_"  overflow="visible"/>
		</clipPath>
		<polygon clip-path="url(#SVGID_68_)" fill="#FFFFFF" points="-28.281,22.004 -28.202,21.831 -28.725,22.545 		"/>
	</g>
	<g>
		<defs>
			<rect id="SVGID_69_" x="-51.909" y="-43.758" width="153" height="131"/>
		</defs>
		<clipPath id="SVGID_70_">
			<use xlink:href="#SVGID_69_"  overflow="visible"/>
		</clipPath>
		<polygon clip-path="url(#SVGID_70_)" fill="#FFFFFF" points="-29.307,23.505 -29.044,23.146 -29.288,23.448 		"/>
	</g>
	<g>
		<defs>
			<rect id="SVGID_71_" x="-51.909" y="-43.758" width="153" height="131"/>
		</defs>
		<clipPath id="SVGID_72_">
			<use xlink:href="#SVGID_71_"  overflow="visible"/>
		</clipPath>
		<polygon clip-path="url(#SVGID_72_)" fill="#FFFFFF" points="-28.177,21.775 -28.112,21.628 -28.516,22.204 		"/>
	</g>
	<g>
		<defs>
			<rect id="SVGID_73_" x="-51.909" y="-43.758" width="153" height="131"/>
		</defs>
		<clipPath id="SVGID_74_">
			<use xlink:href="#SVGID_73_"  overflow="visible"/>
		</clipPath>
		<polygon clip-path="url(#SVGID_74_)" fill="#FFFFFF" points="-8.878,32.864 -9.142,32.998 -9.874,33.672 -8.788,33.077 
			-8.081,32.399 		"/>
	</g>
	<g>
		<defs>
			<rect id="SVGID_75_" x="-51.909" y="-43.758" width="153" height="131"/>
		</defs>
		<clipPath id="SVGID_76_">
			<use xlink:href="#SVGID_75_"  overflow="visible"/>
		</clipPath>
		<path clip-path="url(#SVGID_76_)" fill="#FFFFFF" d="M-21.244,28.515c0.025,0.044,0.045,0.088-0.04,0.147l-0.623,0.806l0.04-0.021
			l0.498-0.544C-21.045,28.906-21.085,28.686-21.244,28.515"/>
	</g>
	<g>
		<defs>
			<rect id="SVGID_77_" x="-51.909" y="-43.758" width="153" height="131"/>
		</defs>
		<clipPath id="SVGID_78_">
			<use xlink:href="#SVGID_77_"  overflow="visible"/>
		</clipPath>
		<path clip-path="url(#SVGID_78_)" fill="#FFFFFF" d="M-21.419,28.397c-0.084-0.05-0.149-0.053-0.234-0.038
			C-21.563,28.362-21.498,28.37-21.419,28.397"/>
	</g>
	<g>
		<defs>
			<rect id="SVGID_79_" x="-51.909" y="-43.758" width="153" height="131"/>
		</defs>
		<clipPath id="SVGID_80_">
			<use xlink:href="#SVGID_79_"  overflow="visible"/>
		</clipPath>
		<polygon clip-path="url(#SVGID_80_)" fill="#FFFFFF" points="-28.052,20.81 -28.416,20.922 -28.914,21.263 -28.849,21.242 
			-27.973,20.939 -27.799,20.816 -28.212,21.263 -28.934,22.74 -28.087,21.578 -27.669,20.675 -27.749,20.763 		"/>
	</g>
	<g>
		<defs>
			<rect id="SVGID_81_" x="-51.909" y="-43.758" width="153" height="131"/>
		</defs>
		<clipPath id="SVGID_82_">
			<use xlink:href="#SVGID_81_"  overflow="visible"/>
		</clipPath>
		<polygon clip-path="url(#SVGID_82_)" fill="#FFFFFF" points="-29.108,21.492 -29.357,21.566 -30.065,22.054 -29.039,21.707 
			-28.356,21.216 		"/>
	</g>
	<g>
		<defs>
			<rect id="SVGID_83_" x="-51.909" y="-43.758" width="153" height="131"/>
		</defs>
		<clipPath id="SVGID_84_">
			<use xlink:href="#SVGID_83_"  overflow="visible"/>
		</clipPath>
		<path clip-path="url(#SVGID_84_)" fill="#FFFFFF" d="M-30.533,18.253c0,0.012,0,0.029,0,0.044
			C-30.423,18.189-30.433,18.183-30.533,18.253"/>
	</g>
	<g>
		<defs>
			<rect id="SVGID_85_" x="-51.909" y="-43.758" width="153" height="131"/>
		</defs>
		<clipPath id="SVGID_86_">
			<use xlink:href="#SVGID_85_"  overflow="visible"/>
		</clipPath>
		<path clip-path="url(#SVGID_86_)" fill="#FFFFFF" d="M63.458,36.609c0.011-0.006,0.021-0.003,0.03-0.009
			C63.807,36.002,63.728,36.147,63.458,36.609"/>
	</g>
	<g>
		<defs>
			<rect id="SVGID_87_" x="-51.909" y="-43.758" width="153" height="131"/>
		</defs>
		<clipPath id="SVGID_88_">
			<use xlink:href="#SVGID_87_"  overflow="visible"/>
		</clipPath>
		<path clip-path="url(#SVGID_88_)" fill="#FFFFFF" d="M62.96,30.183c-0.119,0.136-0.219,0.288-0.318,0.43
			c0.03,0.012,0.06,0.023,0.08,0.05C62.811,30.474,62.881,30.307,62.96,30.183"/>
	</g>
	<g>
		<defs>
			<rect id="SVGID_89_" x="-51.909" y="-43.758" width="153" height="131"/>
		</defs>
		<clipPath id="SVGID_90_">
			<use xlink:href="#SVGID_89_"  overflow="visible"/>
		</clipPath>
		<path clip-path="url(#SVGID_90_)" fill="#FFFFFF" d="M62.732,30.659c-0.896,2.024-2.471,7.325-1.753,8.62
			c0.119-0.515,0.188-1.101,0.349-1.568C61.008,36.138,63.448,31.278,62.732,30.659"/>
	</g>
	<g>
		<defs>
			<rect id="SVGID_91_" x="-51.909" y="-43.758" width="153" height="131"/>
		</defs>
		<clipPath id="SVGID_92_">
			<use xlink:href="#SVGID_91_"  overflow="visible"/>
		</clipPath>
		<polygon clip-path="url(#SVGID_92_)" fill="#FFFFFF" points="44.653,19.927 44.174,20.839 44.563,20.154 		"/>
	</g>
	<g>
		<defs>
			<rect id="SVGID_93_" x="-51.909" y="-43.758" width="153" height="131"/>
		</defs>
		<clipPath id="SVGID_94_">
			<use xlink:href="#SVGID_93_"  overflow="visible"/>
		</clipPath>
		<path clip-path="url(#SVGID_94_)" fill="#FFFFFF" d="M44.444,26.979c0.039-0.623,0.388-1.123,0.637-1.677
			C43.875,27.277,43.835,27.573,44.444,26.979"/>
	</g>
	<g>
		<defs>
			<rect id="SVGID_95_" x="-51.909" y="-43.758" width="153" height="131"/>
		</defs>
		<clipPath id="SVGID_96_">
			<use xlink:href="#SVGID_95_"  overflow="visible"/>
		</clipPath>
		<polygon clip-path="url(#SVGID_96_)" fill="#FFFFFF" points="44.532,20.245 43.915,21.375 44.433,20.507 		"/>
	</g>
	<g>
		<defs>
			<rect id="SVGID_97_" x="-51.909" y="-43.758" width="153" height="131"/>
		</defs>
		<clipPath id="SVGID_98_">
			<use xlink:href="#SVGID_97_"  overflow="visible"/>
		</clipPath>
		<path clip-path="url(#SVGID_98_)" fill="#FFFFFF" d="M61.038,39.241c0.01-0.021,0.02-0.044,0.02-0.064
			C61.029,39.244,61.029,39.256,61.038,39.241"/>
	</g>
	<g>
		<defs>
			<rect id="SVGID_99_" x="-51.909" y="-43.758" width="153" height="131"/>
		</defs>
		<clipPath id="SVGID_100_">
			<use xlink:href="#SVGID_99_"  overflow="visible"/>
		</clipPath>
		<path clip-path="url(#SVGID_100_)" fill="#FFFFFF" d="M61.456,39.571c0.548-0.485,1.544-2.18,2.002-2.962
			c-0.826,0.435-2.291,2.521-2.42,2.633c-0.01,0.026-0.021,0.059-0.021,0.088C61.128,39.491,61.267,39.585,61.456,39.571"/>
	</g>
	<g>
		<defs>
			<rect id="SVGID_101_" x="-51.909" y="-43.758" width="153" height="131"/>
		</defs>
		<clipPath id="SVGID_102_">
			<use xlink:href="#SVGID_101_"  overflow="visible"/>
		</clipPath>
		<polygon clip-path="url(#SVGID_102_)" fill="#FFFFFF" points="-50.191,24.855 -50.161,24.893 -50.036,24.128 		"/>
	</g>
	<g>
		<defs>
			<rect id="SVGID_103_" x="-51.909" y="-43.758" width="153" height="131"/>
		</defs>
		<clipPath id="SVGID_104_">
			<use xlink:href="#SVGID_103_"  overflow="visible"/>
		</clipPath>
		<polygon clip-path="url(#SVGID_104_)" fill="#FFFFFF" points="-50.415,23.187 -50.211,22.193 -50.325,22.128 		"/>
	</g>
	<g>
		<defs>
			<rect id="SVGID_105_" x="-51.909" y="-43.758" width="153" height="131"/>
		</defs>
		<clipPath id="SVGID_106_">
			<use xlink:href="#SVGID_105_"  overflow="visible"/>
		</clipPath>
		<polygon clip-path="url(#SVGID_106_)" fill="#FFFFFF" points="-51.087,21.74 -51.69,23.567 -50.972,24.196 -50.689,24.447 
			-50.514,23.207 -50.365,22.11 		"/>
	</g>
	<g>
		<defs>
			<rect id="SVGID_107_" x="-51.909" y="-43.758" width="153" height="131"/>
		</defs>
		<clipPath id="SVGID_108_">
			<use xlink:href="#SVGID_107_"  overflow="visible"/>
		</clipPath>
		<polygon clip-path="url(#SVGID_108_)" fill="#FFFFFF" points="-51.077,-40.983 -50.449,-40.507 -50.151,-41.84 -49.877,-43.075 
			-50.579,-43.431 -50.798,-42.248 -50.903,-41.648 		"/>
	</g>
	<g>
		<defs>
			<rect id="SVGID_109_" x="-51.909" y="-43.758" width="153" height="131"/>
		</defs>
		<clipPath id="SVGID_110_">
			<use xlink:href="#SVGID_109_"  overflow="visible"/>
		</clipPath>
		<polygon clip-path="url(#SVGID_110_)" fill="#FFFFFF" points="-50.161,22.213 -50.31,23.346 -50.355,23.637 -50.29,23.369 
			-50.026,22.283 		"/>
	</g>
	<g>
		<defs>
			<rect id="SVGID_111_" x="-51.909" y="-43.758" width="153" height="131"/>
		</defs>
		<clipPath id="SVGID_112_">
			<use xlink:href="#SVGID_111_"  overflow="visible"/>
		</clipPath>
		<polygon clip-path="url(#SVGID_112_)" fill="#FFFFFF" points="-51.466,-41.295 -51.431,-41.457 -50.988,-43.631 -51.252,-43.758 
			-51.665,-42.61 -51.909,-41.628 		"/>
	</g>
	<g>
		<defs>
			<rect id="SVGID_113_" x="-51.909" y="-43.758" width="153" height="131"/>
		</defs>
		<clipPath id="SVGID_114_">
			<use xlink:href="#SVGID_113_"  overflow="visible"/>
		</clipPath>
		<polygon clip-path="url(#SVGID_114_)" fill="#FFFFFF" points="101.091,39.774 100.733,38.594 99.537,39.965 99.179,40.363 
			99.537,40.924 99.577,40.997 		"/>
	</g>
	<g>
		<defs>
			<rect id="SVGID_115_" x="-51.909" y="-43.758" width="153" height="131"/>
		</defs>
		<clipPath id="SVGID_116_">
			<use xlink:href="#SVGID_115_"  overflow="visible"/>
		</clipPath>
		<polygon clip-path="url(#SVGID_116_)" fill="#FFFFFF" points="99.537,39.788 99.099,40.221 99.158,40.329 99.537,39.862 
			99.816,39.503 		"/>
	</g>
	<g>
		<defs>
			<rect id="SVGID_117_" x="-51.909" y="-43.758" width="153" height="131"/>
		</defs>
		<clipPath id="SVGID_118_">
			<use xlink:href="#SVGID_117_"  overflow="visible"/>
		</clipPath>
		<polygon clip-path="url(#SVGID_118_)" fill="#FFFFFF" points="100.026,38.556 100.553,38.024 100.543,37.985 		"/>
	</g>
	<g>
		<defs>
			<rect id="SVGID_119_" x="-51.909" y="-43.758" width="153" height="131"/>
		</defs>
		<clipPath id="SVGID_120_">
			<use xlink:href="#SVGID_119_"  overflow="visible"/>
		</clipPath>
		<polygon clip-path="url(#SVGID_120_)" fill="#FFFFFF" points="99.806,-34.202 98.79,-34.885 98.282,-35.223 97.735,-35.647 
			97.076,-35.302 98.193,-34.493 99.229,-33.74 		"/>
	</g>
	<g>
		<defs>
			<rect id="SVGID_121_" x="-51.909" y="-43.758" width="153" height="131"/>
		</defs>
		<clipPath id="SVGID_122_">
			<use xlink:href="#SVGID_121_"  overflow="visible"/>
		</clipPath>
		<polygon clip-path="url(#SVGID_122_)" fill="#FFFFFF" points="100.135,-34.467 100.344,-34.646 99.537,-35.39 99.428,-35.479 
			98.62,-36.094 98.153,-35.852 98.292,-35.761 99.179,-35.135 		"/>
	</g>
	<g>
		<defs>
			<rect id="SVGID_123_" x="-51.909" y="-43.758" width="153" height="131"/>
		</defs>
		<clipPath id="SVGID_124_">
			<use xlink:href="#SVGID_123_"  overflow="visible"/>
		</clipPath>
		<path clip-path="url(#SVGID_124_)" fill="#FFFFFF" d="M99.697,38.703l0.827-0.815c-0.608-1.854-1.405-4.143-2.401-6.79
			l-0.826-0.821c-0.419-0.832-0.558-1.741-0.508-2.691c-2.072-5.387-4.722-11.892-7.76-19.058L88.241,9.06l0.667-0.83l-1.613-3.739
			l-2.142,1.732l-1.006,0.815c0.219-0.438,0.508-0.882,0.776-1.327c0.538-0.841,1.116-1.688,1.804-2.542l-1.335-3.054
			c0.278,0.468,0.498,0.668,0.647,0.453c0.129,0.271,0.189,0.294,0.06-0.106c0.05-0.126,0.09-0.294,0.119-0.571
			c-0.747-3.192-1.395-5.881-1.893-7.932l-0.169,0.821c0.229,1.059,0.488,2.26,0.767,3.589l0.021-0.459l0.1,0.992
			c-0.021,0.376,0.06,0.859,0.179,1.35L83.102-6.53l-0.657-1.665l-2.461-5.901l-1.096-2.336l-0.109,0.338V-16.1
			c-0.01-0.064-0.02-0.091-0.04-0.156l-0.079-0.691l-0.349-0.833l-0.07-0.185l-0.04,0.453c0.11-0.57-0.428-0.65-0.368-0.067
			l0.289,1.639l0.02,0.076c-0.278-0.576-0.588-1.542-0.876-2.312c2.241-1.498,4.383-2.951,6.404-4.331
			c0.04,0.288,0.13,0.667,0.329,1.241l1.274,4.46l0.329,1.416l0.847,2.871c-0.389-0.915-0.797-1.794-1.255-2.63
			c-0.558-0.727-1.105-1.663-1.504-2.616l-0.568-1.474c-0.14-0.036-0.249-0.033-0.358-0.012c0.628,1.577,1.933,5.51,3.098,6.984
			l0.07-0.15v0.324l0.866,2.253l0.199-0.783l0.01,0.03l0.1,1.547c0.548,0.744,0.777,2.821,1.404,3.389l0.05,0.235
			c0.08-0.018,0.11-0.071,0.18-0.112c0.14,0.041,0.289,0.035,0.468-0.088l-1.314-4.366l-0.389-0.886l-0.349-1.547l-1.006-3.418
			l-0.09,0.276l-0.01-0.621c-0.318-0.856-0.707-2.392-1.076-3.781c0.598,1.333,1.136,2.519,1.584,3.492l0.06-0.694l-1.135-2.748
			l0.039,0.376l-0.209-0.789c-0.1-0.824-0.717-1.977-1.186-2.498c0.967-0.665,1.903-1.315,2.81-1.945l1.385,6.649
			c0.368,0.989,0.717,2.221,0.996,3.407l0.328,1.821c3.367,10.038-0.797,0.124-1.862-1.518l0.029,0.427v0.338
			c0.548,1.262,1.176,2.857,2.281,4.557l0.438,0.63c0.429,0.209,0.468,1.93,1.105,0.871c-0.986-3.933-2.44-8.673-3.387-14.045
			l-0.09,0.147l0.05-0.371l-0.139-0.691c0.349,0.697,0.717,1.412,0.886,2.063l2.381,4.919l0.638,0.965l1.096,1.58
			c1.345,2.233,1.992-0.074,1.076-1.333l-0.09,0.318l-0.021-0.727c-0.667-2.771-1.374-5.334-2.062-7.667
			c0.05,0.059,0.09,0.1,0.13,0.112l0.039-0.815c-0.368-0.971-0.797-2.068-1.265-3.286l0.05,0.438l-0.239-0.93
			c-0.04,0.006-0.05,0.047-0.079,0.062c-0.09-0.241-0.11-0.191-0.061,0.047c-0.647,0.544,0.946,3.904,1.285,5.922l1.415,5.307
			l0.349,1.677c1.105,3.419,0.309,0.085-1.295-1.259l-1.245-2.116l-0.1,0.38l-0.17-0.856l-0.378-0.768l-0.07-0.168l-0.05,0.433
			l-0.179-1.027l-0.538-1.5c-0.728-0.959-1.295-3.971-2.032-4.418c2.55-1.786,4.881-3.439,6.883-4.907
			c0.319,1.053,0.837,2.433,0.757,2.886l0.578,2.274l0.219-0.341l-0.129,0.844l0.119,0.803l0.021,0.174l0.159-0.386l-0.1,0.983
			l0.01,0.197c-0.488-1.006-1.195-2.265-1.364-2.848l0.089,0.424l0.021,0.474l-0.12-0.562l-0.02-0.392
			c-0.379-1.003-0.638-1.418-0.816-1.45c-0.279-0.471-0.548,0.379-0.27,1c0.021,1.012,0.289,2.5,0.718,3.045
			c0.448,0.915,0.886,2.062,1.115,3.201l0.289,1.745c2.4,9.87-1.086-1.115-2.281-2.051l0.03,0.412l0.01,0.315
			c0.567,1.191,1.274,2.668,2.111,4.392l0.369,0.63c0.487,0.5,0.069,1.259,1.205,1.524c-0.17-3.404-1.375-7.258-2.53-11.474
			c0.707,1.365,1.295,4.569,2.241,2.848l-0.827-5.157l-0.368-1.033l-0.149-0.824c0.558,1.268,1.136,2.498,1.823,3.601l1.255,2.194
			c0.906-0.882-0.09-1.556-0.021-2.303c-0.717-2.739-1.324-5.063-1.803-6.881c0.647-0.491,1.245-0.956,1.813-1.389l-1.156-0.783
			l-1.245-0.833c-1.334,0.7-2.839,1.521-4.482,2.445l1.036,0.421l-1.703-0.059c-2.689,1.518-5.758,3.295-9.104,5.284
			c-1.853,1.813-3.944,3.469-6.584,4.46l-2.351,0.95c-1.893,7.749,0.916,6.978,1.703,10.103c-1.843,0.33-3.805,0.588-5.977,0.688
			c-1.843,0.83-3.984,1.303-6.057,0.359c-0.647-0.106-1.265-0.427-1.853-0.806c-2.142-0.17-4.402-0.762-6.733-1.194
			c-1.036,0.465-2.072,0.691-3.068,0.635l-0.119,1.03c-0.14-0.053-0.289-0.094-0.418-0.15l-0.1-0.938l-0.977-0.241l-0.18-0.156
			l-0.05,0.783c-0.149-0.067-0.309-0.129-0.448-0.197c-0.05-0.353-0.1-0.706-0.139-1.085c-0.548-0.406-1.086-0.838-1.555-1.427
			l-3.924-0.947l-0.21-0.132l-0.029,0.07l-3.367-0.815l0.289,1.13l0.04,2.042l-0.349-1.494l-0.06-1.692
			c-2.839-0.656-5.718-1.068-8.467-1.365c-1.589,1.792-3.118,2.433-4.598,1.58c-0.786-0.436-1.554-0.924-2.355-1.565
			c-3.84,0.329-7.112,1.292-9.792,2.468c-0.603-0.177-1.195-0.35-1.838-0.533c-2.201-0.35-4.567-0.265-7.002-0.812l-2.246-0.468
			c-2.271-0.07-4.821-0.067-7.341-0.091c-0.966,0.312-1.978,0.488-3.013,0.529l0.309,1.48l-0.966-1.471l-1.041-0.056l-0.219-0.062
			l0.388,1.215l-1.146-1.424l-1.877-0.638c-2.296-0.306-4.577-0.459-6.769-0.818c-0.109-0.565-0.129-1.109,0.035-1.598
			c-0.359-2.327,2.894,1.477,0.388-5.246l-5.578-3.413l-0.333,1.289l-0.229-1.627c-10.454-6.334-19.23-11.397-24.798-14.274
			l-0.254,1.356l-0.269,1.456c1.28,0.959,2.754,2.03,4.383,3.201l-0.045-1.104l0.702,1.577c1.23,0.871,2.565,1.803,3.955,2.768
			l-0.329,0.671c-0.03-0.015-0.06-0.038-0.1-0.047c-1.684,3.274-3.551,7.484-6.769,10.355c-0.08,0.191-0.14,0.341-0.194,0.479
			c1.3-0.062,2.49-1.368,3.591-3.012c-0.134,0.376-0.309,0.732-0.428,1.121l0.378-0.371l-0.647,1.15
			c0.483,0.944-2.122,5.116,1.345,3.604l2.859-4.325c-0.886,0.771-1.683,1.4-2.4,1.883c1.026-1.224,2.042-2.356,3.043-3.437
			c-1.559,3.863-2.635,8.338,1.37,5.796c2.007-2.318,3.377-4.957,5.16-7.108l-1.28,3.274c-0.374,1.145-0.832,2.424-1.315,3.784
			c-0.981,2.186-1.474,4.348-2.072,6.369c0.249-0.032,0.443-0.144,0.677-0.206c0.065,0.224,0.199,0.485,0.523,0.844l0.249-1.077
			c1.105-0.456,1.987-1.212,2.719-2.15c-0.443,1.35-0.453,2.839-0.697,4.222c2.685,0.106,2.171-2.389,3.392-3.421
			c1.22-2.08,2.361-4.013,3.481-5.928c-0.289,1.389-0.607,2.945-1.006,3.56c-0.384,2.271-1.878,4.593-1.156,6.811
			c0,0.208,0.105,0.441,0.339,0.7c0.05,0.094,0.075,0.191,0.14,0.288c1.28-2.242,2.331-4.425,3.347-6.469
			c1.006-2.057,2.231-3.795,3.556-5.313c-1.081,0.906-0.588,3.41-1.031,4.922l-0.05,0.006l-0.617,1.159l-0.199,0.209l0.767,0.106
			l-0.209,0.394l-1.23,0.245l-1.778,1.818l-4.502,8.699l1.011-0.265l1.644,0.029l-1.335,0.347l-1.364-0.021
			c-1.649,3.222-3.223,6.343-4.712,9.326c0.543,2.033,0.149,3.998-1.205,5.396l-2.4,1.939c-2.037,4.21-3.83,8.017-5.319,11.3
			c0.179,0.108,0.045,0.335-0.159,0.591l-0.628-0.367c-1.305-0.763-2.47-1.421-3.486-1.969l-0.189,1.194l-0.02,0.15l-0.239,1.124
			l2.75,2.235c1.579,0.092-1.35,1.536,4.004,0.563l1.13-1.871l0.154-1.212c0.294-0.624,0.732-1.147,1.225-1.636
			c1.998,1.395,3.75,3.095,5.354,5.146h-0.035l-0.279,0.338c-0.294,0.067-0.652-0.088-1.016-0.177
			c-1.952,0.744-4.084,2.165-5.389,4.593l0.647,0.241l-0.717-0.15c-0.324,0.362-0.339,0.839-0.513,1.274l2.799,0.611
			c-0.802-0.035-1.818-0.103-2.938-0.146c-0.219,0.888-0.593,1.791-0.633,2.747l0.194,2.625c0.374,0.114,0.623,0.253,0.702,0.426
			c0.05,0.301-0.129,0.627-0.394,1.007l0.971,1.918l0.777-0.562l-0.663,0.747c1.773,2.801,4.448,3.592,6.4,3.698
			c-0.842,1.597-1.285,3.121-1.415,4.198l0.249,0.003c-0.02,0.088-0.025,0.182-0.035,0.273l-0.254-0.003l-0.035,0.241l0.269-0.012
			c-0.01,0.05-0.015,0.094-0.02,0.141l-0.269,0.009l-0.01,0.089l0.269,0.006c-0.06,0.712-0.04,1.506,0.338,2.403l0.538,0.433
			c0.244,0.441,0.179,1.018,0.309,1.553c1.942,3.172,6.495,4.334,10.534,4.084l-0.144-0.727l0.318,0.729
			c0.508,0.029,0.996-0.053,1.484-0.133c-1.753,2.501-2.58,5.046-2.42,6.823l0.623-0.089c0,0.095,0.025,0.197,0.03,0.294
			l-0.657,0.101v0.271l0.657-0.147l0.025-0.003c0.005,0.054,0.01,0.101,0.015,0.153l-0.05,0.003l-0.643,0.142v0.097l0.632-0.103
			l0.07-0.012c0.005,0.015,0.005,0.029,0.005,0.044c0.075,0.409,0.189,0.829,0.409,1.271l0.587,0.409
			c0.304,0.427,0.214,1.05,0.354,1.598c2.092,3.194,6.863,4.269,11.047,3.818l-0.189-0.741l0.369,0.729l2.216-0.341l-0.822-1.983
			l-0.403-0.977c0.219,0.271,0.448,0.6,0.682,0.921c0.418,0.573,0.852,1.194,1.315,1.874c0.508-0.079,0.991-0.241,1.479-0.389
			l0.03,0.465c-0.174,0.279-0.528,0.4-0.926,0.521c-0.319,0.683-0.737,1.274-0.917,1.986l0.702,0.088l-0.752,0.136
			c-1.439,4.348,1.927,7.661,3.695,8.099l0.075-0.17c0.08,0.053,0.149,0.114,0.234,0.164l-0.06,0.136l0.224,0.115l0.115-0.315
			L-5.7,85.86l0.089,0.044l-0.045,0.127l0.08,0.041l0.06-0.127l1.539,0.703l0.289-1.662l0.14-0.806l0.065,0.883l0.134,1.747
			c1.2,0.354,2.45,0.438,3.726,0.436c1.155-0.136,2.321-0.183,3.376-0.63c0.115-0.355,0.269-0.623,0.478-0.759
			c0.379-0.162,0.822-0.085,1.31,0.023c0.802-0.497,1.628-0.912,2.221-1.621L7.07,83.797l0.882,0.256
			c0.657-0.706,1.105-1.424,1.469-2.142c7.132,3.343,14.563,4.137,20.44,3.225l0.428,0.023l-0.029-0.088
			c0.179-0.029,0.349-0.057,0.518-0.089l0.07,0.18l0.05,0.012l-0.09-0.191c0.029-0.006,0.06-0.009,0.09-0.015l0.089,0.206
			c1.992,0.194,3.955-0.794,6.137-1.871l0.199-0.744c0.249-0.156,0.508-0.303,0.727-0.468l-0.069-0.062
			c0.448-0.177,0.956-0.262,1.563-0.18c2.201-2.571,7.601,0.409,14.901-4.187l-0.926-1.041l1.195,0.867
			c1.305-0.853,1.753-1.186,2.42-1.668l-1.514-1.577c0.18-0.158,0.389-0.314,0.548-0.479c0.578,0.474,1.186,0.966,1.912,1.457
			c0.867-0.479,3.208-1.501,5.319-2.504c2.022-1.063,4.313-2.577,5.877-5.02c-0.349-0.888-0.538-1.608-0.418-2.197
			c0.119-0.256,0.278-0.468,0.428-0.691l0.04,0.003l-0.01-0.062c0.109-0.168,0.199-0.354,0.318-0.512l0.249,0.591
			c8.547,0.247,13.767-6.657,13.736-12.053l0.618-0.336l-0.13-0.415l-0.149,0.112l-0.349,0.197c-0.01-0.133,0-0.271-0.01-0.403
			l0.398-0.285l-0.209-0.592L83.46,51.3c-0.05-0.282-0.109-0.562-0.199-0.826c0.06-0.08,0.14-0.147,0.209-0.227
			c-0.249-0.327-0.558-0.706-0.856-1.077c0.966-0.688,1.962-1.45,3.058-2.224c0.927-1.444,1.923-2.839,3.636-3.622l1.515-0.759
			c1.364-1.224,2.769-2.519,4.074-3.954c0.089-0.9,0.338-1.697,0.757-2.354l-1.893-1.265l2.182,0.855l0.428-0.453
			c0.906,1.681,1.724,3.146,2.411,4.325l0.757-0.818L99.697,38.703z M87.534-9.131l0.029,0.077v0.103L87.534-9.131z M87.943-8.839
			l-0.01,0.176c-0.021-0.032-0.03-0.062-0.04-0.088L87.943-8.839z M94.069-26.323l-0.069,0.1l0.039-0.262l0.04,0.2
			C94.069-26.303,94.069-26.309,94.069-26.323 M76.248-17.956c-0.01,0.159-0.029,0.303-0.04,0.491l-1.065-0.824L76.248-17.956z
			 M79.406-6.765l-0.1,0.168c-0.011-0.015-0.021-0.036-0.03-0.059L79.406-6.765z M78.958-12.39c-0.07-0.08-0.16-0.135-0.21-0.221
			c-0.349-0.638-0.398-1.347-0.328-2.071L78.958-12.39z M87.315-23.787l0.04-0.488c0.021,0.079,0.03,0.153,0.06,0.232L87.315-23.787
			z M97.286-28.124l0.02-0.424l0.1,0.912c0.05,0.176,0.418,1.75,0.717,3.033c-0.866-1.383-1.732-2.848-2.291-4.522l-0.587-1.53
			c-0.021-0.012-0.021-0.018-0.03-0.029c0.468-0.344,0.937-0.694,1.364-1.018l-0.06,0.303C96.748-30.43,96.997-29.327,97.286-28.124
			 M1.522-1.64L1.74-2.061L1.656-1.476C2.014-0.752,2.717-0.016,2.871,0.89C3.454,1.337,3.539,2.046,3.27,2.614L2.876,3.049
			c-0.174,0.515-0.553,1.03-1.125,1.412C1.696,4.802,1.601,5.173,1.312,5.326L1.96,6.171L1.143,5.447L0.844,5.579l-0.08-0.003
			l0.503,0.694L0.501,5.568l-0.678-0.159C-0.934,5.656-1.726,5.715-2.503,5.77l0.169,0.362l0.209,0.706l-0.254-0.483l-0.149-0.583
			c-0.881-0.053-1.743-0.094-2.52-0.356c-0.608,0.585-1.24,0.604-1.539,0.109l-0.314-0.838c-1.35-0.744-2.216-1.748-2.864-2.63
			c3.372-1.856,6.784-3.589,10.071-5.19L0.302-3.111l0.129,0.165l0.194-0.341C0.76-3.353,0.904-3.426,1.038-3.491L0.605-2.72
			L1.522-1.64z M-32.027-28.274l-0.752,0.742c0.129-0.053,0.299-0.344,0.443-0.686l0.14-0.147
			C-32.141-28.33-32.082-28.309-32.027-28.274 M-36.619-24.682c-1.155,1.512-2.107,3.157-3.392,4.351
			c-1.713,4.454,2.052-6.425,2.117-9.244c0.1-0.362,0.08-0.474-0.02-0.391c-0.154-0.783-1.051,0.085-3.377,4.36l1.046-1.238
			l1.17-1.136c-0.005,0.009-0.01,0.021-0.01,0.026l-1.33,1.562l-1.011,0.986c-7.511,11.985-0.184-0.909,0.737-5.734
			c0.413-0.547,1.155-1.056,0.966-1.674c1.395,0.965,2.844,1.956,4.378,2.998c0.727,0.286,1.449,0.603,2.157,0.938l-1.738,1.824
			l-0.389,0.532l1.19-0.8C-35.11-26.494-35.782-25.503-36.619-24.682 M-25.139-19.725c-1.205,1.721-2.246,3.695-3.252,5.728
			l0.872-1.244l-1.728,2.868c-0.005,0.139-0.065,0.268-0.134,0.392l0.084-0.574c0.364-1.924,1.026-3.854,1.648-5.905
			c0.055-1.6,2.6-5.101,0.14-5.545l-3.601,6.031l-2.301,4.042c-0.07,0.071-0.104,0.135-0.165,0.203
			c0.409-2.98,2.047-5.802,3.481-8.67l1.325-2.777c-0.304-0.306-0.528-0.433-0.727-0.494c-0.084-0.074-0.14-0.132-0.254-0.215
			c-0.035,0.076-0.065,0.141-0.104,0.215c-0.533,0.244-0.593,1.58-1.151,1.771c-1.813,2.977-3.282,6.196-5.513,8.849
			c-0.02,0.142-0.095,0.245-0.189,0.341l0.105-0.438c0.269-1.739,1.096-3.383,1.718-5.084c0.911-2.56,2.057-5.189,2.923-8.014
			c1.379,0.756,2.714,1.656,3.91,2.804l1.977,1.8l3.148,2.063C-24.277-21.581-24.292-20.278-25.139-19.725 M-23.53-14.908
			l0.627,0.082l-0.683,0.132L-23.53-14.908z M-37.565,19.674l0.149-0.112l0.867-0.676c0.129-0.118,0.338-0.294,0.583-0.498
			c0.802-0.676,2.052-1.7,2.784-2.321l-0.398,0.583c-0.05,0.515-0.613,1.495-1.225,2.527c-0.378,0.618-0.772,1.253-1.101,1.824
			c-0.359-0.344-0.703-0.665-1.041-0.957C-37.152,19.906-37.356,19.803-37.565,19.674 M-33.038,15.859
			c-0.085,0.059-0.115,0.076-0.234,0.167l0.359-0.353L-33.038,15.859z M-32.774,24.387c0.155-0.097,0.309-0.191,0.454-0.297
			l-0.359,0.409L-32.774,24.387z M-35.374,44.837l-0.015,0.671l-0.159-0.736c-0.797-0.123-1.454-0.608-1.982-1.326
			c-0.592-0.109-1.608-0.188-1.37-1.109l0.08-0.688c-0.14-0.609-0.663-1.08-0.618-1.81c-0.378-0.193-0.638-0.459-0.752-0.753
			l-1.544,0.256l1.489-0.447l-0.015-0.309l0.055-0.067l-1.27,0.182l1.429-0.408l0.493-0.521l0.468-2.101l-0.583-0.019l-1.086-0.132
			l0.787-0.009l0.891,0.135c0.045-0.85,0.603-1.409,0.941-2.05c-0.677-0.865-0.677-1.583-0.125-1.701l1.161,0.292
			c1.006-1.115,2.176-1.51,3.188-1.839c1.932,2.845,3.775,6.175,5.792,9.979c-0.587,0.292-1.135,0.639-1.648,1.004l-0.189,0.706
			c-0.254,0.218-0.618,0.229-1.051,0.149l-1.588,1.368l0.583,0.403l-0.722-0.241c-0.578,0.518-1.021,1.067-1.464,1.624
			L-35.374,44.837z M-27.629,25.938l0.807-0.718c-0.304,0.547-0.742,1.444-1.006,1.845c-0.025,0.029-0.045,0.07-0.06,0.094
			c-0.418,0.721-0.772,1.527-1.126,2.345c-0.075,0.191-0.174,0.371-0.254,0.568c-0.558-0.577-0.996-1.248-1.379-1.963
			c0.149-0.062,0.309-0.149,0.488-0.265c0.344-0.221,0.717-0.503,1.101-0.803C-28.51,26.597-27.978,26.15-27.629,25.938
			 M-26.244,29.61c0.279-0.277,0.563-0.539,0.856-0.757c1.459-2.159,0.498-0.686-0.688,1.383c-0.388,0.683-0.797,1.409-1.155,2.112
			c-0.199-0.332-0.423-0.683-0.643-1.032C-27.34,30.763-26.802,30.154-26.244,29.61 M-26.2,33.878l0.573-0.418l0.862-0.918
			l1.698-1.813c-0.463,0.736-1.001,1.548-1.494,2.339c-0.438,0.694-0.836,1.374-1.116,1.96c-0.179-0.321-0.363-0.645-0.563-0.997
			c0.109-0.098,0.179-0.15,0.299-0.263L-26.2,33.878z M-23.261,30.25c0.09-0.152,0.538-0.5,0.971-0.838
			c-0.06,0.129-0.139,0.265-0.224,0.406L-23.261,30.25z M-23.74,37.208l-0.513,0.256l-0.045-0.064l0.856-0.521l0.065-0.038
			l0.03,0.141L-23.74,37.208z M-23.67,36.873l-0.692,0.436l-0.104-0.177l1.026-0.618l0.045,0.2L-23.67,36.873z M-23.535,40.073
			l0.304,0.65l-0.483-0.611C-23.655,40.094-23.595,40.088-23.535,40.073 M-23.441,58.606l-0.338-0.966
			c0.199,0.274,0.408,0.604,0.617,0.93c0.205,0.313,0.409,0.642,0.618,0.992c-0.134,0.161-0.264,0.323-0.388,0.491L-23.441,58.606z
			 M-7.04,40.021l0.274-0.159c-0.553,0.944-1.026,1.975-1.439,3.051c-0.354-0.335-0.727-0.582-1.105-0.741
			c0.767-0.227,1.743-1.791,2.45-2.174L-7.04,40.021z M-6.851,44.861c0.613-0.624,1.215-1.327,1.718-1.697l-0.448,0.988
			l-0.787,2.063C-6.497,45.738-6.656,45.281-6.851,44.861 M-12.185,54.101l0.398,0.671l-0.578-0.611
			C-12.309,54.139-12.244,54.124-12.185,54.101 M-15.402,71.37c-0.643,1.068-1.653,1.412-2.371,0.883
			c-0.374-0.282-0.578-0.842-0.747-1.31c-3.382-0.9-4.303-4.042-4.751-5.922l-0.971,0.3c0-0.088-0.005-0.176-0.005-0.262
			l0.906-0.221l-0.015-0.062l-0.892,0.271c-0.005-0.035-0.005-0.064-0.005-0.1l0.856-0.262l-0.12-0.339l-0.752,0.112
			c0-0.048-0.005-0.089-0.005-0.139l1.992-0.727l0.513-0.773c0.289-0.789,0.757-1.568,1.614-2.01l0.727-0.415
			c0.628-0.662,1.489-1.145,2.247-1.762l0.578-1.165l-0.692-0.75l0.03-0.027l0.847,0.589l0.339-0.244h0.104l-0.732-0.738
			l1.081,0.724l0.896,0.026l2.674-1.386l-0.358-0.317l-0.528-0.68l0.488,0.415l0.429,0.576l3.073-0.83
			c0.324-0.941,0.931-1.418,1.554-1l0.882,0.747c2.859-0.402,4.896,0.754,6.405,0.921l0.109-0.038l0.155-0.618l0.01-0.018
			l0.07-0.253c0.015,0,0.03-0.006,0.045-0.006l-0.02,0.083l0.02-0.083c0.084-0.006,0.159-0.012,0.234-0.029L0.401,54.96
			l-0.095,0.386l0.374-0.139l0.04-0.088l0.205-0.503l-0.209-0.142c0.135-0.062,0.209-0.153,0.16-0.262l-0.18-0.062l0.294-0.024
			c0.438-1.403,0.518-0.559,0.518,0.65l-0.249,0.68l-0.179,0.5l-0.234,0.5l0.224,0.244l0.434-0.965
			c-0.01,0.371-0.015,0.727-0.01,1.036l-0.125,0.253c0.04,0.041,0.085,0.082,0.13,0.126c0.005,0.265,0.025,0.447,0.064,0.485
			l0.224-0.19c0.359,0.341,0.727,0.703,0.822,1.203l0.508-0.642L2.722,58.9c0.637,0.965,0.458,2.127-0.165,3.365
			c0.189,1.013-0.553,2.162-1.639,2.698l-1.081,0.45c-0.847,0.853-2.062,1.477-3.167,2.235c-0.189,0.647-0.588,1.083-1.036,1.444
			l0.847,1.162c-0.015,0.009-0.035,0.021-0.055,0.03l-1.096-0.983l-0.523,0.253h-0.14l0.872,1.139L-5.8,69.573l-1.22-0.141
			c-1.355,0.506-2.675,1.032-4.009,1.285l0.433,0.542l0.607,1.082l-0.607-0.712l-0.478-0.906
			C-12.578,71.199-14.028,71.202-15.402,71.37 M-2.498,71.282l0.458,0.535l-0.608-0.45C-2.593,71.338-2.543,71.306-2.498,71.282
			 M25.99,81.964l-1.509,0.098c-0.199-0.238-0.418-0.392-0.653-0.38l-0.418,0.324l-1.928-0.115c-1.778-0.32-3.421-0.591-5.115-1.262
			c-0.926-0.368-2.431-0.871-3.083-1.647l-0.453-0.533l-0.309-0.041l-0.687-0.806c-0.538-0.218-1.076-0.427-1.594-0.697
			c-0.204-1.444-0.688-2.675-1.061-3.442l-0.667,0.389l-0.881,0.515c0.04,0.529,0.125,1.029,0.199,1.715l0.548-0.306
			c-0.065,0.156-0.299,0.406-0.573,0.562c-0.06,1.039-0.095,2.181-0.573,3.271c0.129,0.821-0.229,1.736-1.066,2.136l-0.757,0.313
			c-0.638,0.529-1.444,1.009-2.356,1.273c-0.234,0.4-0.543,0.763-0.931,0.936l0.378,1.01l0.095,0.238l-0.145-0.227l-0.588-0.95
			l-0.428,0.059l-0.095-0.038l0.369,1.035L1.009,84.25l-0.787-0.376c-1.036,0.023-2.017-0.098-2.938-0.33l0.065,0.506l-0.015,0.933
			l-0.125-0.68l0.045-0.765c-1.041-0.314-1.868-0.788-2.56-1.348C-6.148,82.456-7,82.079-6.876,81.408l0.548-0.982
			c-0.717-2.431,0.812-4.919,1.28-6.305l-0.727-0.232c0.04-0.056,0.075-0.112,0.114-0.165c0,0,0.663,0.253,0.683,0.203
			c0,0-0.672-0.212-0.633-0.282l0.652,0.206l0.095-0.265l-0.533-0.25c0.025-0.033,0.04-0.06,0.06-0.086l2.555-0.064l0.672-0.494
			l-0.384-0.259l-0.603-0.551l0.523,0.324l0.488,0.468c0.861-0.512,1.708-0.93,2.565-1.215c0.159-0.903,0.697-1.239,1.275-1.057
			l0.827,0.523c2.42-0.271,4.049,0.859,4.811,1.871c0,0,0.468-0.447,0.483-0.462l0.413-0.421c-0.234-0.67-0.697-1.412-1.604-2.07
			l-0.448-0.06l-0.792-0.67c-0.856-0.38-1.853-0.519-2.884-0.533c0.125-0.117,0.259-0.232,0.379-0.355l-0.907-0.606l1.146,0.365
			c5.813-4.157,2.7-12.916-0.856-13.004L1.96,55.757c0.025-0.655,0.045-1.421,0.055-2.25c0.145-1.019-1.101-0.595-1.16-0.041
			c0,0-0.478,0.338-0.483,0.347c0-0.12-0.015-0.253-0.06-0.415l-0.06-0.864l-0.274,0.1l0.274-0.285c0,0,0.025-0.282,0.04-0.339
			l-0.224,0.118l0.269-0.323l0.129-0.51c0.434-1.12-1.504-1.053-1.559-0.312l0.179-0.023l0.244,0.044l-0.244,0.026l-0.199-0.035
			l-1.34,1.057c0.035-0.089,0.075-0.162,0.159-0.186l0.414-0.506c0.917-1.871,1.424-3.516,1.763-4.457l-0.199,0.082l-0.165,0.056
			l-0.712,1.56l-0.045,0.256l-0.314,0.556c0.254,0.397-1.907,2.728-1.409,3.104c0.259,0.241,0.354,0.188,0.398,0.038
			c0.224-0.047,0.518-0.15,0.936-0.339l-0.109-0.062l0.169,0.018l0.782-0.6l-0.523-0.203l0.807-0.015
			c0.12-0.03,0.209-0.071,0.289-0.115l-0.129,1.827l0.089,0.383l-0.1,0.388c-0.503-0.285-1.056-0.585-1.723-0.924l-0.453,0.083
			c-0.333-0.104-0.607-0.359-0.856-0.721c-1.031-0.115-2.222-0.307-3.486-0.38c0.309-0.583,0.508-1.191,0.642-1.807
			c0.941-1.053,1.987-2.43,2.431-3.004c0.01-0.62-0.403-0.605-1.648,1.071c-0.174,0.067-0.384,0.259-0.603,0.509
			c0.015-0.471-0.03-0.936-0.095-1.395c0.587-1.444,1.489-2.848,1.509-4.622c0.249-0.221,0.493-0.438-0.02-0.382
			c-0.01-0.139,0-0.271-0.02-0.412l-1.922,1.988l0.438-0.056l-0.876,0.459l-0.095,0.083c-0.174-0.31-0.358-0.592-0.553-0.848
			c0.558-1.488,1.195-2.951,2.042-4.328l-0.324,0.395l-0.414,0.368l0.429-0.521l0.343-0.306c-0.005-0.253-0.044-0.418-0.1-0.541
			c-0.05-0.098-0.104-0.162-0.174-0.188c0.09-0.056,0.174-0.105,0.264-0.153c0.06-0.32-0.025-0.388-0.333,0.133
			c-0.777-0.059-2.72,2.927-3.885,3.675c-0.03-0.003-0.065-0.012-0.07-0.098c-0.035,0.021-0.06,0.059-0.095,0.074
			c-0.045-0.003-0.09-0.021-0.134-0.021l-0.423,0.865l-0.538,1.092c0.349,0.506,1.13,0.9,1.255,1.601l0.483-0.636l-0.374,0.889
			c0.503,0.994,0.752,2.06-0.01,3.206c0.309,0.969-0.587,2.01-1.569,2.513l-1.071,0.377c-0.861,0.765-2.037,1.326-3.167,1.974
			c-0.02,0.063-0.06,0.092-0.084,0.15l-0.717,0.35c-0.712,0.313-1.33,0.727-1.913,1.186l-0.951-0.155
			c-1.35,0.385-2.655,0.847-3.969,1.012l0.393,0.55l0.523,1.083l-0.542-0.727l-0.414-0.897c-1.489,0.371-2.889,0.309-4.249,0.424
			c-0.672,1.018-1.663,1.282-2.335,0.735c-0.364-0.265-0.563-0.776-0.697-1.265c-3.268-0.953-4-3.951-4.258-5.819l-0.961,0.215
			c0.005-0.083,0.01-0.168,0.015-0.253c0,0,0.901-0.142,0.886-0.2l-0.886,0.188c0.005-0.033,0.005-0.063,0.005-0.095l0.847-0.191
			l-0.085-0.329l-0.737,0.053c0.005-0.05,0-0.088,0.005-0.135l1.604-0.51c0.398-0.521,0.832-1.059,1.25-1.659
			c0.179-0.791,0.747-1.421,1.539-1.803l0.703-0.345c0.553-0.645,1.395-1,2.126-1.523l0.603-1.03l-0.603-0.744l-0.115-0.139
			l0.149,0.118l0.752,0.598l0.318-0.209l0.085-0.006l-0.608-0.706l0.927,0.712l0.827,0.094l2.555-1.05l-0.293-0.327l-0.429-0.671
			l0.409,0.427l0.344,0.568l2.883-0.483c0.394-0.876,1.006-1.164,1.534-0.744l0.747,0.763c2.665-0.104,4.512,1.126,5.907,1.338
			l0.095-0.029c0,0,0.169-0.567,0.179-0.585l0.174-0.551c-0.548-0.376-1.26-0.823-2.117-1.323l-0.428,0.053
			c-0.294-0.112-0.528-0.362-0.747-0.709c0.224-0.133,0.523-0.342,0.937-0.683c1.783-1.813,3.376-3.413,4.781-4.722l-1.28,0.741
			c-1.235,1.136-2.555,2.462-3.979,3.865c0.857-1.562,1.808-3.188,2.914-4.907c-0.732-1.265-3.7,2.189-5.414,3.187
			c-1.096,1.106-1.609,1.533-1.763,1.53c0.14,0.146,0.414,0.146,0.901-0.115c1.743-1.468,7.561-5.896,5.419-4.175
			c-0.339,0.9-2.739,4.195-2.983,5.163c-1.783-0.436-3.994-1.018-6.41-0.6c-0.468-0.756-0.932-1.501-1.39-2.251l-1.016,0.662
			c-0.08-0.13-0.179-0.309-0.259-0.45c0.388-0.35,0.742-0.697,1.121-1.053c1.628-1.513,3.177-3.03,4.646-4.546
			c-0.025,0.038-0.035,0.095-0.075,0.127l-1.868,3.045c-0.886,1.188-1.115,1.779-0.971,1.997c-0.164,0.165-0.159,0.212,0.115,0.08
			c0.632,0.173,2.943-1.454,3.8-2.631l-0.523,0.241l1.14-0.782c1.913-2.659-2.281,4.021-1.698,5.198
			c0.04-0.62,2.774-4.586,2.929-6.281c-1.21-0.417-1.808,1.124-2.739,1.568c-0.224,0.256-1.121,0.982-1.908,1.633
			c0.857-1.392,1.704-2.827,2.525-4.378c0.333-0.526,0.428-0.814,0.413-0.979c0.05-0.05,0.104-0.103,0.149-0.152
			c-0.139-0.048-0.204,0-0.299,0c-0.045-0.003-0.064-0.013-0.114,0c-0.11,0.018-0.209,0.044-0.274,0.111
			c-0.638,0.314-1.619,1.159-1.888,1.747l0.598-0.235l-1.325,0.992l-1.166,1.191l-0.269,0.235l0.692-0.377l-1.609,1.171l-0.672,0.58
			l-1.061,0.924c-0.03-0.057-0.055-0.095-0.09-0.15c0.299-0.45,0.672-1.06,1.076-1.741c0.847-1.442,1.773-3.181,2.171-4.428
			c0,0,0.165-0.168,0.149-0.159l-0.125,0.129c0,0,0.085-0.108,0.01-0.064c0.045-0.149,0.08-0.285,0.104-0.418
			c0.563-0.435,0.867-0.697,0.055-0.282c0.015-0.146,0.025-0.279,0.005-0.385c0.04-0.068,0.11-0.057,0.165-0.065
			c-0.169-0.003-0.319,0.032-0.254,0.159l-3.153,3.362c0,0-1.484,1.58-1.504,1.609c-0.065-0.123-0.135-0.244-0.209-0.37l0.145-0.313
			c0.08-0.506,0.418-1.221,0.802-1.962c0.762-1.471,1.704-3.048,1.201-3.327l-1.813,1.609l-0.842,0.753l-0.921,0.903l-0.104,0.094
			c-0.194-0.15-0.389-0.297-0.568-0.459c0.05-0.145,0.12-0.268,0.179-0.409c0.07-0.161,0.125-0.332,0.214-0.474
			c0.184-0.347,0.623-1.197,1.051-2.098c0.931-1.977,1.768-4.198-0.398-1.903c-0.344,0.307-0.643,0.565-0.917,0.801
			c-0.812,0.691-1.325,1.059-1.628,1.194c-0.394,0.176-0.443-0.015-0.304-0.433c0.194-0.571,0.737-1.551,1.25-2.533
			c0.394-0.753,0.757-1.506,0.911-2.06l-0.473,0.642l-0.374,0.471c-0.1,0.197-0.214,0.433-0.313,0.645
			c-0.384,0.776-0.792,1.618-1.225,2.513c-0.07,0.138-0.13,0.268-0.199,0.405c-0.02-0.062-0.06-0.105-0.075-0.164l-0.414-1.13
			l-0.852-1.077l0.284-0.494l-0.1-0.268c0.145-0.101,0.294-0.191,0.423-0.294c0.364-0.283,0.712-0.56,1.051-0.818
			c0.329-0.253,0.653-0.491,0.971-0.668c0,0-1.195,0.438-1.21,0.444c-0.209,0.086-1.146,0.782-1.982,1.386l-0.363-0.45
			c0,0,0.234-0.379,0.179-0.32c0.309-0.598,0.647-1.212,1.006-1.842c0.528-0.918,1.081-1.854,1.668-2.839
			c0.02-0.165-0.01-0.239-0.02-0.347c-0.114,0.115-0.358,0.332-0.777,0.703c-0.438,0.715-0.817,1.421-1.205,2.133
			c-0.409,0.744-0.807,1.454-1.175,2.166c-0.414-0.465-0.817-0.886-1.22-1.301c0.284-0.291,0.707-0.686,1.195-1.115
			c1.235-1.092,2.809-2.372,3.177-2.627c-0.159-1.156-2.241,1.221-3.511,2.277c-0.184,0.153-0.354,0.285-0.493,0.365
			c-0.269,0.297-0.493,0.538-0.692,0.75c-0.07-0.07-0.145-0.156-0.209-0.229c0.339-0.538,0.757-1.215,1.116-1.903
			c0.214-0.406,0.414-0.824,0.563-1.224l1.325-2.506c-0.075-0.077-0.204-0.062-0.309-0.091c0.155-0.138,0.155-0.156-0.05-0.015
			c-0.847-0.138-2.485,1.074-3.825,2.342c-0.394,0.371-0.762,0.738-1.071,1.077c-0.11,0.121-0.185,0.218-0.279,0.33l-0.12-0.067
			l0.179-0.341l0.692-1.333l0.473-0.906l-0.269,0.17c0.06-0.103,0.125-0.218,0.184-0.327l0.518-0.615l0.742-1.206l0.165-0.253
			c0,0-0.483,0.397-0.458,0.359l1.026-1.236c0-0.568,1.664-1.544,0.703-1.854c1.524-2.736,3.098-5.596,4.736-8.62l-0.926-0.238
			l1.096-0.067l2.057-3.831l-2.769-0.436l-1.305-0.203c0.498-0.139,1.046-0.229,1.583-0.327c1.021-0.18,2.087-0.321,3.223-0.391
			l4.164-7.891l2.49-4.804c0.139,0.279,0.279,0.542,0.413,0.835c2.361,0.427,4.812,0.6,7.296,0.909l6.744,0.338
			c0.443-0.321,0.926-0.506,1.43-0.585c0.836-0.053,1.604,0.197,2.321,0.6l5.274-0.029l-0.374-0.918l0.861,0.938
			c1.987,0.006,3.925,0.218,5.807,0.515c-0.966,0.642-1.783,1.274-2.416,1.848L8.171-9.99c-0.13,0.05-0.259,0.109-0.389,0.156
			l-0.488-0.474l-0.094,0.077c0,0,0.503,0.429,0.428,0.462l-0.458-0.427l-0.08,0.068c0,0,0.483,0.382,0.418,0.403L7.07-10.107
			l-0.483,0.42l0.234,0.241C3.788-8.233,0.441-6.918-3.11-5.3c-2.64,1.642-5.713,2.839-9.064,4.445
			c-0.961,0.635-2.027,1.153-2.988,2.268c-3.108,5.917,3.177,9.067,5.728,10.768c1.33,0.359,3.287,0.83,4.796,1.268l-0.084-1.356
			l-0.02-0.368l0.294,0.45l0.876,1.354l1.668,0.197l0.354,0.1l-0.587-1.315l-0.035-0.08l0.095,0.083l1.758,1.518l3.138,0.268
			c4.188-0.782,8.073-2.101,11.52-3.883l-1.021-0.179L12.06,9.577l1.32,0.253l1.066,0.533c1.977-0.998,3.885-2.019,5.647-3.21
			l0.115-0.07l1.913,1.821c0.349,0.08,0.682,0.194,1.021,0.3c0.832,0.768,1.818,1.662,3.019,2.701l0.657,0.247l1.25,1.147
			c1.693,1.006,3.655,2.018,5.847,2.924c0.777,0.327,1.544,0.588,2.312,0.862c0.079,0.583,0.199,1.18,0.388,1.801l0.718,0.58
			c0.278,0.606,0.219,1.297-0.05,2.053c1.285,3.96,3.437,8.714,7.191,13.139l0.757-0.782l-0.607,0.971l1.973,2.301l2.759-3.646
			c-0.538,1.327-1.186,2.757-1.952,4.375c1.574,1.315,2.969,2.915,4.9,3.975c1.714,1.029,3.268,2.26,5.141,2.868
			c0.598-0.35,1.135-0.532,1.583-0.459c0.697,0.2,1.136,0.833,1.505,1.695c1.474,0.591,2.988,0.844,4.353,1.188l0.1-1.486
			l0.329,1.563c2.868,0.567,5.538,1.106,7.858,1.688c1.256-0.183,2.879-0.203,5.07,0.836l0.27,1.271
			c0.119,0.563,0.338,0.974,0.697,1.427l0.508-0.085c-0.109,0.079-0.27,0.146-0.408,0.212c0.109,0.129,0.159,0.235,0.299,0.382
			c0.318,0.333-0.488,2.019-0.658,2.369c-0.368,0.771-0.717,1.608-1.334,2.221c-0.359,0.356-1.325,1.4-1.883,1.4l-0.946,0.094
			l-0.877-0.706l0.528,0.751l-0.1,0.009l-0.429,0.129l-0.747-0.93l0.488,1.027l-1.126,0.797c-1.105,0.279-2.151,0.108-3.177,0.162
			l-0.827-0.342c-0.896-0.447-1.813-0.35-2.709-0.323c-1.275-0.342-2.381-0.776-3.308-1.227c0,0-0.159-0.418-0.239-0.438
			l0.011,0.338l-1.465-0.803c-0.129-0.044-0.259-0.074-0.378-0.121c-0.847,0-1.704-0.111-2.53-0.341l-0.199,1.253l-0.329-1.415
			l-0.816-0.32l-0.149-0.121l-0.06,1.083l-0.459-1.486l-1.265-1.07l-5.768-2.989l0.159,0.609l-0.039,0.974l-0.22-0.815l0.05-0.8
			c-2.082-1.2-4.063-2.43-5.906-3.657c-1.345,0.063-2.62-0.45-3.417-1.436l-0.986-1.715c-4.931-3.748-8.496-7.22-10.225-9.562
			l-0.403,0.715l-0.369,0.606c0.643,1.3,1.764,2.671,3.059,4.295l0.727,0.415c0.509,0.444,0.867,0.994,1.136,1.604
			c2.919,3.074,6.903,6.372,11.694,9.496l0.199-0.526v0.662l2.53,1.601l0.508-2.362l0.408,2.886l5.479,2.862
			c1.724,0.871,3.507,1.571,5.279,2.189c0.448-0.139,0.896-0.174,1.315-0.074c0.667,0.232,1.245,0.571,1.753,1.065
			c0.478,0.103,0.937,0.229,1.385,0.408l-0.09,0.409c-0.1,0.518,0.079,1.159-0.319,1.441c0.329-0.232,0.528,1.475,0.479,1.663
			c-0.169,0.567-0.508,1.171-0.797,1.694c-0.588,1.103-1.425,2.012-2.709,2.321l-0.299-0.313l0.179,0.348l-1.215,0.276l-0.528-0.276
			l-0.309,0.247l-1.504-0.07l-1.534-0.327l-0.069-0.441c-0.061,0.035-0.12,0.071-0.18,0.104l-0.02,0.279l-0.548-0.133
			c-0.638-0.05-1.285-0.138-1.963-0.32c-0.807,0.136-1.653,0.162-2.5,0.064l-0.01,1.251l-0.528-1.324l-0.826-0.241l-0.16-0.104
			l0.061,1.089l-0.608-1.436l-1.345-0.93c-2.081-0.609-3.944-1.671-5.827-2.551l0.189,0.592v0.962l-0.249-0.795l0.01-0.791
			c-2.102-1.065-3.984-2.362-5.816-3.516c-1.325,0.018-2.561-0.547-3.298-1.563l-0.916-1.7c-4.642-3.978-7.486-7.929-9.129-10.358
			l-0.458,0.68l-0.418,0.564c0.627,1.247,1.285,2.922,2.565,4.53l0.688,0.471c0.433,0.513,0.722,1.104,0.901,1.757
			c2.7,3.219,6.34,6.958,11.25,9.988l0.199-0.53l0.011,0.665l2.56,1.568l0.429-2.339l0.527,2.824
			c1.803,0.915,3.636,1.886,5.698,2.51c1.195,0.468,2.4,0.823,3.625,1.121c1.953-0.441,5.888-1.225,4.254,3.026l-0.578-0.341
			l0.419,0.438l-1.564,0.889c-0.328-0.118-0.638-0.142-0.866,0.018l-0.249,0.6c-0.638,0.421-1.435,0.444-2.172,0.688
			c-0.458,0.109-3.845,1.197-4.014,0.833l-0.21-0.421l0.11,0.418c-2.312-0.112-4.413,0.215-6.047-0.421l-0.707-0.441l-0.349,0.124
			c-0.747-0.229-1.375-0.441-1.883-0.636c-0.518,0.091-1.056,0.153-1.544,0l-0.069,1.3l-0.398-1.418l-0.728-0.247l-0.14-0.094
			l0.011,1.083l-0.498-1.4l-1.166-0.848c-1.833-0.606-3.421-1.677-5.085-2.433l0.1,0.567L24.7,72.98l-0.154-0.765l0.095-0.771
			c-1.713-1.183-3.402-2.312-4.911-3.507c-1.235-0.012-2.316-0.597-2.859-1.591l-0.618-1.639c-3.74-3.972-6.176-7.632-7.759-9.803
			l-0.483,0.659l-0.433,0.541c0.533,1.13,1.24,2.533,2.092,4.154l0.578,0.462c0.389,0.462,0.627,0.997,0.752,1.585
			c2.122,3.099,5.021,6.805,9.259,9.897l0.249-0.521l-0.075,0.65l2.196,1.63l0.702-2.371l0.155,2.836
			c1.658,0.804,3.237,1.886,5.104,2.472c1.709,0.503,3.322,1.256,5.035,1.479c0.398-0.229,0.808-0.361,1.195-0.353
			c0.05,0.006,0.09,0.032,0.149,0.041c-0.797,0.674-1.444,1.312-2.071,1.924c-0.289,0.288-0.568,0.559-0.827,0.797
			c-0.468,0.104-0.946,0.194-1.435,0.263c-0.418,0.149-0.847,0.285-1.339,0.408c0,0,0.513,0.485,0.453,0.491l0.039,0.101
			c-0.378-0.092-0.747-0.244-1.12-0.438c-0.787,0.171-1.613,0.309-2.525,0.353l-0.273-0.477L25.99,81.964z M54.026,19.13
			l0.169-0.088c0.498-0.088,1.007-0.171,1.444-0.283l-0.119-0.111c0.418,0.035,0.827,0.129,1.215,0.309
			c-1.644,1.707-3.287,3.39-4.82,5.096c-0.509,0.694-3.099,3.824-4.244,5.119c-0.029-0.038-0.069-0.068-0.089-0.104
			c0.039-0.059,0.069-0.091,0.109-0.155l2.719-4.543c1.375-2.645,2.072-4.236,2.321-5.11c0.309-0.042,0.647-0.071,0.946-0.118
			L54.026,19.13z M56.905,20.639c-1.155,1.488-2.411,2.718-3.327,4.063l-3.655,6.996c-0.737-0.771-1.435-1.551-2.092-2.33
			c0.926-0.592,2.47-2.157,3.516-3.751c1.783-2.092,3.766-4.099,5.777-6.149c-0.667,1.023-1.345,2.104-1.962,2.803L56.905,20.639z
			 M60.351,27.056l1.155-1.171l-1.604,3.106l-3.605,7.025c-0.199,0.312-0.31,0.523-0.429,0.762c-0.966-0.518-1.783-1.212-2.58-1.93
			l0.349-0.768c2.62-1.415,5.14-5.217,7.371-7.562L60.351,27.056z M53.03,34.614c-0.069-0.059-0.13-0.114-0.189-0.171
			c0.07-0.023,0.14-0.067,0.209-0.097C53.02,34.428,53.02,34.514,53.03,34.614 M52.781,34.39c-0.468-0.427-0.946-0.842-1.444-1.212
			l-0.318,0.892l-0.877,1.488l0.408-1.209l0.747-1.209c-0.349-0.348-0.667-0.691-0.996-1.042c1.574-0.394,3.387-3.671,5.061-5.063
			L58,24.122c-0.538,0.918-1.076,1.856-1.614,2.501c-0.558,0.82-0.866,1.915-1.354,2.969C54.265,31.33,53.518,32.913,52.781,34.39
			 M43.676,23.537c0.956-0.777,2.819-3.333,3.626-4.146c0.119,0.006,0.239,0.023,0.349,0.029c-0.13,0.465-0.607,1.515-1.613,3.478
			l-0.808,2.007c-0.029,0.141-0.1,0.271-0.159,0.399c0.349-0.567,0.777-1.247,1.325-2.104c0.966-1.903,1.484-3.074,1.693-3.751
			c1.115,0.042,2.151,0.015,3.138-0.047c-2.092,2.012-5.618,6.435-6.783,7.578c-0.011,0.186-0.03,0.365,0.029,0.577l1.803-1.947
			c1.733-2.074,3.806-4.069,5.938-6.158c-1.046,1.395-2.312,5.217-3.825,7.338c-0.568,0.864-0.917,1.479-1.116,1.93
			c-0.069-0.076-0.139-0.159-0.209-0.238c-1.883,0.141-3.147-0.58-3.237-1.877c-0.029-0.691,0.08-1.4,0.369-2.165
			C43.995,24.131,43.856,23.843,43.676,23.537 M44.732,19.18l-0.149,0.235l-0.906,2.283l0.996-1.845l0.249-0.65
			c0.777,0.094,1.524,0.138,2.271,0.186c-1.006,1-2.53,2.886-3.566,4.074c-0.129-0.209-0.249-0.411-0.368-0.62l0.318-0.548
			l0.558-1.021c-0.358,0.626-0.647,1.133-0.876,1.56c0-0.006-0.01-0.012-0.01-0.018l0.278-0.507l-0.289,0.495
			c-0.886-1.513-1.653-2.96-2.271-4.305C42.262,18.792,43.527,19.021,44.732,19.18 M91.12,34.293
			c0.189,0.564,0.209,1.056,0.04,1.392c-0.349,0.5-1.017,0.658-1.833,0.623l-2.62,2.707l1.176,0.773l-1.435-0.491
			c-2.59,2.783-5.04,5.093-7.212,7.046c-1.803-1.136-3.904-1.965-6.166-2.769c-1.942,0.06-3.835-0.047-5.498-1.168
			c-0.558-0.179-1.056-0.529-1.514-0.933c-0.977-0.247-1.913-0.556-2.839-0.903l0.398-1.427c0.647-2.318,0.408-2.807-0.13-2.541
			c-0.14,1.388-0.229,2.691-0.368,3.921c-0.737-0.282-1.455-0.585-2.172-0.936c0.02-0.094,0.05-0.182,0.03-0.314
			c-0.03,0.1-0.05,0.2-0.08,0.294c-0.02-0.015-0.06-0.023-0.08-0.038c-0.886,0.25-1.782,0.306-2.579,0.118l-0.896,2.229l0.438-2.444
			l-0.677-0.441l-0.09-0.168L56.277,40.7l0.389-2.433l-0.209-0.412c0.697-0.441,1.573-1.269,2.142-2.142
			c1.693-1.492,2.779-3.442,4.054-5.113c-0.169-0.056-0.418,0.009-0.816,0.265c-1.086,2.124-4.373,5.007-5.608,6.534
			c2.112-4.228,4.343-8.614,6.754-13.121c-0.03-0.041-0.07-0.041-0.1-0.064c0-0.089-0.04-0.145-0.14-0.104
			c-0.777-0.309-1.933,2.106-2.829,2.742c-1.753,2.191-3.785,4.228-5.787,6.352c-0.05,0.114-0.13,0.212-0.219,0.306l0.199-0.468
			l1.803-4.033c0.757-2.115,2.311-3.975,3.526-6.058l-0.708,0.592l1.544-1.889c0.05-0.064,0.07-0.112,0.11-0.165l0.249-0.283
			c-0.04,0.003-0.07,0.033-0.11,0.042c0.299-0.677-0.647-0.479-0.976,0.368l-0.369,0.388l0.896-0.67l-2.142,2.003l-3.157,3.348
			c-0.567,0.718-2.271,2.507-3.456,3.795c1.234-2.354,2.37-4.742,3.774-6.939l-0.786,1.015l-0.768,1.077l0.896-1.437l0.757-0.812
			c0.519-1.112,2.431-3.301,3.507-4.833l1.822-0.377L60.132,17.6l0.767,0.485c7.063-1.389,12.222-4.59,15.051-6.743l-1.345-0.768
			l-2.68,1.376l0.548,0.215l-0.946-0.006c-1.533,0.971-3.695,1.33-5.816,2.174c-1.285,0.868-2.819,1.368-4.503,1.353l-1.494,0.062
			c-1.265,0.244-2.569,0.474-3.925,0.58l1.584,1.321c-0.1,0.023-0.209,0.035-0.318,0.059l-0.528-0.688l-1.514,0.097l0.906,0.8
			c-0.04,0.009-0.09,0.018-0.13,0.027l-0.159,0.029l-0.269-0.238l0.219,0.247c-0.209,0.032-0.408,0.083-0.617,0.115l-0.199-0.186
			l-0.647-0.735c-2.341,0.227-5.359,0.047-8.706-0.65l-1.364,0.097c-1.136-0.103-2.152-0.585-3.038-1.232
			c-7.242-1.127-10.708-7.114-20.241-10.523c-0.174-0.059-0.338-0.126-0.523-0.186c-0.802-0.271-1.628-0.532-2.525-0.762
			l0.593,0.474l-0.926-0.271L13.081,6.5l1.853,1.338l0.852,0.615c-0.483-0.038-0.971-0.173-1.459-0.294
			c-0.961-0.229-1.913-0.544-2.824-0.941c-2.968,1.406-6.17,2.43-9.413,3.007c-2.948,0.376-5.902,0.312-8.113-0.903
			c-0.638,0.203-1.504-0.05-2.057-0.315c-1.051-0.523-1.753-1.359-2.126-2.271c-1.848-1.645-2.371-2.445-1.41-3.498l-1.006-0.306
			c0,0,1.395-0.085,1.439-0.112c0.105,0.28,0.229,0.559,0.429,0.833l0.383,0.159l0.274,0.882c1.175,1.483,3.217,3.024,5.897,3.486
			l0.01-0.459l0.1,0.477l1.39,0.162l-0.279-1.936l0.777,1.924c0.946-0.012,1.902-0.129,2.864-0.429
			C1.536,7.659,2.388,7.259,3.125,6.73L3.3,6.024c0.219-0.248,0.613-0.259,1.006-0.35C4.769,5.029,5.237,4.42,5.371,3.646
			L4.704,3.599l0.722-0.18c0.468-4.277-2.505-6.163-3.885-7.155C5.775-5.78,9.699-7.592,12.967-9.177l0.314-0.253
			c0,0,0.08,0.071,0.109,0.062c0,0-0.095-0.077-0.045-0.112c0,0,0.095,0.085,0.125,0.068c0,0-0.104-0.088-0.04-0.139l0.109,0.106
			c0.03-0.015,0.055-0.029,0.085-0.044c0.055-0.012,0.104-0.023,0.159-0.041l-0.179-0.156c1.783-1.479,5.414-3.625,10.459-3.936
			l1.484,0.977c0.951,0.356,1.897,0.094,2.879-1.033c3.058,0.18,6.106,0.995,9.084,1.698l0.12-2.254
			c0.199,0.727,0.358,1.545,0.488,2.398l0.478,0.115l1.006,0.892l0.329,1.806l0.08-1.489l0.119,0.094l0.628,0.165l0.179,1.839
			l0.229-1.794c0.638,0.047,1.314-0.083,2.002-0.356l4.433,1.183l1.146,0.68c1.255,0.809,2.659,0.894,4.044,0.747
			c1.933,0.559,3.686,1.097,5.2,1.606C58-6.309,58.02-6.28,58.03-6.239c0.11,0.012,0.229,0.032,0.329,0.012l0.169,0.062
			c0.867,0.133,1.783,0.289,2.789,0.48c0.229,0.347,0.488,0.644,0.777,0.788c0.567,0.297,1.215-0.023,1.743-0.818
			c1.295-0.053,2.609-0.126,3.885-0.147c0.688-0.012,1.733-0.262,2.391-0.077L70.9-5.715c0,0,0.588,0.865,0.617,0.862L71.208-5.65
			l0.1,0.026l0.398-0.094c0,0,0.429,0.718,0.498,0.697l-0.259-0.789l1.016-0.794l2.799-0.594l0.867,0.073
			c0.378,0.059,0.707,0.015,1.025-0.073l-0.139,0.194l0.487,1.121l0.03,0.268l0.977-0.818c0.029,0.071,0.06,0.121,0.079,0.194
			l-0.638,1.059l-0.278,0.477L78.4-2.349l3.756,8.361l0.458-0.877l1.096-1.165l-0.607,1.165L82.196,6.1
			c1.404,3.092,2.778,6.058,4.094,8.885c1.922,0.806,3.178,2.257,3.366,4.048l-0.069,2.868c1.624,3.372,3.128,6.411,4.502,9.103
			L91.12,34.293z M95.015,34.258l0.896,0.265c0.06,0.12,0.119,0.224,0.18,0.341L95.015,34.258z"/>
	</g>
	<g>
		<defs>
			<rect id="SVGID_125_" x="-51.909" y="-43.758" width="153" height="131"/>
		</defs>
		<clipPath id="SVGID_126_">
			<use xlink:href="#SVGID_125_"  overflow="visible"/>
		</clipPath>
		<polygon clip-path="url(#SVGID_126_)" fill="#FFFFFF" points="100.015,39.103 99.537,39.553 98.999,40.062 99.069,40.186 
			99.537,39.654 		"/>
	</g>
	<g>
		<defs>
			<rect id="SVGID_127_" x="-51.909" y="-43.758" width="153" height="131"/>
		</defs>
		<clipPath id="SVGID_128_">
			<use xlink:href="#SVGID_127_"  overflow="visible"/>
		</clipPath>
		<polygon clip-path="url(#SVGID_128_)" fill="#FFFFFF" points="-50.216,-32.837 -50.245,-32.734 -49.832,-33.449 		"/>
	</g>
	<g>
		<defs>
			<rect id="SVGID_129_" x="-51.909" y="-43.758" width="153" height="131"/>
		</defs>
		<clipPath id="SVGID_130_">
			<use xlink:href="#SVGID_129_"  overflow="visible"/>
		</clipPath>
		<polygon clip-path="url(#SVGID_130_)" fill="#FFFFFF" points="-48.239,-35.947 -48.109,-36.211 -48.891,-35.194 		"/>
	</g>
	<g>
		<defs>
			<rect id="SVGID_131_" x="-51.909" y="-43.758" width="153" height="131"/>
		</defs>
		<clipPath id="SVGID_132_">
			<use xlink:href="#SVGID_131_"  overflow="visible"/>
		</clipPath>
		<path clip-path="url(#SVGID_132_)" fill="#FFFFFF" d="M-50.549-30.522c0-0.003,0-0.003,0-0.006
			C-50.619-30.389-50.634-30.363-50.549-30.522"/>
	</g>
	<g>
		<defs>
			<rect id="SVGID_133_" x="-51.909" y="-43.758" width="153" height="131"/>
		</defs>
		<clipPath id="SVGID_134_">
			<use xlink:href="#SVGID_133_"  overflow="visible"/>
		</clipPath>
		<path clip-path="url(#SVGID_134_)" fill="#FFFFFF" d="M-49.738-33.452l-0.587,0.938c-0.185,0.98-0.249,1.606-0.224,1.986
			c0.279-0.512,1.464-2.736,1.663-4.11L-49.738-33.452z"/>
	</g>
	<g>
		<defs>
			<rect id="SVGID_135_" x="-51.909" y="-43.758" width="153" height="131"/>
		</defs>
		<clipPath id="SVGID_136_">
			<use xlink:href="#SVGID_135_"  overflow="visible"/>
		</clipPath>
		<polygon clip-path="url(#SVGID_136_)" fill="#FFFFFF" points="-47.262,-37.924 -48.293,-36.941 -49.718,-34.229 -48.064,-36.3 		
			"/>
	</g>
	<g>
		<defs>
			<rect id="SVGID_137_" x="-51.909" y="-43.758" width="153" height="131"/>
		</defs>
		<clipPath id="SVGID_138_">
			<use xlink:href="#SVGID_137_"  overflow="visible"/>
		</clipPath>
		<path clip-path="url(#SVGID_138_)" fill="#FFFFFF" d="M-47.994-21.961c-0.095,0.003-0.189-0.015-0.279-0.021
			C-48.407-21.284-48.383-21.031-47.994-21.961"/>
	</g>
	<g>
		<defs>
			<rect id="SVGID_139_" x="-51.909" y="-43.758" width="153" height="131"/>
		</defs>
		<clipPath id="SVGID_140_">
			<use xlink:href="#SVGID_139_"  overflow="visible"/>
		</clipPath>
		<polygon clip-path="url(#SVGID_140_)" fill="#FFFFFF" points="-48.438,-35.535 -48.288,-35.844 -49.294,-34.579 		"/>
	</g>
	<g>
		<defs>
			<rect id="SVGID_141_" x="-51.909" y="-43.758" width="153" height="131"/>
		</defs>
		<clipPath id="SVGID_142_">
			<use xlink:href="#SVGID_141_"  overflow="visible"/>
		</clipPath>
		<path clip-path="url(#SVGID_142_)" fill="#FFFFFF" d="M-47.128-25.626c0.946-2.462,2.326-4.73,3.377-7.111
			c0.872-1.639,0.777-2.3,0.313-2.365c-0.064-0.065-0.164-0.065-0.284,0.023c-0.777,0.197-2.022,1.368-2.381,2.789
			c-1.011,1.471-1.938,2.827-2.864,4.16c0.229-0.941,0.458-1.904,0.663-2.26l2.301-5.493c-1.395-1.162-2.187,2.336-3.227,3.154
			c-0.782,1.283-1.176,1.957-1.32,2.207c0.125,1.786,2.236-2.186,3.207-4.145c-0.349,0.747-0.906,1.95-1.743,3.783l-0.687,2.618
			c0.125,0.906-1.684,2.648-0.005,2.813l1.987-2.63l1.788-2.56c-1.345,2.539-2.859,5.175-3.163,8.402
			c0.299,0.167,0.598,0.232,0.892,0.259C-48.059-23.093-47.422-25.314-47.128-25.626"/>
	</g>
	<g>
		<defs>
			<rect id="SVGID_143_" x="-51.909" y="-43.758" width="153" height="131"/>
		</defs>
		<clipPath id="SVGID_144_">
			<use xlink:href="#SVGID_143_"  overflow="visible"/>
		</clipPath>
		<polygon clip-path="url(#SVGID_144_)" fill="#FFFFFF" points="93.291,-20.322 93.252,-20.404 93.281,-19.963 		"/>
	</g>
	<g>
		<defs>
			<rect id="SVGID_145_" x="-51.909" y="-43.758" width="153" height="131"/>
		</defs>
		<clipPath id="SVGID_146_">
			<use xlink:href="#SVGID_145_"  overflow="visible"/>
		</clipPath>
		<polygon clip-path="url(#SVGID_146_)" fill="#FFFFFF" points="93.232,-20.431 93.192,-20.504 93.241,-20.154 		"/>
	</g>
	<g>
		<defs>
			<rect id="SVGID_147_" x="-51.909" y="-43.758" width="153" height="131"/>
		</defs>
		<clipPath id="SVGID_148_">
			<use xlink:href="#SVGID_147_"  overflow="visible"/>
		</clipPath>
		<polygon clip-path="url(#SVGID_148_)" fill="#FFFFFF" points="93.182,-20.528 92.943,-20.969 92.893,-20.549 93.241,-19.801 		"/>
	</g>
	<g>
		<defs>
			<rect id="SVGID_149_" x="-51.909" y="-43.758" width="153" height="131"/>
		</defs>
		<clipPath id="SVGID_150_">
			<use xlink:href="#SVGID_149_"  overflow="visible"/>
		</clipPath>
		<polygon clip-path="url(#SVGID_150_)" fill="#FFFFFF" points="93.421,-19.436 93.431,-19.41 93.411,-19.642 		"/>
	</g>
	<g>
		<defs>
			<rect id="SVGID_151_" x="-51.909" y="-43.758" width="153" height="131"/>
		</defs>
		<clipPath id="SVGID_152_">
			<use xlink:href="#SVGID_151_"  overflow="visible"/>
		</clipPath>
		<polygon clip-path="url(#SVGID_152_)" fill="#FFFFFF" points="87.614,-14.494 87.604,-14.788 87.574,-14.867 		"/>
	</g>
	<g>
		<defs>
			<rect id="SVGID_153_" x="-51.909" y="-43.758" width="153" height="131"/>
		</defs>
		<clipPath id="SVGID_154_">
			<use xlink:href="#SVGID_153_"  overflow="visible"/>
		</clipPath>
		<polygon clip-path="url(#SVGID_154_)" fill="#FFFFFF" points="92.684,-21.66 92.644,-21.052 92.714,-20.878 92.783,-21.113 
			92.814,-21.366 92.684,-21.707 		"/>
	</g>
	<g>
		<defs>
			<rect id="SVGID_155_" x="-51.909" y="-43.758" width="153" height="131"/>
		</defs>
		<clipPath id="SVGID_156_">
			<use xlink:href="#SVGID_155_"  overflow="visible"/>
		</clipPath>
		<polygon clip-path="url(#SVGID_156_)" fill="#FFFFFF" points="92.325,-21.79 92.534,-21.319 92.555,-21.84 92.565,-22.008 
			92.395,-22.484 		"/>
	</g>
	<g>
		<defs>
			<rect id="SVGID_157_" x="-51.909" y="-43.758" width="153" height="131"/>
		</defs>
		<clipPath id="SVGID_158_">
			<use xlink:href="#SVGID_157_"  overflow="visible"/>
		</clipPath>
		<polygon clip-path="url(#SVGID_158_)" fill="#FFFFFF" points="87.774,-13.955 87.774,-13.743 87.793,-13.711 		"/>
	</g>
	<g>
		<defs>
			<rect id="SVGID_159_" x="-51.909" y="-43.758" width="153" height="131"/>
		</defs>
		<clipPath id="SVGID_160_">
			<use xlink:href="#SVGID_159_"  overflow="visible"/>
		</clipPath>
		<polygon clip-path="url(#SVGID_160_)" fill="#FFFFFF" points="87.624,-14.759 87.654,-14.291 87.674,-14.673 		"/>
	</g>
	<g>
		<defs>
			<rect id="SVGID_161_" x="-51.909" y="-43.758" width="153" height="131"/>
		</defs>
		<clipPath id="SVGID_162_">
			<use xlink:href="#SVGID_161_"  overflow="visible"/>
		</clipPath>
		<polygon clip-path="url(#SVGID_162_)" fill="#FFFFFF" points="87.564,-14.894 87.335,-15.359 87.276,-14.927 87.614,-14.123 		"/>
	</g>
	<g>
		<defs>
			<rect id="SVGID_163_" x="-51.909" y="-43.758" width="153" height="131"/>
		</defs>
		<clipPath id="SVGID_164_">
			<use xlink:href="#SVGID_163_"  overflow="visible"/>
		</clipPath>
		<path clip-path="url(#SVGID_164_)" fill="#FFFFFF" d="M83.49-10.434l0.079-0.365l0.08-0.277c-0.189-1.135-0.488-2.536-0.747-4.177
			l-0.12-0.627l-0.079-1.58c-0.13-0.724-0.199-1.239-0.249-1.63C81.338-17.904,83.45-11.41,83.49-10.434"/>
	</g>
	<g>
		<defs>
			<rect id="SVGID_165_" x="-51.909" y="-43.758" width="153" height="131"/>
		</defs>
		<clipPath id="SVGID_166_">
			<use xlink:href="#SVGID_165_"  overflow="visible"/>
		</clipPath>
		<polygon clip-path="url(#SVGID_166_)" fill="#FFFFFF" points="87.186,-15.476 87.215,-15.697 87.106,-15.976 87.106,-15.938 
			87.036,-15.415 87.106,-15.27 		"/>
	</g>
	<g>
		<defs>
			<rect id="SVGID_167_" x="-51.909" y="-43.758" width="153" height="131"/>
		</defs>
		<clipPath id="SVGID_168_">
			<use xlink:href="#SVGID_167_"  overflow="visible"/>
		</clipPath>
		<polygon clip-path="url(#SVGID_168_)" fill="#FFFFFF" points="86.977,-16.082 86.996,-16.23 86.837,-16.633 86.757,-16.027 
			86.937,-15.638 		"/>
	</g>
	<g>
		<defs>
			<rect id="SVGID_169_" x="-51.909" y="-43.758" width="153" height="131"/>
		</defs>
		<clipPath id="SVGID_170_">
			<use xlink:href="#SVGID_169_"  overflow="visible"/>
		</clipPath>
		<path clip-path="url(#SVGID_170_)" fill="#FFFFFF" d="M82.445-19.089c0.089-0.085,0.199-0.141,0.318-0.165
			C82.434-20.066,82.295-20.225,82.445-19.089"/>
	</g>
	<g>
		<defs>
			<rect id="SVGID_171_" x="-51.909" y="-43.758" width="153" height="131"/>
		</defs>
		<clipPath id="SVGID_172_">
			<use xlink:href="#SVGID_171_"  overflow="visible"/>
		</clipPath>
		<polygon clip-path="url(#SVGID_172_)" fill="#FFFFFF" points="83.65,-10.516 83.54,-10.198 83.57,-10.116 		"/>
	</g>
	<g>
		<defs>
			<rect id="SVGID_173_" x="-51.909" y="-43.758" width="153" height="131"/>
		</defs>
		<clipPath id="SVGID_174_">
			<use xlink:href="#SVGID_173_"  overflow="visible"/>
		</clipPath>
		<polygon clip-path="url(#SVGID_174_)" fill="#FFFFFF" points="83.57,-10.087 83.59,-10.016 83.64,-10.34 		"/>
	</g>
	<g>
		<defs>
			<rect id="SVGID_175_" x="-51.909" y="-43.758" width="153" height="131"/>
		</defs>
		<clipPath id="SVGID_176_">
			<use xlink:href="#SVGID_175_"  overflow="visible"/>
		</clipPath>
		<polygon clip-path="url(#SVGID_176_)" fill="#FFFFFF" points="83.669,-11.022 83.61,-10.819 83.669,-10.999 		"/>
	</g>
	<g>
		<defs>
			<rect id="SVGID_177_" x="-51.909" y="-43.758" width="153" height="131"/>
		</defs>
		<clipPath id="SVGID_178_">
			<use xlink:href="#SVGID_177_"  overflow="visible"/>
		</clipPath>
		<polygon clip-path="url(#SVGID_178_)" fill="#FFFFFF" points="83.59,-9.992 83.69,-9.569 83.859,-9.937 83.729,-10.652 		"/>
	</g>
	<g>
		<defs>
			<rect id="SVGID_179_" x="-51.909" y="-43.758" width="153" height="131"/>
		</defs>
		<clipPath id="SVGID_180_">
			<use xlink:href="#SVGID_179_"  overflow="visible"/>
		</clipPath>
		<polygon clip-path="url(#SVGID_180_)" fill="#FFFFFF" points="83.759,-9.139 83.839,-8.769 83.849,-8.819 83.978,-9.434 
			83.928,-9.622 83.828,-9.392 		"/>
	</g>
	<g>
		<defs>
			<rect id="SVGID_181_" x="-51.909" y="-43.758" width="153" height="131"/>
		</defs>
		<clipPath id="SVGID_182_">
			<use xlink:href="#SVGID_181_"  overflow="visible"/>
		</clipPath>
		<polygon clip-path="url(#SVGID_182_)" fill="#FFFFFF" points="84.177,-8.622 84.058,-9.136 83.958,-8.61 83.908,-8.439 
			84.008,-7.925 		"/>
	</g>
</g>
</svg>
