<?xml version="1.0" encoding="utf-8"?>
<!-- Generator: Adobe Illustrator 15.0.2, SVG Export Plug-In . SVG Version: 6.00 Build 0)  -->
<!DOCTYPE svg PUBLIC "-//W3C//DTD SVG 1.1//EN" "http://www.w3.org/Graphics/SVG/1.1/DTD/svg11.dtd">
<svg version="1.1" id="Layer_1" xmlns="http://www.w3.org/2000/svg" xmlns:xlink="http://www.w3.org/1999/xlink" x="0px" y="0px"
	 width="134px" height="145px" viewBox="-43.067 -46.412 134 145" enable-background="new -43.067 -46.412 134 145"
	 xml:space="preserve">
<polygon fill="#FFFFFF" points="11.17,95.704 11.427,95.75 10.507,94.672 "/>
<polygon fill="#FFFFFF" points="11.514,95.766 13.138,96.037 12.281,94.091 9.711,93.367 "/>
<g>
	<g>
		<defs>
			<rect id="SVGID_1_" x="-43.067" y="-46.412" width="134" height="145"/>
		</defs>
		<clipPath id="SVGID_2_">
			<use xlink:href="#SVGID_1_"  overflow="visible"/>
		</clipPath>
		<path clip-path="url(#SVGID_2_)" fill="#FFFFFF" d="M8.178,92.943c-4.004-1.303-8.94-3.137-14.141-6.285l-2.226-0.814
			c-1.78-0.917-3.171-2.35-4.454-3.661c-4.799-3.649-9.63-8.491-13.78-14.361c0.205-0.058,0.412-0.125,0.659-0.218
			c-0.168,0.036-0.438,0.093-0.712,0.149c-0.078-0.113-0.159-0.223-0.238-0.336c0.678-0.293,1.837-0.735,2.623-1.103
			c-0.433,0.982-0.901,2.947-0.26,3.772l-0.04,0.035c0.023,0.003,0.04-0.005,0.059-0.005c0.27,0.323,0.715,0.464,1.429,0.261
			c0.173-0.47,0.794-0.807,1.31-1.159c-0.148,0.687-0.292,1.387-0.383,2.16c-1.426,3.55,2.527,1.737,4.098,0.635
			c-0.611,1.39-1.123,4.538,1.475,3.881l1.982-1.666c-0.31,0.863-0.739,2.152-0.921,2.494c-0.294,0.952-0.324,1.983-0.185,3.045
			c2.377,0.508,1.842-1.012,2.895-1.414c0.081-0.249,0.523-0.488,0.89-0.732v1.602l0.292-0.717l-0.289,1.861
			c-2.145,5.482,6.907-1.919,3.203,1.115l0.062,3.722c2.262,0.694,2.011-1.398,3.125-1.867c2.46-3.238-0.283,0.646,1.142,2.67
			c-0.112,3.688,2.668,0.299,3.424-1.118c0.24,1.15,1.52,3.859,2.709,4.386c0.037,0.032,0.062,0.07,0.118,0.095
			c-0.008-0.024-0.025-0.051-0.036-0.073c0.694,0.25,1.352-0.263,1.742-2.328c0.347-3.669,0.75,6.834,3.339,3.479
			c-0.67,0.307-1.095,1.24-0.975,0.113c-0.663-2.021-2.001-7.653-4.031-2.23l0.726-0.863c-0.109,0.451-0.846,1.031-0.978,1.466
			C1.318,87.895,0.496,87,0.451,85.659c0.565-1.677-1.333-3.457-2.375-0.89c-2.72,4.939,0.021-0.146-2.678-3.658
			c-0.935,0.537-4.885,6.171-3.002,2.592c-0.096-1.138,0.037-2.386,0.067-3.597c-1.998,0.017-2.203,1.034-3.219,1.585
			c0.267-0.577-0.02-2.404,0.165-3.3c1.381-3.867-3.042-1.129-4.02,0.163c-0.134-1.905,3.793-6.297-0.748-4.912l-1.819,1.449
			c0.173-0.603-0.249-1.536,0.096-2.177l-0.583,0.717l0.8-2.104c0.569-1.132-1.453-1.115-1.66-0.415l-0.443,0.244l1.063-0.182
			l-2.49,1.042c-0.21,0.165-0.364,0.296-0.491,0.415c0.101-0.271,0.168-0.651,0.132-1.156c-0.397-1.365,1.839-2.779-0.457-4.277
			l-2.043,1.878c0.403-1.245,0.283-3.227-0.358-3.93l-1.14,0.63l-0.98,0.404c-0.498,0.131-0.836,0.323-1.075,0.524
			c0.062-0.158,0.123-0.31,0.188-0.538l1.028-4.377c0.046-0.546,0.005-0.923-0.079-1.219c2.419,3.609,5.029,6.345,7.346,8.076
			l-0.07-1.397l0.032-1.109c-2.495-2.358-4.76-5.884-7.025-10.224l-1.256-1.463c-0.566-1.509-0.921-3.053-1.106-4.538
			c-3.203-9.327-3.758-22.045,1.1-34.559l-0.776,0.056l1.002-0.564l2.786-6.412l-3.368,0.554c1.292-1.242,2.957-2.048,4.725-2.618
			c2.506-3.963,5.177-7.939,8.825-11.272c2.863-3.53,6.748-5.772,10.169-8.398c0.481-0.812,1.12-1.598,2.033-2.028
			c1.48-0.767,3.01-1.204,4.469-1.432c3.102-1.792,6.462-2.649,9.721-3.506l-0.921-0.734l1.93,0.442
			c19.31-4.903,35.333,3.59,42.485,10.001l-0.027-2.74c-1.744-2.114-4.494-3.527-7.315-5.415l0.591,1.159l-1.744-1.895
			c-4.796-2.651-10.949-5.094-17.989-5.645c-4.644-0.558-9.354,0.766-14.343,0.599l-4.418,0.828
			c-5.103,0.937-9.828,3.513-14.804,5.863c-1.576,1.398-3.107,2.949-4.843,4.277l1.554,0.801l-2.66,0.055l-1.799,1.297l-0.424,0.236
			l1.61,0.403l-2.97,0.522l-3.242,2.596C-20.685-3.7-23.602,1.14-26.569,5.725l1.133-0.688l1.594-0.434l-1.493,0.88l-1.333,0.39
			c-2.62,5.502-5.005,10.936-5.912,16.521c-0.376-0.181-0.673-0.258-0.935-0.289c-0.048-0.064-0.064-0.117-0.123-0.186l-0.09,0.169
			c-1.165,0.026-1.315,1.418-2.268,1.668l0.309-0.031l0.411,0.087l-0.403,0.037l-0.344-0.071l-1.501,1.207l0.19-0.213
			c1.224-3.049,2.957-5.247,3.688-6.687l-0.365,0.037l-0.297,0.011c-0.457,0.6-1.013,1.353-1.654,2.243l-0.152,0.396l-0.694,0.784
			c-0.257,0.44-0.511,0.923-0.77,1.422c0.283-2.075,0.622-4.151,1.042-6.227c1.335-5.336,3.174-10.464,5.716-15.102
			c0.034-1.154,0.417-2.287,1.016-3.368c1.065-1.75,2.289-3.232,3.856-4.229c2.608-3.463,5.474-6.65,8.642-9.302l-1.442-0.311
			l2.405-0.542c18.689-15.652,41.04-15.849,52.709-12.94l-1.732-2.896c-0.436-0.136-0.905-0.239-1.359-0.355l0.068-1.045
			l-0.533,0.228l0.533-0.429c0.024-0.822,0.104-1.786-0.524-2.753c-0.651-0.487-1.121-0.959-1.269-1.837l-0.375-0.625l-2.135-1.472
			c-0.427,0.183-0.81,0.321-1.151,0.324l-0.227,1.229l0.011-1.235l-0.325-0.067l-0.063-0.058l-0.063,1.029L27.06-40.22l-0.591-0.544
			c-0.913-0.251-1.801,0.171-2.66,0.271l0.283,0.414l0.35,0.824l-0.345-0.556l-0.32-0.676c-1.01,0.089-1.806,0.7-2.567,1.237
			c0.112,0.947-0.04,1.39-0.615,1.44l-0.953,0.122c-1.097,1.467-1.181,2.881-1.095,3.976c-1.371,0.031-2.779,0.111-4.221,0.246
			c0.054-0.487,0.14-0.999,0.275-1.548l-0.125-0.512l0.7-1.003c0.999-2.268,3.213-4.653,6.315-6.101l-0.258-0.335l0.39,0.277
			c0.547-0.205,1.05-0.558,1.646-0.664l-1.088-1.479c0.602,0.294,1.184,0.787,1.699,1.323c1.133-0.398,2.339-0.398,3.558-0.502
			c1.08,0.197,2.218,0.149,3.155,0.647l0.801-0.12c0.424,0.088,0.687,0.428,0.801,0.881c0.668,0.539,1.477,0.883,1.931,1.615
			l0.314-0.525l-0.15,0.719c2.662,3.224,3.259,7.081,3.604,9.724l-1.124-0.3l1.342,2.646l1.548,0.277l-0.471-0.844v-0.058
			l-0.027,0.014l-0.098-0.183l0.139-0.05l0.014-0.348l-0.306,0.12l-0.202-0.355l0.524-0.236l0.033-2.421l-0.396,0.337l0.396-0.698
			c-0.181-1.451-0.389-3.174-0.998-4.977c-0.823-1.04-1.211-2.243-1.977-3.41l-0.623-1.121c-0.951-1.042-2.204-2.092-3.649-2.67
			l-1.841-0.255l-0.052,0.981l-0.344-1.012l-0.61-0.088l-0.131-0.053l0.14,0.792l-0.574-0.962l-1.141-0.466
			c-1.635,0.066-3.216,0.23-4.666,0.745l0.411,0.244l0.488,0.544l-0.521-0.33l-0.425-0.445c-1.639,0.556-3.17,1.281-4.42,2.265
			c-0.28,0.917-0.782,1.62-1.525,2.082l-1.327,0.557c-2.046,2.537-2.652,5.341-2.525,7.428C8.438-32.8,3.659-31.753-1.195-29.96
			c-5.095,2.657-10.229,5.46-15.411,8.746l-4.567,3.176c-4.688,4.227-9.221,9.17-12.625,15.068c-0.969,2.413-1.769,4.966-2.887,7.42
			l2.176-0.083l-2.746,1.712l-0.997,2.554l-0.277,0.525l1.917-0.592l-2.777,2.437l-2.004,4.76
			c-1.52,6.958-1.988,13.957-1.474,20.708l0.636-1.487l1.303-1.525l-0.882,1.919l-1.028,1.306c0.657,7.686,2.789,14.921,5.7,21.358
			c2.474,2.597,4.852,5.815,6.567,9.295l2.545,5.409C-15.273,88.294,0.728,93.999,9.842,95.478l-0.98-1.379L8.178,92.943z
			 M20.808-34.815c0.726-0.923,1.475-1.867,2.861-2.423l-0.251-0.489l0.302,0.459l0.737-0.148l-0.892-2.175
			c0.429,0.562,0.827,1.305,1.156,2.143c0.499,0.005,1.011-0.35,1.519-0.117l1.4,0.231c0.186-0.254,0.38-0.448,0.486-0.409
			c0.175,0.072,0.235,0.372,0.186,0.759l0.94,0.544l0.443-0.611l-0.339,0.656c1.191,1.089,1.697,2.49,2.042,3.665
			c-2.408-0.467-5.05-0.75-7.889-0.966l1.329,0.892c-0.991-0.297-2.004-0.493-3.012-0.909c-0.44-0.014-0.902-0.008-1.352-0.011
			l0.126-0.384l-0.227-0.282C20.38-34.587,20.484-34.765,20.808-34.815 M-26.537,61.548l-0.422,0.793
			c0.27,0.543-0.439,1.989-0.896,3.284c-0.59-0.912-1.201-1.797-1.755-2.752C-27.368,62-24.218,59.535-26.537,61.548
			 M-30.851,60.496c-0.366-0.692-0.741-1.37-1.083-2.084c0.241-0.255,0.436-0.562,0.86-0.646c0.214-0.206,0.915-0.705,1.547-1.186
			c-0.42,1.229-0.965,2.488-1.31,3.878C-30.841,60.468-30.844,60.479-30.851,60.496 M-26.054,59.966
			c-0.958-0.534-3.063,1.425-3.908,2.239c-0.015-0.027-0.029-0.057-0.042-0.081c0.034-0.038,0.048-0.061,0.083-0.106
			c-0.811-0.99,1.655-5.194,1.406-6.305c0.008-0.011,0.014-0.016,0.02-0.021C-27.723,57.223-26.903,58.648-26.054,59.966
			 M-28.585,55.518c-0.005,0-0.025,0.009-0.033,0.009c-0.182-0.171-0.585-0.093-1.359,0.388c-0.431,0.56-1.564,1.107-2.295,1.542
			c1.842-3.794,1.658-5.159,0.868-5.688c-0.037,0.092-0.062,0.157-0.101,0.261l-1.579,3.756c-0.398-0.929-0.797-1.852-1.151-2.817
			c0.955,0.217,1.851-0.564,2.492-1.368c-1.547-0.603-4.14,0.402-0.467-5.221c0.002-0.111,0.031-0.212,0.067-0.307
			c0.39,1.446,0.814,2.85,1.3,4.188c-0.118,0.189-0.44,0.762-0.899,1.34c0.118,0.049,0.235,0.098,0.339,0.169
			c0.311-0.809,0.502-1.281,0.574-1.472C-30.159,52.153-29.397,53.884-28.585,55.518 M-32.412,45.059
			c-0.12,0.217-0.264,0.478-0.462,0.836l-0.77,1.835c-0.516,1.145-0.956,2.301-1.193,3.489c-0.395-1.167-0.745-2.36-1.072-3.576
			c0.118,0.021,0.201,0.064,0.366,0.06c0.94,0.146,2.418-1.813,3.102-2.763C-32.432,44.972-32.424,45.018-32.412,45.059
			 M-37.866,37.246l-3.222,2.891c0.737-2.193,1.621-4.139,3.01-5.914c-0.186-2.439-0.112-4.915,0.083-7.4l1.26-0.962l-0.188-0.122
			l0.289,0.045l1.271-0.992l-0.932-0.381l1.311,0.031l-0.026,0.05l-0.137,0.642l-0.691,0.793l-1.111,2.071l0.333-0.011l-0.44,0.226
			c-1.263,2.144-1.304,3.14-0.796,3.479c-0.185,0.174-0.134,0.267,0.472,0.18c0.003-0.017,0.008-0.027,0.011-0.046
			c1.335,0.051,3.924-1.656,4.151-2.608l-0.681-0.223l-1.562,1.17l0.317,0.016l-0.552,0.166c-0.131,0.171-0.935,0.581-1.55,0.939
			c0.163-0.738,0.358-1.499,0.879-2.149l0.523-0.771l1.654-2.878l0.473-1.292l-0.495-0.084l0.625-0.188l0.226-0.419l0.062-0.084
			l-0.276-0.003c0.062-0.044,0.12-0.092,0.168-0.144l0.324-0.146l0.473-0.591c-0.008,0.056-0.027,0.111-0.035,0.167
			c0.217,2.837,0.406,6.059-0.042,9.174l-1.095,4.755c0.095,1.156,0.232,2.28,0.395,3.382l-0.964,1.948l1.07-1.297
			c0.002,0.011,0.002,0.021,0.005,0.035l-0.446,0.567l0.457-0.505c0,0.011,0.003,0.021,0.006,0.032l-0.762,0.929l0.663-0.706
			l0.099-0.217c0.202,1.259,0.44,2.488,0.719,3.675l-1.066,0.917c-0.557,0.706-1.662,1.129-2.212,1.666
			c0.734-1.98,1.375-3.815,2.15-5.352l-0.711,0.836l-0.561,0.621c0.018,0.674-1.029,2.169-1.408,3.266l-0.677,0.54l0.596-1.26
			C-37.137,42.975-37.58,40.141-37.866,37.246"/>
	</g>
	<g>
		<defs>
			<rect id="SVGID_3_" x="-43.067" y="-46.412" width="134" height="145"/>
		</defs>
		<clipPath id="SVGID_4_">
			<use xlink:href="#SVGID_3_"  overflow="visible"/>
		</clipPath>
		<polygon clip-path="url(#SVGID_4_)" fill="#FFFFFF" points="10.748,95.632 11.055,95.69 9.936,94.224 		"/>
	</g>
	<g>
		<defs>
			<rect id="SVGID_5_" x="-43.067" y="-46.412" width="134" height="145"/>
		</defs>
		<clipPath id="SVGID_6_">
			<use xlink:href="#SVGID_5_"  overflow="visible"/>
		</clipPath>
		<polygon clip-path="url(#SVGID_6_)" fill="#FFFFFF" points="8.472,93.019 8.373,92.998 8.913,93.779 		"/>
	</g>
	<g>
		<defs>
			<rect id="SVGID_7_" x="-43.067" y="-46.412" width="134" height="145"/>
		</defs>
		<clipPath id="SVGID_8_">
			<use xlink:href="#SVGID_7_"  overflow="visible"/>
		</clipPath>
		<polygon clip-path="url(#SVGID_8_)" fill="#FFFFFF" points="40.549,-28.292 41.123,-28.192 40.866,-29.376 40.434,-30.374 
			39.33,-30.677 39.417,-30.504 		"/>
	</g>
	<g>
		<defs>
			<rect id="SVGID_9_" x="-43.067" y="-46.412" width="134" height="145"/>
		</defs>
		<clipPath id="SVGID_10_">
			<use xlink:href="#SVGID_9_"  overflow="visible"/>
		</clipPath>
		<polygon clip-path="url(#SVGID_10_)" fill="#FFFFFF" points="43.988,-29.757 43.709,-29.846 44.234,-27.5 		"/>
	</g>
	<g>
		<defs>
			<rect id="SVGID_11_" x="-43.067" y="-46.412" width="134" height="145"/>
		</defs>
		<clipPath id="SVGID_12_">
			<use xlink:href="#SVGID_11_"  overflow="visible"/>
		</clipPath>
		<path clip-path="url(#SVGID_12_)" fill="#FFFFFF" d="M44.117-26.131l-0.817-3.835l-1.46-0.442
			c0.104,1.148,0.153,2.216,0.126,3.126L44.117-26.131z"/>
	</g>
	<g>
		<defs>
			<rect id="SVGID_13_" x="-43.067" y="-46.412" width="134" height="145"/>
		</defs>
		<clipPath id="SVGID_14_">
			<use xlink:href="#SVGID_13_"  overflow="visible"/>
		</clipPath>
		<polygon clip-path="url(#SVGID_14_)" fill="#FFFFFF" points="14.084,93.692 13.547,93.657 13.798,95.554 14.21,97.098 
			15.24,97.337 15.158,97.074 		"/>
	</g>
	<g>
		<defs>
			<rect id="SVGID_15_" x="-43.067" y="-46.412" width="134" height="145"/>
		</defs>
		<clipPath id="SVGID_16_">
			<use xlink:href="#SVGID_15_"  overflow="visible"/>
		</clipPath>
		<path clip-path="url(#SVGID_16_)" fill="#FFFFFF" d="M87.445,31.967l1.607-1.783l1.881-1.24c-0.902-7.2-2.165-14.061-4.812-20.212
			c-2.805-2.339-5.612-4.988-6.501-8.579C79.08-1.7,78.99-3.761,78.402-5.516c-11.174-15.025-25.146-22.026-33.61-23.988l0.41,2.204
			l0.197,1.845c3.543,1.501,7.545,3.996,11.89,7.37l2.156,0.617c1.531,0.976,2.488,2.596,3.286,4.147
			c8.06,7.54,15.96,19.158,18.828,33.676l1.337-0.65l-1.258,1.257l1.097,7.603l5.568-2.79c-1.307,2.082-3.111,3.902-5.538,5.498
			c-0.123,5.124-0.17,10.387-1.472,15.613c-1.246,4.747-2.7,9.393-4.953,13.551c0.229,1.146,0.246,2.361-0.214,3.382
			c-0.901,1.617-2.296,2.778-3.849,3.588c-2.253,3.167-4.694,6.076-7.3,8.7l1.914,0.825c-0.855,0.098-1.793,0.052-2.739-0.027
			C48.401,91.882,28.93,94.441,17.955,93.828l1.761,4.234c3.047,0.559,6.595,0.564,10.494,0.505l-1.367-1.249
			c0.943,0.168,1.925,0.581,2.934,1.129c6.384-0.369,13.754-1.899,21.188-5.303c4.453-3.097,8.844-6.242,13.743-9.287
			c1.339-1.121,2.946-1.916,4.35-2.952c4.365-4.068,8.1-9.098,11.386-14.568c0.378-2.546,1.192-4.883,1.919-7.307l-3.277-0.429
			l3.772-1.102l0.933-2.383l0.312-0.472l-2.887,0.184l3.794-1.872c0.7-1.469,1.438-2.937,2.352-4.345
			c1.602-6.532,1.465-13.122,1.574-19.467l-1.208,1.4L87.445,31.967z"/>
	</g>
	<g>
		<defs>
			<rect id="SVGID_17_" x="-43.067" y="-46.412" width="134" height="145"/>
		</defs>
		<clipPath id="SVGID_18_">
			<use xlink:href="#SVGID_17_"  overflow="visible"/>
		</clipPath>
		<polygon clip-path="url(#SVGID_18_)" fill="#FFFFFF" points="14.907,93.741 15.881,96.477 16.189,97.513 17.682,97.747 
			16.341,93.817 		"/>
	</g>
	<g>
		<defs>
			<rect id="SVGID_19_" x="-43.067" y="-46.412" width="134" height="145"/>
		</defs>
		<clipPath id="SVGID_20_">
			<use xlink:href="#SVGID_19_"  overflow="visible"/>
		</clipPath>
		<polygon clip-path="url(#SVGID_20_)" fill="#FFFFFF" points="43.605,-29.865 43.371,-29.941 43.857,-28.212 		"/>
	</g>
	<g>
		<defs>
			<rect id="SVGID_21_" x="-43.067" y="-46.412" width="134" height="145"/>
		</defs>
		<clipPath id="SVGID_22_">
			<use xlink:href="#SVGID_21_"  overflow="visible"/>
		</clipPath>
		<polygon clip-path="url(#SVGID_22_)" fill="#FFFFFF" points="45.038,-26.789 45.158,-25.583 45.235,-25.542 		"/>
	</g>
	<g>
		<defs>
			<rect id="SVGID_23_" x="-43.067" y="-46.412" width="134" height="145"/>
		</defs>
		<clipPath id="SVGID_24_">
			<use xlink:href="#SVGID_23_"  overflow="visible"/>
		</clipPath>
		<polygon clip-path="url(#SVGID_24_)" fill="#FFFFFF" points="59.828,-9.829 59.174,-10.496 59.167,-10.343 59.038,-8.338 
			59.399,-8.033 59.713,-8.961 		"/>
	</g>
	<g>
		<defs>
			<rect id="SVGID_25_" x="-43.067" y="-46.412" width="134" height="145"/>
		</defs>
		<clipPath id="SVGID_26_">
			<use xlink:href="#SVGID_25_"  overflow="visible"/>
		</clipPath>
		<polygon clip-path="url(#SVGID_26_)" fill="#FFFFFF" points="58.527,-10.484 58.595,-11.088 57.668,-12.024 57.518,-9.626 
			58.48,-8.805 		"/>
	</g>
	<g>
		<defs>
			<rect id="SVGID_27_" x="-43.067" y="-46.412" width="134" height="145"/>
		</defs>
		<clipPath id="SVGID_28_">
			<use xlink:href="#SVGID_27_"  overflow="visible"/>
		</clipPath>
		<polygon clip-path="url(#SVGID_28_)" fill="#FFFFFF" points="-16.352,70.491 -16.114,68.738 -17.519,67.107 -17.326,69.587 		"/>
	</g>
	<g>
		<defs>
			<rect id="SVGID_29_" x="-43.067" y="-46.412" width="134" height="145"/>
		</defs>
		<clipPath id="SVGID_30_">
			<use xlink:href="#SVGID_29_"  overflow="visible"/>
		</clipPath>
		<polygon clip-path="url(#SVGID_30_)" fill="#FFFFFF" points="-17.6,69.333 -17.732,67.807 -17.784,69.153 		"/>
	</g>
	<g>
		<defs>
			<rect id="SVGID_31_" x="-43.067" y="-46.412" width="134" height="145"/>
		</defs>
		<clipPath id="SVGID_32_">
			<use xlink:href="#SVGID_31_"  overflow="visible"/>
		</clipPath>
		<polygon clip-path="url(#SVGID_32_)" fill="#FFFFFF" points="-18.2,66.323 -18.253,66.265 -18.227,67.047 		"/>
	</g>
	<g>
		<defs>
			<rect id="SVGID_33_" x="-43.067" y="-46.412" width="134" height="145"/>
		</defs>
		<clipPath id="SVGID_34_">
			<use xlink:href="#SVGID_33_"  overflow="visible"/>
		</clipPath>
		<polygon clip-path="url(#SVGID_34_)" fill="#FFFFFF" points="-17.53,69.386 -17.373,69.539 -17.536,68.372 		"/>
	</g>
	<g>
		<defs>
			<rect id="SVGID_35_" x="-43.067" y="-46.412" width="134" height="145"/>
		</defs>
		<clipPath id="SVGID_36_">
			<use xlink:href="#SVGID_35_"  overflow="visible"/>
		</clipPath>
		<polygon clip-path="url(#SVGID_36_)" fill="#FFFFFF" points="65.713,-0.752 65.76,-0.688 65.821,-1.446 		"/>
	</g>
	<g>
		<defs>
			<rect id="SVGID_37_" x="-43.067" y="-46.412" width="134" height="145"/>
		</defs>
		<clipPath id="SVGID_38_">
			<use xlink:href="#SVGID_37_"  overflow="visible"/>
		</clipPath>
		<polygon clip-path="url(#SVGID_38_)" fill="#FFFFFF" points="-11.945,73.029 -12.147,73.99 -12.166,74.866 -11.498,75.465 
			-11.5,75.308 -11.576,73.305 		"/>
	</g>
	<g>
		<defs>
			<rect id="SVGID_39_" x="-43.067" y="-46.412" width="134" height="145"/>
		</defs>
		<clipPath id="SVGID_40_">
			<use xlink:href="#SVGID_39_"  overflow="visible"/>
		</clipPath>
		<path clip-path="url(#SVGID_40_)" fill="#FFFFFF" d="M48.51,79.238c-1.472,0.685-2.978,1.042-4.404,1.202
			c-3.087,1.596-6.318,2.527-9.563,3.069l0.878,0.755l-1.876-0.521C14.73,87.879-1.038,80.565-8.787,75.116l0.419,2.537
			c2.186,1.387,4.518,3.301,7.441,4.761l-0.7-0.982l1.919,1.481c4.874,2.389,10.762,4.229,17.603,5.072
			c4.474-0.116,9.131-0.296,13.91-0.529l4.33-0.575c5.014-0.597,9.626-3.2,14.599-5.165c1.534-1.384,3.092-2.809,4.807-4.07
			l-1.487-0.814l2.586,0.011l1.788-1.218l0.415-0.218l-1.561-0.429l2.917-0.429l3.168-2.508c4.222-3.783,7.155-8.424,9.949-12.967
			l-1.103,0.684l-1.544,0.432l1.443-0.871l1.293-0.391c2.595-5.482,4.727-10.942,5.542-16.479c-0.219-2.735-0.717-5.902-0.153-8.92
			c0.221-1.588,0.836-3.121,0.896-4.622c-1.46-15.607-8.459-26.687-13.593-31.89L66.006-1.63l-0.153,1.072
			c2.095,2.593,4.123,6.147,5.998,10.552l1.121,1.509c0.694,1.407,0.837,2.985,1.003,4.428c2.903,9.176,3.792,21.524-0.711,33.78
			l0.758-0.064l-0.971,0.559l-2.633,6.25l3.27-0.575c-1.252,1.224-2.821,2.044-4.554,2.603c-2.33,3.913-5.025,7.675-8.585,10.883
			c-2.764,3.444-6.67,5.444-10.024,7.93C50.013,78.039,49.417,78.869,48.51,79.238"/>
	</g>
	<g>
		<defs>
			<rect id="SVGID_41_" x="-43.067" y="-46.412" width="134" height="145"/>
		</defs>
		<clipPath id="SVGID_42_">
			<use xlink:href="#SVGID_41_"  overflow="visible"/>
		</clipPath>
		<polygon clip-path="url(#SVGID_42_)" fill="#FFFFFF" points="-10.865,75.384 -10.842,75.959 -9.796,76.676 -10.002,74.423 
			-11.004,73.72 		"/>
	</g>
	<g>
		<defs>
			<rect id="SVGID_43_" x="-43.067" y="-46.412" width="134" height="145"/>
		</defs>
		<clipPath id="SVGID_44_">
			<use xlink:href="#SVGID_43_"  overflow="visible"/>
		</clipPath>
		<polygon clip-path="url(#SVGID_44_)" fill="#FFFFFF" points="65.473,-3.714 65.426,-2.239 65.634,-3.525 		"/>
	</g>
	<g>
		<defs>
			<rect id="SVGID_45_" x="-43.067" y="-46.412" width="134" height="145"/>
		</defs>
		<clipPath id="SVGID_46_">
			<use xlink:href="#SVGID_45_"  overflow="visible"/>
		</clipPath>
		<polygon clip-path="url(#SVGID_46_)" fill="#FFFFFF" points="65.306,-2.803 65.416,-3.779 65.285,-3.939 		"/>
	</g>
	<g>
		<defs>
			<rect id="SVGID_47_" x="-43.067" y="-46.412" width="134" height="145"/>
		</defs>
		<clipPath id="SVGID_48_">
			<use xlink:href="#SVGID_47_"  overflow="visible"/>
		</clipPath>
		<polygon clip-path="url(#SVGID_48_)" fill="#FFFFFF" points="63.958,-3.323 65.14,-1.589 65.238,-3.989 64.402,-4.965 		"/>
	</g>
	<g>
		<defs>
			<rect id="SVGID_49_" x="-43.067" y="-46.412" width="134" height="145"/>
		</defs>
		<clipPath id="SVGID_50_">
			<use xlink:href="#SVGID_49_"  overflow="visible"/>
		</clipPath>
		<path clip-path="url(#SVGID_50_)" fill="#FFFFFF" d="M24.828,44.831l-1.472-0.353c-0.918-0.407-1.843-0.31-2.877,0.146
			c-1.392-0.526-3.047-1.183-4.18-2.48c-0.457,0.511-0.918,1.013-1.367,1.553c0.283-0.624,0.672-1.243,1.108-1.856
			c-0.078-0.104-0.182-0.182-0.251-0.296l0.249-0.578l0.104-0.624l-0.332,0.656l-0.056,0.5c-1.313-1.251-1.621-3.251-1.806-5.072
			l0.615-1.273l1.042-0.526l-0.812,0.052l0.067-0.139l0.171-0.67l1.111-0.16l-0.991-0.258l0.138-0.29l-3.1-0.576l-0.257,0.956
			l-0.168,0.174l2.634,0.406c-0.862,0.038-1.958,0.093-3.168,0.233c-0.425,0.576-0.879,1.184-1.506,1.835
			c0.202,2.807,0.764,5.867,2.671,7.789l0.644-1.124l1.621-1.611l-0.966,1.343l-1.246,1.458c1.699,2.616,4.563,3.756,6.959,4.592
			c1.901-1.824,3.016-2.508,4.208-1.455c0.636,0.502,1.313,0.95,2.103,1.612c7.288-1.446,10.404-7.897,9.53-11.064l-1.979,0.122
			l-1.083-0.033C32.271,40.207,29.687,44.082,24.828,44.831"/>
	</g>
	<g>
		<defs>
			<rect id="SVGID_51_" x="-43.067" y="-46.412" width="134" height="145"/>
		</defs>
		<clipPath id="SVGID_52_">
			<use xlink:href="#SVGID_51_"  overflow="visible"/>
		</clipPath>
		<polygon clip-path="url(#SVGID_52_)" fill="#FFFFFF" points="31.964,37.224 31.921,37.292 32.235,37.137 32.227,37.2 
			31.896,37.319 31.858,37.378 32.227,37.227 32.221,37.308 31.828,37.422 31.79,37.476 35.207,37.172 35.15,36.64 32.26,36.901 
			32.238,37.116 		"/>
	</g>
	<g>
		<defs>
			<rect id="SVGID_53_" x="-43.067" y="-46.412" width="134" height="145"/>
		</defs>
		<clipPath id="SVGID_54_">
			<use xlink:href="#SVGID_53_"  overflow="visible"/>
		</clipPath>
		<polygon clip-path="url(#SVGID_54_)" fill="#FFFFFF" points="35.229,37.422 35.229,37.319 33.143,37.542 		"/>
	</g>
	<g>
		<defs>
			<rect id="SVGID_55_" x="-43.067" y="-46.412" width="134" height="145"/>
		</defs>
		<clipPath id="SVGID_56_">
			<use xlink:href="#SVGID_55_"  overflow="visible"/>
		</clipPath>
		<polygon clip-path="url(#SVGID_56_)" fill="#FFFFFF" points="32.128,36.64 33.968,36.472 35.415,36.208 35.425,35.827 
			35.185,35.891 32.08,36.504 32.046,36.521 		"/>
	</g>
	<g>
		<defs>
			<rect id="SVGID_57_" x="-43.067" y="-46.412" width="134" height="145"/>
		</defs>
		<clipPath id="SVGID_58_">
			<use xlink:href="#SVGID_57_"  overflow="visible"/>
		</clipPath>
		<polygon clip-path="url(#SVGID_58_)" fill="#FFFFFF" points="33.704,37.422 35.212,37.287 35.207,37.194 		"/>
	</g>
	<g>
		<defs>
			<rect id="SVGID_59_" x="-43.067" y="-46.412" width="134" height="145"/>
		</defs>
		<clipPath id="SVGID_60_">
			<use xlink:href="#SVGID_59_"  overflow="visible"/>
		</clipPath>
		<polygon clip-path="url(#SVGID_60_)" fill="#FFFFFF" points="32.725,37.775 32.189,37.758 32.189,37.769 		"/>
	</g>
	<g>
		<defs>
			<rect id="SVGID_61_" x="-43.067" y="-46.412" width="134" height="145"/>
		</defs>
		<clipPath id="SVGID_62_">
			<use xlink:href="#SVGID_61_"  overflow="visible"/>
		</clipPath>
		<polygon clip-path="url(#SVGID_62_)" fill="#FFFFFF" points="41.5,-0.908 40.948,-0.744 41.505,-0.866 		"/>
	</g>
	<g>
		<defs>
			<rect id="SVGID_63_" x="-43.067" y="-46.412" width="134" height="145"/>
		</defs>
		<clipPath id="SVGID_64_">
			<use xlink:href="#SVGID_63_"  overflow="visible"/>
		</clipPath>
		<polygon clip-path="url(#SVGID_64_)" fill="#FFFFFF" points="40.3,-1.041 40.123,-0.875 40.281,-0.815 40.232,-0.592 
			40.628,-0.696 40.762,-0.65 40.743,-0.645 40.768,-0.647 40.844,-0.622 40.876,-0.674 41.522,-0.796 41.517,-0.847 40.888,-0.683 
			40.967,-0.786 41.5,-0.921 41.443,-1.186 40.92,-1.104 40.817,-1.157 40.543,-1.263 40.413,-1.146 40.461,-1.133 40.65,-1.069 
			40.346,-1.022 		"/>
	</g>
	<g>
		<defs>
			<rect id="SVGID_65_" x="-43.067" y="-46.412" width="134" height="145"/>
		</defs>
		<clipPath id="SVGID_66_">
			<use xlink:href="#SVGID_65_"  overflow="visible"/>
		</clipPath>
		<polygon clip-path="url(#SVGID_66_)" fill="#FFFFFF" points="38.099,5.279 38.173,5.242 37.801,5.184 		"/>
	</g>
	<g>
		<defs>
			<rect id="SVGID_67_" x="-43.067" y="-46.412" width="134" height="145"/>
		</defs>
		<clipPath id="SVGID_68_">
			<use xlink:href="#SVGID_67_"  overflow="visible"/>
		</clipPath>
		<polygon clip-path="url(#SVGID_68_)" fill="#FFFFFF" points="38.627,5.006 38.173,4.759 37.416,5.062 38.195,5.231 		"/>
	</g>
	<g>
		<defs>
			<rect id="SVGID_69_" x="-43.067" y="-46.412" width="134" height="145"/>
		</defs>
		<clipPath id="SVGID_70_">
			<use xlink:href="#SVGID_69_"  overflow="visible"/>
		</clipPath>
		<polygon clip-path="url(#SVGID_70_)" fill="#FFFFFF" points="30.135,21.757 30.417,21.414 29.625,21.542 29.384,21.995 
			29.947,21.789 		"/>
	</g>
	<g>
		<defs>
			<rect id="SVGID_71_" x="-43.067" y="-46.412" width="134" height="145"/>
		</defs>
		<clipPath id="SVGID_72_">
			<use xlink:href="#SVGID_71_"  overflow="visible"/>
		</clipPath>
		<polygon clip-path="url(#SVGID_72_)" fill="#FFFFFF" points="29.827,22.253 29.994,21.992 29.942,22.006 29.248,22.253 
			29.166,22.425 29.521,22.345 		"/>
	</g>
	<g>
		<defs>
			<rect id="SVGID_73_" x="-43.067" y="-46.412" width="134" height="145"/>
		</defs>
		<clipPath id="SVGID_74_">
			<use xlink:href="#SVGID_73_"  overflow="visible"/>
		</clipPath>
		<polygon clip-path="url(#SVGID_74_)" fill="#FFFFFF" points="37.99,5.337 38.072,5.295 37.596,5.192 		"/>
	</g>
	<g>
		<defs>
			<rect id="SVGID_75_" x="-43.067" y="-46.412" width="134" height="145"/>
		</defs>
		<clipPath id="SVGID_76_">
			<use xlink:href="#SVGID_75_"  overflow="visible"/>
		</clipPath>
		<path clip-path="url(#SVGID_76_)" fill="#FFFFFF" d="M36.957,8.368c-0.021,0.014-0.055,0.031-0.076,0.045
			c0,0.016-0.006,0.027-0.009,0.045l0.263-0.04L36.957,8.368z"/>
	</g>
	<g>
		<defs>
			<rect id="SVGID_77_" x="-43.067" y="-46.412" width="134" height="145"/>
		</defs>
		<clipPath id="SVGID_78_">
			<use xlink:href="#SVGID_77_"  overflow="visible"/>
		</clipPath>
		<polygon clip-path="url(#SVGID_78_)" fill="#FFFFFF" points="37.025,5.223 37.279,5.281 37.049,5.215 		"/>
	</g>
	<g>
		<defs>
			<rect id="SVGID_79_" x="-43.067" y="-46.412" width="134" height="145"/>
		</defs>
		<clipPath id="SVGID_80_">
			<use xlink:href="#SVGID_79_"  overflow="visible"/>
		</clipPath>
		<polygon clip-path="url(#SVGID_80_)" fill="#FFFFFF" points="9.431,87.341 9.607,87.19 9.597,87.163 		"/>
	</g>
	<g>
		<defs>
			<rect id="SVGID_81_" x="-43.067" y="-46.412" width="134" height="145"/>
		</defs>
		<clipPath id="SVGID_82_">
			<use xlink:href="#SVGID_81_"  overflow="visible"/>
		</clipPath>
		<path clip-path="url(#SVGID_82_)" fill="#FFFFFF" d="M17.404,89.458c0.59,0.706,1.024,1.414,1.349,1.971l0.428-0.505l-0.554-1.26
			l-0.098,0.253l-0.017-0.424c0.278-0.795-2.187-1.889-2.142-0.249c-0.033,0.566-0.145,1.15-0.358,1.709
			c-0.053-0.024-0.081-0.063-0.154-0.084l-0.602-0.728l-0.38,0.305l0.26-0.483l-0.166-0.293l-0.022-0.068l-0.272,0.307l0.2-0.551
			l-0.174-0.632c-0.32-1.39-2.803-0.28-1.915,0.543l0.204-0.128l0.289-0.084c0.005,0.005,0.003,0.011,0.008,0.016l-0.207,0.136
			l-0.296,0.087c-0.107,0.907-0.368,1.678-0.653,2.386c0.127,0.095,0.112,0.377,0.079,0.621l-0.149-0.542
			c-1.553-1.493-1.937-3.42-2.391-4.424l-0.23,0.217L9.241,87.73c0.109,0.519,0.254,1.153,0.441,1.902l0.173,0.244L10,90.604
			c0.126,0.974,1.189,2.024,2.153,2.092c0,0.003,0.002,0,0.005,0c0.7,0.052,1.349-0.404,1.534-1.869l-0.222-0.006l0.256-0.081
			l0.185-0.923l0.727,1.308l0.378,0.305l0.145,0.743c-0.646,0.882,1.762,0.769,1.616-0.081l-0.302,0.005l0.339-0.168
			C16.864,91.396,17.239,90.208,17.404,89.458 M13.021,89.779l0.677-0.342l0.132,0.238L13.021,89.779z"/>
	</g>
	<g>
		<defs>
			<rect id="SVGID_83_" x="-43.067" y="-46.412" width="134" height="145"/>
		</defs>
		<clipPath id="SVGID_84_">
			<use xlink:href="#SVGID_83_"  overflow="visible"/>
		</clipPath>
		<polygon clip-path="url(#SVGID_84_)" fill="#FFFFFF" points="19.243,91.464 19.355,91.353 19.28,91.168 18.868,91.614 
			18.969,91.774 		"/>
	</g>
	<g>
		<defs>
			<rect id="SVGID_85_" x="-43.067" y="-46.412" width="134" height="145"/>
		</defs>
		<clipPath id="SVGID_86_">
			<use xlink:href="#SVGID_85_"  overflow="visible"/>
		</clipPath>
		<polygon clip-path="url(#SVGID_86_)" fill="#FFFFFF" points="9.631,87.233 9.616,87.206 9.38,87.439 		"/>
	</g>
	<g>
		<defs>
			<rect id="SVGID_87_" x="-43.067" y="-46.412" width="134" height="145"/>
		</defs>
		<clipPath id="SVGID_88_">
			<use xlink:href="#SVGID_87_"  overflow="visible"/>
		</clipPath>
		<polygon clip-path="url(#SVGID_88_)" fill="#FFFFFF" points="19.288,91.754 19.453,91.602 19.4,91.467 19.375,91.5 19.031,91.863 
			19.066,91.925 		"/>
	</g>
	<g>
		<defs>
			<rect id="SVGID_89_" x="-43.067" y="-46.412" width="134" height="145"/>
		</defs>
		<clipPath id="SVGID_90_">
			<use xlink:href="#SVGID_89_"  overflow="visible"/>
		</clipPath>
		<polygon clip-path="url(#SVGID_90_)" fill="#FFFFFF" points="9.367,87.581 9.238,87.695 9.241,87.706 		"/>
	</g>
	<g>
		<defs>
			<rect id="SVGID_91_" x="-43.067" y="-46.412" width="134" height="145"/>
		</defs>
		<clipPath id="SVGID_92_">
			<use xlink:href="#SVGID_91_"  overflow="visible"/>
		</clipPath>
		<path clip-path="url(#SVGID_92_)" fill="#FFFFFF" d="M-26.807,61.788c0.118-0.098,0.176-0.157,0.275-0.239l0.016-0.038
			L-26.807,61.788z"/>
	</g>
	<g>
		<defs>
			<rect id="SVGID_93_" x="-43.067" y="-46.412" width="134" height="145"/>
		</defs>
		<clipPath id="SVGID_94_">
			<use xlink:href="#SVGID_93_"  overflow="visible"/>
		</clipPath>
		<path clip-path="url(#SVGID_94_)" fill="#FFFFFF" d="M-25.586,66.079l1.058-0.592l0.89-0.361
			C-24.066,64.694-24.713,64.808-25.586,66.079"/>
	</g>
	<g>
		<defs>
			<rect id="SVGID_95_" x="-43.067" y="-46.412" width="134" height="145"/>
		</defs>
		<clipPath id="SVGID_96_">
			<use xlink:href="#SVGID_95_"  overflow="visible"/>
		</clipPath>
		<polygon clip-path="url(#SVGID_96_)" fill="#FFFFFF" points="9.303,87.445 9.594,87.152 9.516,86.972 9.143,87.211 9.163,87.32 
			8.98,87.402 8.457,87.73 7.881,88.476 7.973,88.414 9.209,87.564 		"/>
	</g>
	<g>
		<defs>
			<rect id="SVGID_97_" x="-43.067" y="-46.412" width="134" height="145"/>
		</defs>
		<clipPath id="SVGID_98_">
			<use xlink:href="#SVGID_97_"  overflow="visible"/>
		</clipPath>
		<polygon clip-path="url(#SVGID_98_)" fill="#FFFFFF" points="-34.828,42.934 -34.864,43.001 -34.463,42.535 		"/>
	</g>
	<g>
		<defs>
			<rect id="SVGID_99_" x="-43.067" y="-46.412" width="134" height="145"/>
		</defs>
		<clipPath id="SVGID_100_">
			<use xlink:href="#SVGID_99_"  overflow="visible"/>
		</clipPath>
		<polygon clip-path="url(#SVGID_100_)" fill="#FFFFFF" points="-23.639,65.131 -23.61,65.153 -23.375,65.025 		"/>
	</g>
	<g>
		<defs>
			<rect id="SVGID_101_" x="-43.067" y="-46.412" width="134" height="145"/>
		</defs>
		<clipPath id="SVGID_102_">
			<use xlink:href="#SVGID_101_"  overflow="visible"/>
		</clipPath>
		<polygon clip-path="url(#SVGID_102_)" fill="#FFFFFF" points="7.716,88.921 7.366,89.138 6.551,90.191 7.975,89.247 8.763,88.175 
					"/>
	</g>
	<g>
		<defs>
			<rect id="SVGID_103_" x="-43.067" y="-46.412" width="134" height="145"/>
		</defs>
		<clipPath id="SVGID_104_">
			<use xlink:href="#SVGID_103_"  overflow="visible"/>
		</clipPath>
		<polygon clip-path="url(#SVGID_104_)" fill="#FFFFFF" points="-33.364,17.581 -33.84,17.53 -34.134,17.909 -33.504,17.832 		"/>
	</g>
	<g>
		<defs>
			<rect id="SVGID_105_" x="-43.067" y="-46.412" width="134" height="145"/>
		</defs>
		<clipPath id="SVGID_106_">
			<use xlink:href="#SVGID_105_"  overflow="visible"/>
		</clipPath>
		<polygon clip-path="url(#SVGID_106_)" fill="#FFFFFF" points="-32.782,28.816 -33.21,28.672 -33.364,28.602 -33.591,28.77 
			-32.986,29.009 		"/>
	</g>
	<g>
		<defs>
			<rect id="SVGID_107_" x="-43.067" y="-46.412" width="134" height="145"/>
		</defs>
		<clipPath id="SVGID_108_">
			<use xlink:href="#SVGID_107_"  overflow="visible"/>
		</clipPath>
		<polygon clip-path="url(#SVGID_108_)" fill="#FFFFFF" points="-34.284,18.103 -34.078,18.084 -34.273,18.092 		"/>
	</g>
	<g>
		<defs>
			<rect id="SVGID_109_" x="-43.067" y="-46.412" width="134" height="145"/>
		</defs>
		<clipPath id="SVGID_110_">
			<use xlink:href="#SVGID_109_"  overflow="visible"/>
		</clipPath>
		<polygon clip-path="url(#SVGID_110_)" fill="#FFFFFF" points="-33.568,17.951 -33.541,17.904 -33.926,17.951 		"/>
	</g>
	<g>
		<defs>
			<rect id="SVGID_111_" x="-43.067" y="-46.412" width="134" height="145"/>
		</defs>
		<clipPath id="SVGID_112_">
			<use xlink:href="#SVGID_111_"  overflow="visible"/>
		</clipPath>
		<polygon clip-path="url(#SVGID_112_)" fill="#FFFFFF" points="-32.667,28.71 -32.591,28.634 -32.835,28.483 -33.058,28.385 
			-33.218,28.499 -33.181,28.515 		"/>
	</g>
	<g>
		<defs>
			<rect id="SVGID_113_" x="-43.067" y="-46.412" width="134" height="145"/>
		</defs>
		<clipPath id="SVGID_114_">
			<use xlink:href="#SVGID_113_"  overflow="visible"/>
		</clipPath>
		<polygon clip-path="url(#SVGID_114_)" fill="#FFFFFF" points="-33.509,17.845 -33.797,17.896 -33.535,17.887 		"/>
	</g>
	<g>
		<defs>
			<rect id="SVGID_115_" x="-43.067" y="-46.412" width="134" height="145"/>
		</defs>
		<clipPath id="SVGID_116_">
			<use xlink:href="#SVGID_115_"  overflow="visible"/>
		</clipPath>
		<path clip-path="url(#SVGID_116_)" fill="#FFFFFF" d="M21.085-16.715l-0.26-0.059c-0.625,0.414-0.339,1.159-0.403,1.731
			c0.273,0.278,0.377,0.528,0.286,0.865l0.073,0.461c1.018,1.551,2.466,1.284,3.188,1.159l-0.1-0.146
			c0.024-0.005,0.05-0.005,0.072-0.011l0.096,0.148l0.024-0.002l-0.112-0.148c0.005-0.003,0.011,0,0.016-0.003l0.104,0.151
			l0.019-0.004l-0.12-0.146c0.007-0.002,0.012-0.002,0.018-0.002l0.109,0.146l0.121-0.017l-0.102-0.152
			c0.011-0.007,0.025-0.002,0.033-0.007c0.015-0.005,0.021-0.016,0.034-0.021l0.011,0.019l0.112,0.129l0.069-0.05l-0.021-0.021
			l-0.107-0.119c0.023-0.011,0.04-0.03,0.059-0.041l0.048,0.046l0.083,0.087l0.098-0.075l-0.128-0.124
			c0.051-0.027,0.089-0.057,0.134-0.088l0.131,0.106l0.7-0.592l-0.215-0.028l0.316-0.066c0.596-0.311,0.363-1.059,0.462-1.759
			c-0.077-0.481-0.12-0.898-0.474-1.285l-0.243-0.396c-0.411-0.301-0.651-1.021-1.305-0.907l-0.697,0.149l0.021,0.132
			c-0.031,0-0.064,0.011-0.093,0.011l-0.07-0.133l-0.224-0.007l-0.05-0.014l0.079,0.198c-0.015,0.002-0.029,0.005-0.045,0.008
			l-0.211-0.253l-0.462-0.125c-0.498,0.267-0.917,0.779-1.323,1.182l0.207-0.003l0.238,0.069c-0.005,0.005-0.008,0.011-0.011,0.016
			L21.085-16.715z M21.061-16.389c-0.007,0.011-0.015,0.019-0.021,0.03l-0.187-0.059L21.061-16.389z"/>
	</g>
	<g>
		<defs>
			<rect id="SVGID_117_" x="-43.067" y="-46.412" width="134" height="145"/>
		</defs>
		<clipPath id="SVGID_118_">
			<use xlink:href="#SVGID_117_"  overflow="visible"/>
		</clipPath>
		<path clip-path="url(#SVGID_118_)" fill="#FFFFFF" d="M25.937,79.878c-0.08-0.48-0.118-0.896-0.474-1.283l-0.243-0.394
			c-0.411-0.305-0.654-1.021-1.305-0.907l-0.696,0.149l0.019,0.133c-0.031-0.005-0.062,0.012-0.093,0.012l-0.067-0.139l-0.227-0.003
			l-0.051-0.017l0.082,0.201c-0.014,0-0.031,0.006-0.048,0.008l-0.208-0.258l-0.468-0.125c-0.498,0.271-0.917,0.782-1.323,1.184
			l0.204-0.005l0.238,0.07c-0.003,0.005-0.006,0.011-0.008,0.017l-0.185-0.012l-0.26-0.057c-0.627,0.41-0.342,1.156-0.406,1.731
			c0.276,0.274,0.377,0.523,0.284,0.86l0.077,0.461c1.018,1.559,2.466,1.287,3.188,1.162l-0.103-0.144
			c0.024-0.009,0.049-0.006,0.072-0.014l0.099,0.146l0.022-0.003l-0.112-0.144c0.005-0.003,0.011-0.003,0.017-0.003l0.104,0.146
			l0.022-0.003l-0.123-0.146c0.01,0,0.012,0,0.021-0.003l0.107,0.149l0.123-0.019l-0.099-0.155c0.011-0.005,0.022,0,0.033-0.005
			c0.015-0.006,0.023-0.017,0.034-0.021l0.014,0.016l0.109,0.136l0.067-0.057l-0.019-0.02l-0.109-0.116
			c0.023-0.011,0.042-0.03,0.062-0.041l0.048,0.046l0.083,0.087l0.102-0.078l-0.128-0.122c0.045-0.027,0.083-0.058,0.131-0.09
			l0.135,0.105l0.699-0.591L25.156,81.7l0.321-0.068C26.076,81.328,25.841,80.582,25.937,79.878 M21.061,78.836
			c-0.007,0.011-0.015,0.021-0.021,0.032l-0.19-0.06L21.061,78.836z"/>
	</g>
	<g>
		<defs>
			<rect id="SVGID_119_" x="-43.067" y="-46.412" width="134" height="145"/>
		</defs>
		<clipPath id="SVGID_120_">
			<use xlink:href="#SVGID_119_"  overflow="visible"/>
		</clipPath>
		<path clip-path="url(#SVGID_120_)" fill="#FFFFFF" d="M72.792,29.449c-0.424-0.613-1.17-0.317-1.749-0.375
			c-0.279,0.277-0.525,0.38-0.864,0.291l-0.465,0.084c-1.55,1.031-1.263,2.464-1.126,3.181l0.147-0.098
			c0.008,0.021,0.008,0.043,0.014,0.067l-0.147,0.096l0.002,0.024l0.148-0.111c0,0.005,0,0.011,0.002,0.016l-0.147,0.104
			l0.003,0.021l0.145-0.122c0.003,0.006,0.003,0.011,0.003,0.02l-0.147,0.108l0.02,0.119l0.155-0.098
			c0.006,0.011,0,0.021,0.006,0.032c0.005,0.011,0.017,0.022,0.021,0.033l-0.017,0.016l-0.131,0.109l0.055,0.064l0.02-0.016
			l0.117-0.109c0.011,0.022,0.033,0.038,0.044,0.058l-0.047,0.052l-0.085,0.081l0.077,0.095l0.123-0.127
			c0.027,0.049,0.058,0.087,0.09,0.13l-0.104,0.133l0.606,0.687l0.022-0.217l0.073,0.314c0.314,0.587,1.069,0.348,1.777,0.435
			c0.483-0.084,0.902-0.13,1.287-0.488l0.395-0.25c0.3-0.412,1.017-0.662,0.894-1.308l-0.158-0.688l-0.135,0.02
			c0-0.032-0.011-0.06-0.011-0.093l0.137-0.067v-0.223l0.011-0.046l-0.199,0.078c-0.003-0.013-0.006-0.032-0.008-0.046l0.251-0.212
			l0.12-0.467c-0.278-0.488-0.798-0.897-1.208-1.297l0.006,0.206l-0.066,0.233c-0.005,0-0.011-0.005-0.019-0.005l0.008-0.185
			L72.792,29.449z M72.376,29.671l0.06-0.188l-0.027,0.203C72.398,29.682,72.387,29.676,72.376,29.671"/>
	</g>
	<g>
		<defs>
			<rect id="SVGID_121_" x="-43.067" y="-46.412" width="134" height="145"/>
		</defs>
		<clipPath id="SVGID_122_">
			<use xlink:href="#SVGID_121_"  overflow="visible"/>
		</clipPath>
		<path clip-path="url(#SVGID_122_)" fill="#FFFFFF" d="M-22.021,32.548l0.121-0.467c-0.275-0.494-0.795-0.901-1.207-1.298
			l0.005,0.201l-0.067,0.236c-0.005-0.006-0.011-0.006-0.017-0.012l0.008-0.176l0.056-0.266c-0.425-0.614-1.17-0.32-1.75-0.381
			c-0.275,0.28-0.526,0.389-0.865,0.299l-0.465,0.076c-1.547,1.034-1.265,2.47-1.128,3.187l0.145-0.104
			c0.005,0.024,0.005,0.046,0.012,0.07l-0.146,0.095l0.002,0.024l0.146-0.108c0,0.006,0,0.011,0.002,0.017l-0.146,0.104v0.016
			l0.146-0.119c0.003,0.006,0.003,0.011,0.003,0.017l-0.146,0.113l0.017,0.12l0.154-0.104c0.006,0.014,0.003,0.024,0.008,0.035
			c0.005,0.014,0.015,0.021,0.021,0.035l-0.018,0.011l-0.131,0.114l0.053,0.065l0.022-0.021l0.118-0.109
			c0.008,0.022,0.029,0.041,0.042,0.061l-0.048,0.049l-0.086,0.081l0.078,0.098l0.123-0.128c0.029,0.047,0.062,0.085,0.09,0.134
			l-0.104,0.13l0.607,0.689l0.023-0.217l0.073,0.314c0.32,0.586,1.069,0.348,1.774,0.432c0.485-0.084,0.905-0.128,1.289-0.486
			l0.396-0.249c0.296-0.41,1.022-0.66,0.896-1.303l-0.16-0.689l-0.131,0.017c0-0.027-0.011-0.058-0.014-0.087l0.134-0.065
			l0.002-0.229l0.014-0.051l-0.198,0.084c-0.002-0.017-0.005-0.033-0.008-0.049L-22.021,32.548z M-23.505,31.009
			c-0.011-0.006-0.019-0.017-0.03-0.021l0.056-0.183L-23.505,31.009z"/>
	</g>
	<g>
		<defs>
			<rect id="SVGID_123_" x="-43.067" y="-46.412" width="134" height="145"/>
		</defs>
		<clipPath id="SVGID_124_">
			<use xlink:href="#SVGID_123_"  overflow="visible"/>
		</clipPath>
		<polygon clip-path="url(#SVGID_124_)" fill="#FFFFFF" points="63.502,53.494 63.53,53.483 63.89,53.385 63.869,53.342 
			63.655,53.367 63.489,53.407 		"/>
	</g>
	<g>
		<defs>
			<rect id="SVGID_125_" x="-43.067" y="-46.412" width="134" height="145"/>
		</defs>
		<clipPath id="SVGID_126_">
			<use xlink:href="#SVGID_125_"  overflow="visible"/>
		</clipPath>
		<polygon clip-path="url(#SVGID_126_)" fill="#FFFFFF" points="63.972,53.538 63.923,53.44 63.63,53.532 63.518,53.57 
			63.541,53.692 		"/>
	</g>
	<g>
		<defs>
			<rect id="SVGID_127_" x="-43.067" y="-46.412" width="134" height="145"/>
		</defs>
		<clipPath id="SVGID_128_">
			<use xlink:href="#SVGID_127_"  overflow="visible"/>
		</clipPath>
		<path clip-path="url(#SVGID_128_)" fill="#FFFFFF" d="M66.482,50.888l-0.448-0.141c-1.854,0.223-2.247,1.634-2.455,2.328
			l0.276-0.038l0.229-0.016l0.568-0.85l0.009-0.195c0.027-0.166,0.21-0.133,0.371-0.096c0.82-0.331,1.662-0.423,2.548,0.285
			l0.096-0.144l-0.057,0.16c0.213,0.024,0.224,0.23,0.262,0.404l0.563-0.581l-0.517,0.758l0.309,0.984l-0.476,0.847l0.041,0.305
			c-0.058,0.113-0.112,0.244-0.314,0.141l-0.757,0.223l0.117,0.217l-0.194-0.187c-1.525,0.442-2.471-0.855-2.621-1.647l-0.46,0.212
			l0.23,0.887l0.12-0.182l-0.082,0.315c0.017,0.664,0.795,0.789,1.386,1.183c0.473,0.142,0.867,0.291,1.37,0.146l0.465-0.043
			c0.459-0.233,1.211-0.133,1.394-0.76l0.175-0.685l-0.388-0.127l0.442-0.009l0.104-0.192l0.035-0.041l-0.353-0.026l0.473-0.109
			l0.32-0.363c-0.022-0.559-0.298-1.161-0.486-1.699l-0.088,0.185l-0.211,0.229l0.126-0.223l0.173-0.206
			c-0.099-0.738-0.897-0.814-1.39-1.121C67.018,51.138,66.745,51.12,66.482,50.888"/>
	</g>
	<g>
		<defs>
			<rect id="SVGID_129_" x="-43.067" y="-46.412" width="134" height="145"/>
		</defs>
		<clipPath id="SVGID_130_">
			<use xlink:href="#SVGID_129_"  overflow="visible"/>
		</clipPath>
		<polygon clip-path="url(#SVGID_130_)" fill="#FFFFFF" points="63.5,53.309 63.896,53.271 64.016,53.117 63.541,53.196 		"/>
	</g>
	<g>
		<defs>
			<rect id="SVGID_131_" x="-43.067" y="-46.412" width="134" height="145"/>
		</defs>
		<clipPath id="SVGID_132_">
			<use xlink:href="#SVGID_131_"  overflow="visible"/>
		</clipPath>
		<polygon clip-path="url(#SVGID_132_)" fill="#FFFFFF" points="64.074,53.038 63.917,53.054 64.071,53.043 		"/>
	</g>
	<g>
		<defs>
			<rect id="SVGID_133_" x="-43.067" y="-46.412" width="134" height="145"/>
		</defs>
		<clipPath id="SVGID_134_">
			<use xlink:href="#SVGID_133_"  overflow="visible"/>
		</clipPath>
		<polygon clip-path="url(#SVGID_134_)" fill="#FFFFFF" points="63.541,53.19 63.753,53.141 63.545,53.173 		"/>
	</g>
	<g>
		<defs>
			<rect id="SVGID_135_" x="-43.067" y="-46.412" width="134" height="145"/>
		</defs>
		<clipPath id="SVGID_136_">
			<use xlink:href="#SVGID_135_"  overflow="visible"/>
		</clipPath>
		<polygon clip-path="url(#SVGID_136_)" fill="#FFFFFF" points="63.557,53.146 63.545,53.168 63.838,53.109 		"/>
	</g>
	<g>
		<defs>
			<rect id="SVGID_137_" x="-43.067" y="-46.412" width="134" height="145"/>
		</defs>
		<clipPath id="SVGID_138_">
			<use xlink:href="#SVGID_137_"  overflow="visible"/>
		</clipPath>
		<path clip-path="url(#SVGID_138_)" fill="#FFFFFF" d="M-19.461,14.146l0.467-0.042c0.454-0.236,1.213-0.13,1.397-0.761
			l0.174-0.687l-0.39-0.125l0.443-0.005l0.103-0.197l0.037-0.037l-0.353-0.027l0.473-0.109l0.32-0.362
			c-0.018-0.563-0.298-1.161-0.482-1.7l-0.086,0.183l-0.216,0.231l0.128-0.228l0.168-0.205c-0.099-0.739-0.893-0.817-1.386-1.126
			c-0.372,0.122-0.644,0.103-0.906-0.13l-0.448-0.136c-1.854,0.216-2.257,1.623-2.463,2.323l0.278-0.042l0.232-0.014l0.567-0.851
			l0.01-0.194c0.022-0.164,0.212-0.129,0.369-0.095c0.82-0.332,1.662-0.417,2.553,0.286l0.094-0.139l-0.059,0.158
			c0.216,0.026,0.221,0.233,0.267,0.406l0.559-0.581l-0.511,0.759l0.302,0.988l-0.473,0.844l0.041,0.306
			c-0.062,0.117-0.114,0.24-0.321,0.14l-0.753,0.223l0.121,0.216l-0.193-0.189c-1.528,0.442-2.476-0.859-2.626-1.65l-0.457,0.21
			l0.227,0.886l0.123-0.184l-0.081,0.32c0.016,0.664,0.792,0.792,1.382,1.186C-20.361,14.135-19.966,14.29-19.461,14.146"/>
	</g>
	<g>
		<defs>
			<rect id="SVGID_139_" x="-43.067" y="-46.412" width="134" height="145"/>
		</defs>
		<clipPath id="SVGID_140_">
			<use xlink:href="#SVGID_139_"  overflow="visible"/>
		</clipPath>
		<polygon clip-path="url(#SVGID_140_)" fill="#FFFFFF" points="-22.519,11.12 -22.303,11.067 -22.514,11.1 		"/>
	</g>
	<g>
		<defs>
			<rect id="SVGID_141_" x="-43.067" y="-46.412" width="134" height="145"/>
		</defs>
		<clipPath id="SVGID_142_">
			<use xlink:href="#SVGID_141_"  overflow="visible"/>
		</clipPath>
		<polygon clip-path="url(#SVGID_142_)" fill="#FFFFFF" points="-22.558,11.242 -22.161,11.195 -22.04,11.044 -22.519,11.125 		"/>
	</g>
	<g>
		<defs>
			<rect id="SVGID_143_" x="-43.067" y="-46.412" width="134" height="145"/>
		</defs>
		<clipPath id="SVGID_144_">
			<use xlink:href="#SVGID_143_"  overflow="visible"/>
		</clipPath>
		<polygon clip-path="url(#SVGID_144_)" fill="#FFFFFF" points="-22.555,11.423 -22.527,11.415 -22.167,11.309 -22.188,11.27 
			-22.404,11.298 -22.572,11.336 		"/>
	</g>
	<g>
		<defs>
			<rect id="SVGID_145_" x="-43.067" y="-46.412" width="134" height="145"/>
		</defs>
		<clipPath id="SVGID_146_">
			<use xlink:href="#SVGID_145_"  overflow="visible"/>
		</clipPath>
		<polygon clip-path="url(#SVGID_146_)" fill="#FFFFFF" points="-22.501,11.07 -22.511,11.092 -22.216,11.039 		"/>
	</g>
	<g>
		<defs>
			<rect id="SVGID_147_" x="-43.067" y="-46.412" width="134" height="145"/>
		</defs>
		<clipPath id="SVGID_148_">
			<use xlink:href="#SVGID_147_"  overflow="visible"/>
		</clipPath>
		<polygon clip-path="url(#SVGID_148_)" fill="#FFFFFF" points="-22.541,11.498 -22.517,11.62 -22.082,11.468 -22.135,11.367 
			-22.426,11.462 		"/>
	</g>
	<g>
		<defs>
			<rect id="SVGID_149_" x="-43.067" y="-46.412" width="134" height="145"/>
		</defs>
		<clipPath id="SVGID_150_">
			<use xlink:href="#SVGID_149_"  overflow="visible"/>
		</clipPath>
		<polygon clip-path="url(#SVGID_150_)" fill="#FFFFFF" points="-21.98,10.964 -22.138,10.978 -21.983,10.97 		"/>
	</g>
	<g>
		<defs>
			<rect id="SVGID_151_" x="-43.067" y="-46.412" width="134" height="145"/>
		</defs>
		<clipPath id="SVGID_152_">
			<use xlink:href="#SVGID_151_"  overflow="visible"/>
		</clipPath>
		<polygon clip-path="url(#SVGID_152_)" fill="#FFFFFF" points="44.879,72.1 45.084,72.176 44.901,72.089 		"/>
	</g>
	<g>
		<defs>
			<rect id="SVGID_153_" x="-43.067" y="-46.412" width="134" height="145"/>
		</defs>
		<clipPath id="SVGID_154_">
			<use xlink:href="#SVGID_153_"  overflow="visible"/>
		</clipPath>
		<path clip-path="url(#SVGID_154_)" fill="#FFFFFF" d="M49.811,74.152c0.334-0.667-0.284-1.178-0.514-1.704
			c-0.378-0.104-0.591-0.276-0.678-0.607l-0.29-0.369c-1.659-0.853-2.783,0.092-3.352,0.553l0.251,0.12l0.2,0.119l0.948-0.386
			l0.12-0.157c0.115-0.125,0.252,0.006,0.361,0.128c0.866,0.182,1.612,0.572,1.946,1.655l0.158-0.063l-0.137,0.098
			c0.17,0.146,0.061,0.317-0.005,0.483l0.79-0.168l-0.856,0.344l-0.303,0.985l-0.872,0.435l-0.143,0.276
			c-0.114,0.065-0.229,0.139-0.345-0.06l-0.746-0.233l-0.024,0.244l-0.055-0.263c-1.515-0.483-1.563-2.084-1.241-2.825l-0.497-0.079
			l-0.31,0.86l0.2-0.081l-0.246,0.212c-0.361,0.559,0.207,1.099,0.476,1.758c0.312,0.375,0.549,0.725,1.05,0.88l0.41,0.228
			c0.508,0.058,1.074,0.564,1.58,0.146l0.533-0.472l-0.249-0.32l0.366,0.247l0.199-0.108l0.053-0.012l-0.279-0.217l0.454,0.171
			l0.467-0.119c0.299-0.473,0.407-1.129,0.566-1.675l-0.178,0.104l-0.309,0.067l0.234-0.113L49.811,74.152z"/>
	</g>
	<g>
		<defs>
			<rect id="SVGID_155_" x="-43.067" y="-46.412" width="134" height="145"/>
		</defs>
		<clipPath id="SVGID_156_">
			<use xlink:href="#SVGID_155_"  overflow="visible"/>
		</clipPath>
		<polygon clip-path="url(#SVGID_156_)" fill="#FFFFFF" points="44.925,72.068 44.901,72.084 45.177,72.201 		"/>
	</g>
	<g>
		<defs>
			<rect id="SVGID_157_" x="-43.067" y="-46.412" width="134" height="145"/>
		</defs>
		<clipPath id="SVGID_158_">
			<use xlink:href="#SVGID_157_"  overflow="visible"/>
		</clipPath>
		<polygon clip-path="url(#SVGID_158_)" fill="#FFFFFF" points="44.598,72.518 45.046,72.632 45.057,72.518 44.764,72.437 
			44.65,72.399 		"/>
	</g>
	<g>
		<defs>
			<rect id="SVGID_159_" x="-43.067" y="-46.412" width="134" height="145"/>
		</defs>
		<clipPath id="SVGID_160_">
			<use xlink:href="#SVGID_159_"  overflow="visible"/>
		</clipPath>
		<polygon clip-path="url(#SVGID_160_)" fill="#FFFFFF" points="44.781,72.176 45.136,72.367 45.317,72.301 44.874,72.103 		"/>
	</g>
	<g>
		<defs>
			<rect id="SVGID_161_" x="-43.067" y="-46.412" width="134" height="145"/>
		</defs>
		<clipPath id="SVGID_162_">
			<use xlink:href="#SVGID_161_"  overflow="visible"/>
		</clipPath>
		<polygon clip-path="url(#SVGID_162_)" fill="#FFFFFF" points="45.413,72.274 45.279,72.196 45.407,72.274 		"/>
	</g>
	<g>
		<defs>
			<rect id="SVGID_163_" x="-43.067" y="-46.412" width="134" height="145"/>
		</defs>
		<clipPath id="SVGID_164_">
			<use xlink:href="#SVGID_163_"  overflow="visible"/>
		</clipPath>
		<polygon clip-path="url(#SVGID_164_)" fill="#FFFFFF" points="44.682,72.332 44.709,72.339 45.065,72.456 45.071,72.41 
			44.879,72.309 44.715,72.252 		"/>
	</g>
	<g>
		<defs>
			<rect id="SVGID_165_" x="-43.067" y="-46.412" width="134" height="145"/>
		</defs>
		<clipPath id="SVGID_166_">
			<use xlink:href="#SVGID_165_"  overflow="visible"/>
		</clipPath>
		<polygon clip-path="url(#SVGID_166_)" fill="#FFFFFF" points="-2.55,-10.674 -2.344,-10.595 -2.534,-10.685 		"/>
	</g>
	<g>
		<defs>
			<rect id="SVGID_167_" x="-43.067" y="-46.412" width="134" height="145"/>
		</defs>
		<clipPath id="SVGID_168_">
			<use xlink:href="#SVGID_167_"  overflow="visible"/>
		</clipPath>
		<polygon clip-path="url(#SVGID_168_)" fill="#FFFFFF" points="-2.509,-10.704 -2.528,-10.69 -2.253,-10.573 		"/>
	</g>
	<g>
		<defs>
			<rect id="SVGID_169_" x="-43.067" y="-46.412" width="134" height="145"/>
		</defs>
		<clipPath id="SVGID_170_">
			<use xlink:href="#SVGID_169_"  overflow="visible"/>
		</clipPath>
		<polygon clip-path="url(#SVGID_170_)" fill="#FFFFFF" points="-2.752,-10.443 -2.721,-10.435 -2.363,-10.321 -2.36,-10.362 
			-2.555,-10.462 -2.712,-10.521 		"/>
	</g>
	<g>
		<defs>
			<rect id="SVGID_171_" x="-43.067" y="-46.412" width="134" height="145"/>
		</defs>
		<clipPath id="SVGID_172_">
			<use xlink:href="#SVGID_171_"  overflow="visible"/>
		</clipPath>
		<polygon clip-path="url(#SVGID_172_)" fill="#FFFFFF" points="-2.651,-10.592 -2.298,-10.406 -2.114,-10.467 -2.555,-10.668 		"/>
	</g>
	<g>
		<defs>
			<rect id="SVGID_173_" x="-43.067" y="-46.412" width="134" height="145"/>
		</defs>
		<clipPath id="SVGID_174_">
			<use xlink:href="#SVGID_173_"  overflow="visible"/>
		</clipPath>
		<polygon clip-path="url(#SVGID_174_)" fill="#FFFFFF" points="-2.83,-10.257 -2.385,-10.143 -2.371,-10.257 -2.665,-10.337 
			-2.78,-10.374 		"/>
	</g>
	<g>
		<defs>
			<rect id="SVGID_175_" x="-43.067" y="-46.412" width="134" height="145"/>
		</defs>
		<clipPath id="SVGID_176_">
			<use xlink:href="#SVGID_175_"  overflow="visible"/>
		</clipPath>
		<path clip-path="url(#SVGID_176_)" fill="#FFFFFF" d="M-2.78-7.352c0.311,0.377,0.548,0.725,1.05,0.886l0.409,0.225
			c0.509,0.059,1.077,0.57,1.584,0.149l0.532-0.472L0.546-6.885l0.369,0.244l0.2-0.105L1.164-6.76L0.888-6.978l0.45,0.172
			l0.47-0.122c0.304-0.47,0.412-1.122,0.563-1.673L2.197-8.497L1.89-8.425l0.23-0.114l0.257-0.08c0.339-0.665-0.28-1.17-0.51-1.702
			c-0.377-0.104-0.593-0.274-0.68-0.611l-0.291-0.365c-1.658-0.853-2.786,0.089-3.352,0.551l0.253,0.119l0.198,0.12l0.949-0.385
			l0.12-0.159c0.112-0.123,0.25,0.011,0.362,0.127c0.864,0.186,1.609,0.581,1.945,1.66l0.16-0.065L1.394-9.229
			C1.559-9.086,1.45-8.911,1.385-8.744l0.793-0.169L1.324-8.572L1.016-7.585L0.146-7.15L0.009-6.875
			c-0.117,0.064-0.232,0.136-0.344-0.063l-0.75-0.236l-0.023,0.247l-0.053-0.265c-1.51-0.486-1.561-2.087-1.24-2.825l-0.495-0.082
			l-0.312,0.859l0.203-0.08L-3.25-9.106C-3.615-8.545-3.046-8.009-2.78-7.352"/>
	</g>
	<g>
		<defs>
			<rect id="SVGID_177_" x="-43.067" y="-46.412" width="134" height="145"/>
		</defs>
		<clipPath id="SVGID_178_">
			<use xlink:href="#SVGID_177_"  overflow="visible"/>
		</clipPath>
		<polygon clip-path="url(#SVGID_178_)" fill="#FFFFFF" points="-2.018,-10.501 -2.156,-10.576 -2.023,-10.499 		"/>
	</g>
	<g>
		<defs>
			<rect id="SVGID_179_" x="-43.067" y="-46.412" width="134" height="145"/>
		</defs>
		<clipPath id="SVGID_180_">
			<use xlink:href="#SVGID_179_"  overflow="visible"/>
		</clipPath>
		<polygon clip-path="url(#SVGID_180_)" fill="#FFFFFF" points="1.268,71.964 1.316,72.176 1.287,71.97 		"/>
	</g>
	<g>
		<defs>
			<rect id="SVGID_181_" x="-43.067" y="-46.412" width="134" height="145"/>
		</defs>
		<clipPath id="SVGID_182_">
			<use xlink:href="#SVGID_181_"  overflow="visible"/>
		</clipPath>
		<polygon clip-path="url(#SVGID_182_)" fill="#FFFFFF" points="1.108,72.285 1.091,72.074 1.052,71.905 0.968,71.921 0.977,71.949 
			1.07,72.309 		"/>
	</g>
	<g>
		<defs>
			<rect id="SVGID_183_" x="-43.067" y="-46.412" width="134" height="145"/>
		</defs>
		<clipPath id="SVGID_184_">
			<use xlink:href="#SVGID_183_"  overflow="visible"/>
		</clipPath>
		<polygon clip-path="url(#SVGID_184_)" fill="#FFFFFF" points="0.891,71.926 0.768,71.954 0.907,72.388 1.008,72.336 0.923,72.046 
					"/>
	</g>
	<g>
		<defs>
			<rect id="SVGID_185_" x="-43.067" y="-46.412" width="134" height="145"/>
		</defs>
		<clipPath id="SVGID_186_">
			<use xlink:href="#SVGID_185_"  overflow="visible"/>
		</clipPath>
		<polygon clip-path="url(#SVGID_186_)" fill="#FFFFFF" points="1.318,71.978 1.296,71.97 1.343,72.269 		"/>
	</g>
	<g>
		<defs>
			<rect id="SVGID_187_" x="-43.067" y="-46.412" width="134" height="145"/>
		</defs>
		<clipPath id="SVGID_188_">
			<use xlink:href="#SVGID_187_"  overflow="visible"/>
		</clipPath>
		<path clip-path="url(#SVGID_188_)" fill="#FFFFFF" d="M3.653,74.51c-0.171-1.848-1.574-2.282-2.273-2.505l0.034,0.274l0.008,0.228
			l0.839,0.586l0.197,0.017c0.164,0.03,0.125,0.217,0.086,0.372c0.308,0.822,0.372,1.663-0.358,2.521l0.137,0.098l-0.156-0.058
			c-0.032,0.215-0.242,0.215-0.416,0.25l0.568,0.572l-0.748-0.531l-1.002,0.273l-0.839-0.491l-0.308,0.027
			c-0.118-0.06-0.236-0.119-0.13-0.323L-0.91,75.07l-0.224,0.113l0.195-0.187c-0.399-1.523,0.93-2.43,1.733-2.555l-0.198-0.455
			l-0.899,0.195l0.179,0.13l-0.311-0.092c-0.675,0-0.823,0.76-1.234,1.335c-0.151,0.461-0.328,0.854-0.194,1.356l0.034,0.462
			c0.227,0.456,0.098,1.21,0.729,1.405l0.685,0.19l0.138-0.386l-0.008,0.439l0.198,0.109l0.037,0.04l0.036-0.347l0.098,0.469
			l0.355,0.326c0.558,0,1.176-0.261,1.722-0.426l-0.183-0.093l-0.227-0.22l0.224,0.136l0.205,0.174
			c0.748-0.076,0.845-0.869,1.17-1.347c-0.115-0.369-0.087-0.635,0.15-0.896L3.653,74.51z"/>
	</g>
	<g>
		<defs>
			<rect id="SVGID_189_" x="-43.067" y="-46.412" width="134" height="145"/>
		</defs>
		<clipPath id="SVGID_190_">
			<use xlink:href="#SVGID_189_"  overflow="visible"/>
		</clipPath>
		<polygon clip-path="url(#SVGID_190_)" fill="#FFFFFF" points="1.402,72.344 1.406,72.497 1.412,72.502 		"/>
	</g>
	<g>
		<defs>
			<rect id="SVGID_191_" x="-43.067" y="-46.412" width="134" height="145"/>
		</defs>
		<clipPath id="SVGID_192_">
			<use xlink:href="#SVGID_191_"  overflow="visible"/>
		</clipPath>
		<polygon clip-path="url(#SVGID_192_)" fill="#FFFFFF" points="1.147,71.921 1.179,72.315 1.332,72.437 1.262,71.959 		"/>
	</g>
	<g>
		<defs>
			<rect id="SVGID_193_" x="-43.067" y="-46.412" width="134" height="145"/>
		</defs>
		<clipPath id="SVGID_194_">
			<use xlink:href="#SVGID_193_"  overflow="visible"/>
		</clipPath>
		<polygon clip-path="url(#SVGID_194_)" fill="#FFFFFF" points="45.797,-11.974 45.782,-12.191 45.746,-12.358 45.659,-12.344 
			45.667,-12.316 45.759,-11.955 		"/>
	</g>
	<g>
		<defs>
			<rect id="SVGID_195_" x="-43.067" y="-46.412" width="134" height="145"/>
		</defs>
		<clipPath id="SVGID_196_">
			<use xlink:href="#SVGID_195_"  overflow="visible"/>
		</clipPath>
		<polygon clip-path="url(#SVGID_196_)" fill="#FFFFFF" points="45.58,-12.332 45.458,-12.31 45.601,-11.877 45.705,-11.926 
			45.618,-12.215 		"/>
	</g>
	<g>
		<defs>
			<rect id="SVGID_197_" x="-43.067" y="-46.412" width="134" height="145"/>
		</defs>
		<clipPath id="SVGID_198_">
			<use xlink:href="#SVGID_197_"  overflow="visible"/>
		</clipPath>
		<path clip-path="url(#SVGID_198_)" fill="#FFFFFF" d="M43.02-10.704c-0.155,0.464-0.319,0.854-0.188,1.355l0.03,0.464
			c0.227,0.453,0.099,1.209,0.728,1.406l0.688,0.19l0.137-0.381L44.404-7.23l0.199,0.109l0.036,0.035l0.038-0.35l0.098,0.472
			l0.355,0.326c0.559,0.005,1.176-0.259,1.723-0.425l-0.178-0.092l-0.227-0.22l0.222,0.134l0.204,0.172
			c0.747-0.079,0.848-0.864,1.171-1.346c-0.115-0.372-0.085-0.642,0.152-0.894l0.153-0.442c-0.169-1.846-1.572-2.284-2.271-2.506
			l0.032,0.275l0.006,0.231l0.845,0.583l0.194,0.016c0.167,0.028,0.126,0.217,0.085,0.372c0.306,0.824,0.374,1.66-0.361,2.521
			l0.143,0.1l-0.159-0.061c-0.032,0.213-0.246,0.213-0.415,0.25l0.568,0.572l-0.749-0.528l-1.001,0.269l-0.842-0.491l-0.309,0.034
			c-0.118-0.063-0.235-0.121-0.129-0.323l-0.205-0.753l-0.221,0.111l0.196-0.183c-0.404-1.529,0.933-2.432,1.733-2.561l-0.199-0.458
			l-0.899,0.2l0.18,0.125l-0.314-0.085C43.583-12.043,43.433-11.279,43.02-10.704"/>
	</g>
	<g>
		<defs>
			<rect id="SVGID_199_" x="-43.067" y="-46.412" width="134" height="145"/>
		</defs>
		<clipPath id="SVGID_200_">
			<use xlink:href="#SVGID_199_"  overflow="visible"/>
		</clipPath>
		<polygon clip-path="url(#SVGID_200_)" fill="#FFFFFF" points="46.096,-11.916 46.098,-11.766 46.104,-11.761 		"/>
	</g>
	<g>
		<defs>
			<rect id="SVGID_201_" x="-43.067" y="-46.412" width="134" height="145"/>
		</defs>
		<clipPath id="SVGID_202_">
			<use xlink:href="#SVGID_201_"  overflow="visible"/>
		</clipPath>
		<polygon clip-path="url(#SVGID_202_)" fill="#FFFFFF" points="45.961,-12.299 46.005,-12.085 45.984,-12.294 		"/>
	</g>
	<g>
		<defs>
			<rect id="SVGID_203_" x="-43.067" y="-46.412" width="134" height="145"/>
		</defs>
		<clipPath id="SVGID_204_">
			<use xlink:href="#SVGID_203_"  overflow="visible"/>
		</clipPath>
		<polygon clip-path="url(#SVGID_204_)" fill="#FFFFFF" points="45.841,-12.341 45.875,-11.944 46.028,-11.822 45.957,-12.302 		"/>
	</g>
	<g>
		<defs>
			<rect id="SVGID_205_" x="-43.067" y="-46.412" width="134" height="145"/>
		</defs>
		<clipPath id="SVGID_206_">
			<use xlink:href="#SVGID_205_"  overflow="visible"/>
		</clipPath>
		<polygon clip-path="url(#SVGID_206_)" fill="#FFFFFF" points="46.008,-12.282 45.989,-12.292 46.039,-12 		"/>
	</g>
	<g>
		<defs>
			<rect id="SVGID_207_" x="-43.067" y="-46.412" width="134" height="145"/>
		</defs>
		<clipPath id="SVGID_208_">
			<use xlink:href="#SVGID_207_"  overflow="visible"/>
		</clipPath>
		<path clip-path="url(#SVGID_208_)" fill="#FFFFFF" d="M-15.249,59.47l0.355-0.305c0.78-1.683-0.216-2.757-0.708-3.297
			l-0.112,0.255l-0.109,0.198l0.435,0.928l0.162,0.109c0.132,0.103,0,0.249-0.112,0.363c-0.142,0.868-0.506,1.623-1.579,2.006
			l0.071,0.154l-0.106-0.13c-0.135,0.171-0.317,0.064-0.485,0.011l0.205,0.778l-0.381-0.83l-1.007-0.264l-0.476-0.841l-0.286-0.125
			c-0.067-0.114-0.145-0.223,0.048-0.342l0.204-0.755l-0.251-0.014l0.264-0.062c0.422-1.525,2.026-1.646,2.784-1.357l0.059-0.494
			l-0.879-0.273l0.096,0.197l-0.23-0.233c-0.58-0.336-1.095,0.25-1.741,0.549c-0.364,0.325-0.708,0.575-0.845,1.08l-0.208,0.418
			c-0.037,0.505-0.521,1.091-0.075,1.571l0.495,0.508l0.314-0.261l-0.23,0.377l0.115,0.19l0.014,0.051l0.207-0.287l-0.147,0.458
			l0.139,0.459c0.491,0.282,1.154,0.361,1.711,0.483l-0.112-0.169l-0.085-0.301l0.126,0.226l0.09,0.252
			c0.687,0.302,1.165-0.331,1.691-0.586C-15.741,59.791-15.587,59.568-15.249,59.47"/>
	</g>
	<g>
		<defs>
			<rect id="SVGID_209_" x="-43.067" y="-46.412" width="134" height="145"/>
		</defs>
		<clipPath id="SVGID_210_">
			<use xlink:href="#SVGID_209_"  overflow="visible"/>
		</clipPath>
		<polygon clip-path="url(#SVGID_210_)" fill="#FFFFFF" points="-15.828,56.311 -15.758,56.175 -15.831,56.305 		"/>
	</g>
	<g>
		<defs>
			<rect id="SVGID_211_" x="-43.067" y="-46.412" width="134" height="145"/>
		</defs>
		<clipPath id="SVGID_212_">
			<use xlink:href="#SVGID_211_"  overflow="visible"/>
		</clipPath>
		<polygon clip-path="url(#SVGID_212_)" fill="#FFFFFF" points="-15.938,56.04 -15.868,56.221 -15.688,55.774 -15.767,55.681 		"/>
	</g>
	<g>
		<defs>
			<rect id="SVGID_213_" x="-43.067" y="-46.412" width="134" height="145"/>
		</defs>
		<clipPath id="SVGID_214_">
			<use xlink:href="#SVGID_213_"  overflow="visible"/>
		</clipPath>
		<polygon clip-path="url(#SVGID_214_)" fill="#FFFFFF" points="-15.75,55.985 -15.668,55.792 -15.682,55.776 		"/>
	</g>
	<g>
		<defs>
			<rect id="SVGID_215_" x="-43.067" y="-46.412" width="134" height="145"/>
		</defs>
		<clipPath id="SVGID_216_">
			<use xlink:href="#SVGID_215_"  overflow="visible"/>
		</clipPath>
		<polygon clip-path="url(#SVGID_216_)" fill="#FFFFFF" points="-15.663,55.798 -15.77,56.072 -15.649,55.817 		"/>
	</g>
	<g>
		<defs>
			<rect id="SVGID_217_" x="-43.067" y="-46.412" width="134" height="145"/>
		</defs>
		<clipPath id="SVGID_218_">
			<use xlink:href="#SVGID_217_"  overflow="visible"/>
		</clipPath>
		<polygon clip-path="url(#SVGID_218_)" fill="#FFFFFF" points="-16.209,55.963 -16.095,55.969 -16.023,55.676 -15.994,55.559 
			-16.111,55.513 		"/>
	</g>
	<g>
		<defs>
			<rect id="SVGID_219_" x="-43.067" y="-46.412" width="134" height="145"/>
		</defs>
		<clipPath id="SVGID_220_">
			<use xlink:href="#SVGID_219_"  overflow="visible"/>
		</clipPath>
		<polygon clip-path="url(#SVGID_220_)" fill="#FFFFFF" points="-15.927,55.616 -16.029,55.974 -15.985,55.98 -15.893,55.785 
			-15.839,55.622 -15.921,55.589 		"/>
	</g>
	<g>
		<defs>
			<rect id="SVGID_221_" x="-43.067" y="-46.412" width="134" height="145"/>
		</defs>
		<clipPath id="SVGID_222_">
			<use xlink:href="#SVGID_221_"  overflow="visible"/>
		</clipPath>
		<polygon clip-path="url(#SVGID_222_)" fill="#FFFFFF" points="65.333,5.547 65.405,5.409 65.333,5.542 		"/>
	</g>
	<g>
		<defs>
			<rect id="SVGID_223_" x="-43.067" y="-46.412" width="134" height="145"/>
		</defs>
		<clipPath id="SVGID_224_">
			<use xlink:href="#SVGID_223_"  overflow="visible"/>
		</clipPath>
		<polygon clip-path="url(#SVGID_224_)" fill="#FFFFFF" points="65.236,4.853 65.131,5.212 65.175,5.215 65.268,5.02 65.323,4.856 
			65.238,4.825 		"/>
	</g>
	<g>
		<defs>
			<rect id="SVGID_225_" x="-43.067" y="-46.412" width="134" height="145"/>
		</defs>
		<clipPath id="SVGID_226_">
			<use xlink:href="#SVGID_225_"  overflow="visible"/>
		</clipPath>
		<polygon clip-path="url(#SVGID_226_)" fill="#FFFFFF" points="65.049,4.753 64.957,5.2 65.066,5.209 65.137,4.914 65.169,4.797 		
			"/>
	</g>
	<g>
		<defs>
			<rect id="SVGID_227_" x="-43.067" y="-46.412" width="134" height="145"/>
		</defs>
		<clipPath id="SVGID_228_">
			<use xlink:href="#SVGID_227_"  overflow="visible"/>
		</clipPath>
		<path clip-path="url(#SVGID_228_)" fill="#FFFFFF" d="M62.129,4.931c-0.366,0.324-0.705,0.578-0.847,1.082l-0.208,0.417
			c-0.033,0.505-0.525,1.092-0.077,1.576l0.498,0.506l0.312-0.262l-0.229,0.378l0.12,0.188l0.014,0.053l0.205-0.287L61.76,9.042
			L61.906,9.5c0.486,0.286,1.148,0.358,1.706,0.486L63.5,9.816l-0.085-0.303l0.126,0.225l0.09,0.25
			c0.687,0.302,1.168-0.325,1.692-0.583c0.088-0.377,0.246-0.597,0.58-0.7l0.357-0.303c0.785-1.681-0.213-2.76-0.702-3.299
			l-0.109,0.255l-0.112,0.204l0.43,0.923l0.164,0.111c0.131,0.104,0,0.247-0.112,0.361c-0.146,0.87-0.517,1.623-1.577,2.008
			l0.065,0.156L64.2,8.988C64.065,9.161,63.885,9.049,63.712,9l0.205,0.777l-0.377-0.831l-1.004-0.26l-0.483-0.843l-0.284-0.127
			c-0.071-0.111-0.146-0.223,0.049-0.345l0.208-0.75l-0.252-0.014l0.263-0.063c0.418-1.524,2.031-1.644,2.789-1.354l0.06-0.494
			L64.01,4.422l0.088,0.197l-0.225-0.233C63.294,4.05,62.781,4.64,62.129,4.931"/>
	</g>
	<g>
		<defs>
			<rect id="SVGID_229_" x="-43.067" y="-46.412" width="134" height="145"/>
		</defs>
		<clipPath id="SVGID_230_">
			<use xlink:href="#SVGID_229_"  overflow="visible"/>
		</clipPath>
		<polygon clip-path="url(#SVGID_230_)" fill="#FFFFFF" points="65.411,5.22 65.493,5.027 65.479,5.011 		"/>
	</g>
	<g>
		<defs>
			<rect id="SVGID_231_" x="-43.067" y="-46.412" width="134" height="145"/>
		</defs>
		<clipPath id="SVGID_232_">
			<use xlink:href="#SVGID_231_"  overflow="visible"/>
		</clipPath>
		<polygon clip-path="url(#SVGID_232_)" fill="#FFFFFF" points="65.498,5.034 65.394,5.311 65.514,5.051 		"/>
	</g>
	<g>
		<defs>
			<rect id="SVGID_233_" x="-43.067" y="-46.412" width="134" height="145"/>
		</defs>
		<clipPath id="SVGID_234_">
			<use xlink:href="#SVGID_233_"  overflow="visible"/>
		</clipPath>
		<polygon clip-path="url(#SVGID_234_)" fill="#FFFFFF" points="65.227,5.276 65.295,5.457 65.473,5.006 65.394,4.917 		"/>
	</g>
	<g>
		<defs>
			<rect id="SVGID_235_" x="-43.067" y="-46.412" width="134" height="145"/>
		</defs>
		<clipPath id="SVGID_236_">
			<use xlink:href="#SVGID_235_"  overflow="visible"/>
		</clipPath>
		<path clip-path="url(#SVGID_236_)" fill="#FFFFFF" d="M-4.978-0.516l-0.118-0.106l-0.372,0.514l-0.152,0.189l0.04,0.072
			c-0.283,0.193,0.073,0.162,0.166,0.223l-0.023,0.031l0.021,0.032c-0.021,0.026-0.042,0.053-0.117,0.098l0.083,1.127l0.283-0.175
			l0.4-0.13l-0.008,0.039l-0.219,0.127l-0.457,0.165c0.027,0.859,0.163,1.645,0.42,2.345C-4.412,4.258-4.102,4.6-4.205,5.048
			L-4.484,5.77c0.767,1.874,1.229,3.316,1.608,4.208l0.443-0.197l0.383-0.167c-0.021-0.456-0.075-1.032-0.158-1.702l-0.211-0.208
			l0.056-0.662c-0.254-1.019-0.529-2.198-0.795-3.426c0.302,0.25,0.569,0.539,0.697,0.947l0.187,0.514l1.111,1.474l0.74,0.38
			l0.555-0.517l-0.435,0.633l0.16,0.207l0.011,0.061l0.429-0.451l-0.378,0.654l0.075,0.536L1.128,9.66l0.145-0.269l0.35-0.419
			L1.428,9.331L1.139,9.678l1.237,1.692c0.008,0,0.014,0.002,0.021,0.002l0.081,0.153l0.083-0.122c0.037,0,0.059,0.011,0.09,0.014
			l-0.078,0.281l1.363,2.339c0.566,0.409,1.05,0.907,1.237,1.634l0.19,0.642l1.244,1.898l0.865,0.514l0.685-0.62l-0.551,0.771
			l0.179,0.266l0.011,0.076l0.532-0.546l-0.487,0.801l0.075,0.67l1.479,1.908l0.167-0.327l0.416-0.511L9.751,21.65l-0.342,0.422
			l1.624,2.003c0.732-0.061,1.214,0.167,1.301,0.676v0.87c0.596,0.692,1.136,1.299,1.646,1.851
			c-0.428,0.385-0.833,0.794-1.175,1.299c-0.025,1.303-0.134,2.34-0.502,3.202l2.997,1.173l0.73-1.553
			c1.004-1.492,2.789-2.067,4.18-2.735l1.427-0.043c1.549-0.18,2.911-0.049,4.396,0.026c2.009,0.598,3.926,1.67,4.775,3.181
			l0.102,0.858l0.139-0.508c0.717,0.809,1.021,1.69,1.059,2.56l-1.072,0.786c-0.312-2.61-4.505-6.149-9.624-4.771l-0.633-0.473
			l0.364,0.521c-0.89,0.104-1.528,0.857-2.349,1.222c-0.521-0.076-0.902,0.119-1.121,0.516l-0.115,0.824
			c-0.885,0.755-0.805,1.916-1.15,2.942c0.263,1.074,0.092,2.432,1.029,3.24c-0.246,0.456-0.394,0.964-0.489,1.481
			c0.029,0.033,0.062,0.061,0.09,0.093c-0.042,0.049-0.085,0.09-0.127,0.141c-0.016,0.136-0.062,0.267-0.067,0.402l0.964-1.629
			c0.305,0.521,0.703,0.947,1.276,1.181l-0.037,0.467l0.16-0.394c2.833,1.897,6.672,1.762,8.799,0.195
			c0.41-0.076,0.976-0.081,1.184-0.494l0.167-0.531c0.989-0.901,1.553-1.846,1.689-2.785l0.524-0.119l0.191-0.07
			c0.011-0.079,0.02-0.163,0.027-0.244l-0.213,0.063l0.219-0.084c0-0.022,0.005-0.041,0.005-0.058l-0.041,0.014l0.041-0.019
			c0.006-0.024,0.006-0.041,0.006-0.063l-0.64,0.255l0.208-0.564l0.489-0.136c0-0.041,0.014-0.076,0.014-0.114
			c0-0.046-0.014-0.084-0.017-0.125l-0.459,0.125l-0.05-0.125l0.476-0.244c0-0.07-0.016-0.144-0.021-0.211l0.109,0.171l0.301-0.155
			l0.06-0.032l0.017,0.108l2.16-0.499l0.984-0.267l-0.006-0.554l-3.19,0.921l0.006,0.035l-0.273,0.146l-0.694,0.391l-0.115-0.328
			l0.594-0.351c-0.012-0.06-0.012-0.119-0.022-0.174c1.2-0.38,2.444-0.844,3.666-1.411c0.03-1.221-0.249-2.523-1.129-3.762
			l-0.913,1.156c0.049-0.401,0.287-0.972,0.604-1.677c-0.506-1.048-1.348-1.976-2.382-2.784c0.624-0.862,1.308-1.862,2.037-2.976
			c0.167-0.923,0.489-1.804,1.271-2.454l0.678-0.609l1.583-2.615c-0.058-0.493-0.022-0.947,0.128-1.35l-1.159-0.482l1.261,0.228
			l0.222-0.369l0.087-0.058l-0.979-0.336l1.258,0.133l0.776-0.478l1.597-2.818l-0.509-0.03l-0.869-0.228l0.673,0.039l0.722,0.189
			c0.617-1.368,1.05-1.342,1.728-3.757c-0.826-0.547-1.132-1.196-0.787-1.798l0.746-0.904c-0.079-3.089-0.252-5.566-0.503-7.059
			L40.8-0.468l-0.202,0.043l-0.082-0.024l0.076-0.021L40.51-0.452l-0.64-0.198l-1.216,1.171l0.33,0.024l-0.508,0.153
			c-0.728,0.714-1.554,1.547-2.45,2.47c-0.459,0.721-1,1.421-1.738,1.976l-0.65,0.512c-0.542,0.445-1.542,1.651-1.739,2.612
			l-0.153,1.195L32.35,9.53L31.675,9.71l-0.146,0.387l-0.058,0.075l0.522-0.005l-0.688,0.265l-0.457,0.642l-1.055,2.89l0.278-0.125
			l0.465-0.066l-0.372,0.166l-0.383,0.056l-1.099,3.096c0.197,0.603,0.137,1.228-0.211,1.724l-0.631,0.706
			c-0.766,2.262-1.361,4.14-1.761,5.51c-1.657,0.186-3.124,0.203-4.926-0.037c-0.663,0.064-1.379-0.104-2.161-0.311
			c-1.198,0.55-2.554,1.108-3.793,1.89l-0.125-0.442c-0.823-1.265-1.859-2.765-3.048-4.399l-0.297,0.278l0.249-0.347l-0.63-0.848
			l-1.184,1.233l0.965-1.533l-1.299-1.731L8.681,17.14l-0.562-0.122c-0.168-0.188-0.171-0.467-0.087-0.787l-0.924-1.27L6.741,15.33
			l-0.003,0.005l-0.031,0.031l0.303-0.531c-0.703-0.951-1.359-1.8-1.977-2.58c-0.521-0.861-1.095-1.784-1.765-2.801L3.018,9.678
			l0.216-0.281L2.747,8.666L2.31,9.105L2.264,9.063L1.976,9.319l0.597-0.912L1.559,6.923L0.523,5.615L0.044,5.534
			c-0.147-0.146-0.163-0.375-0.109-0.639l-0.834-1.003l-0.31,0.35l0.22-0.448C-1.291,3.436-1.58,3.104-1.865,2.775l1.082,0.566
			l0.137-0.48l-0.008,0.542c2.36,1.146,4.354,1.821,5.638,2.224l0.26-1.007L4.264,4L4.23,4.372L4.118,3.914l-2.08-1.186
			C1.433,2.656,0.809,2.516,0.395,2.001l-0.393-0.43L-1.66,0.593l-0.876-0.069l-0.342,0.727l0.176-0.791l-0.238-0.137L-2.974,0.27
			l-0.251,0.606L-3.1,0.092l-0.286-0.478l-0.452-0.25c-0.371,0.147-0.636,0.261-0.879,0.367c-0.042-0.04-0.093-0.095-0.133-0.127
			l-0.204,0.275C-5.188-0.057-5.33,0.007-5.414,0.05L-4.978-0.516z M31.41,37.726l-0.355,0.095l0.011-0.016L31.41,37.726z
			 M33.167,9.15l-0.049-0.596l0.533-0.758c0.024-0.041,0.172-0.21,0.347-0.411c0.033,0.042,0.027,0.074,0.065,0.119l0.714-0.188
			l1.692-0.09c-0.553,0.251-1.143,0.62-1.569,1.156c-1.518,0.532-1.744,1.079-1.408,1.435c-0.202,0.267-0.076,0.37,0.293,0.209
			c0.322,0.149,0.773,0.222,1.241,0.172l0.825,0.149l-1.864,0.365l-1.892,1.347l0.18-0.486L33.167,9.15z M27.552,23.618l0.014-0.381
			l0.476-0.78c0.746-1.796,1.624-3.988,2.562-6.429l-0.265-0.03l0.303-0.069l0.487-1.278l-1.159-0.012l1.334-0.438l0.612-1.639
			c0.951,1.655,1.635,0.242,2.455,0.252l-0.568,0.676l-1.567,0.897c-0.199,0.8-1.896-0.059-0.855,2.095l0.407-0.18
			c-0.877,0.832-1.703,1.798-1.872,2.482c-0.093,0.034-0.175,0.056-0.271,0.092c0.096,0.269,0.21,0.382,0.336,0.438
			c0.076,0.12,0.196,0.217,0.401,0.27c4.517-1.84,0.506-0.381-0.439,1.478l0.935-0.075c0.662-0.67,1.597-1.281,2.449-2.284
			l-0.191,0.08c0.123-0.287,0.027-0.937-0.336-0.82c-0.473,0.08-0.971,0.197-1.487,0.348c0.271-0.313,0.533-0.597,0.782-0.695
			c0.199-1.026,3.551-2.337,2.329-3.126c0.079-0.114,0.147-0.233,0.178-0.364l1.72-1.654l-0.12-0.039
			c0.079-0.053,0.145-0.13,0.188-0.239l0.322-0.059c0.53,0.368,0.126-1.153-0.251-0.854l-0.077,0.012
			c-0.011-0.044-0.011-0.073-0.021-0.122l-0.366,0.294l-0.293-0.05l-0.814,0.13l0.281-0.202l-0.438,0.107l-0.544-0.017l0.588-0.136
			l0.448,0.003l2.592-2.204c-0.383-0.3-0.684-0.459-0.957-0.562c0.006-0.027,0.012-0.05,0.014-0.077l-0.098,0.016
			c0.035-0.019,0.068-0.042,0.106-0.061c0.003-0.021,0.011-0.039,0.011-0.064l0.065,0.019c2.297-1.406,0.924-2.131-0.722-2.143
			c0.648-0.369,1.255-0.725,1.515-0.767l-0.438-0.106l-0.345-0.105c-0.21,0.27-0.945,0.448-1.656,0.662
			c1.963-2.219,3.589-4.123,4.734-5.537c-0.096,0.539-0.186,1.132-0.278,1.814l0.235,0.392c0.019,0.326-0.137,0.636-0.402,0.931
			c-0.445,1.626,0.082,5.412-1.071,6.34l0.511,0.213l-0.574-0.119l-0.743,1.235l2.198,0.78c-0.714-0.027-1.559-0.162-2.458-0.348
			l-1.495,2.546l-1.34,2.36c0.164,0.292,0.235,0.555,0.178,0.758c-0.131,0.313-0.473,0.483-0.916,0.564l-1.012,1.87l0.733,0.25
			l-0.826-0.059c-1.225,2.293-2.226,4.322-2.999,6.012c-0.746-0.403-1.528-0.77-2.354-1.056c-0.164,0.024-0.301,0.037-0.454,0.058
			C27.159,24.52,27.344,24.093,27.552,23.618 M36.399,11.378l0.334,0.212l-0.313-0.053C36.413,11.484,36.407,11.434,36.399,11.378
			 M-4.516,1.866l0.042,0.064l-0.409,0.108L-4.516,1.866z M-2.119,2.474c-0.121-0.136-0.227-0.25-0.342-0.38l0.034-0.005
			C-2.276,2.149-2.184,2.299-2.119,2.474"/>
	</g>
	<g>
		<defs>
			<rect id="SVGID_237_" x="-43.067" y="-46.412" width="134" height="145"/>
		</defs>
		<clipPath id="SVGID_238_">
			<use xlink:href="#SVGID_237_"  overflow="visible"/>
		</clipPath>
		<polygon clip-path="url(#SVGID_238_)" fill="#FFFFFF" points="-5.499,-0.385 -5.717,-0.104 -5.664,-0.007 -5.627,-0.054 
			-5.162,-0.677 -5.207,-0.716 		"/>
	</g>
	<g>
		<defs>
			<rect id="SVGID_239_" x="-43.067" y="-46.412" width="134" height="145"/>
		</defs>
		<clipPath id="SVGID_240_">
			<use xlink:href="#SVGID_239_"  overflow="visible"/>
		</clipPath>
		<polygon clip-path="url(#SVGID_240_)" fill="#FFFFFF" points="-2.037,10.078 -2.042,9.789 -2.797,10.139 -2.724,10.294 		"/>
	</g>
	<g>
		<defs>
			<rect id="SVGID_241_" x="-43.067" y="-46.412" width="134" height="145"/>
		</defs>
		<clipPath id="SVGID_242_">
			<use xlink:href="#SVGID_241_"  overflow="visible"/>
		</clipPath>
		<polygon clip-path="url(#SVGID_242_)" fill="#FFFFFF" points="-2.298,9.755 -2.05,9.649 -2.05,9.639 		"/>
	</g>
	<g>
		<defs>
			<rect id="SVGID_243_" x="-43.067" y="-46.412" width="134" height="145"/>
		</defs>
		<clipPath id="SVGID_244_">
			<use xlink:href="#SVGID_243_"  overflow="visible"/>
		</clipPath>
		<polygon clip-path="url(#SVGID_244_)" fill="#FFFFFF" points="5.49,5.764 5.649,5.332 5.758,4.976 5.661,4.905 5.644,4.964 
			5.429,5.751 		"/>
	</g>
	<g>
		<defs>
			<rect id="SVGID_245_" x="-43.067" y="-46.412" width="134" height="145"/>
		</defs>
		<clipPath id="SVGID_246_">
			<use xlink:href="#SVGID_245_"  overflow="visible"/>
		</clipPath>
		<polygon clip-path="url(#SVGID_246_)" fill="#FFFFFF" points="5.17,5.682 5.336,5.725 5.501,5.09 5.574,4.844 5.434,4.75 		"/>
	</g>
	<g>
		<defs>
			<rect id="SVGID_247_" x="-43.067" y="-46.412" width="134" height="145"/>
		</defs>
		<clipPath id="SVGID_248_">
			<use xlink:href="#SVGID_247_"  overflow="visible"/>
		</clipPath>
		<polygon clip-path="url(#SVGID_248_)" fill="#FFFFFF" points="-2.833,10.067 -2.819,10.097 -2.36,9.883 		"/>
	</g>
	<g>
		<defs>
			<rect id="SVGID_249_" x="-43.067" y="-46.412" width="134" height="145"/>
		</defs>
		<clipPath id="SVGID_250_">
			<use xlink:href="#SVGID_249_"  overflow="visible"/>
		</clipPath>
		<polygon clip-path="url(#SVGID_250_)" fill="#FFFFFF" points="-2.475,9.97 -2.814,10.103 -2.803,10.134 		"/>
	</g>
</g>
</svg>
