<?xml version="1.0" encoding="utf-8"?>
<!-- Generator: Adobe Illustrator 15.0.2, SVG Export Plug-In . SVG Version: 6.00 Build 0)  -->
<!DOCTYPE svg PUBLIC "-//W3C//DTD SVG 1.1//EN" "http://www.w3.org/Graphics/SVG/1.1/DTD/svg11.dtd">
<svg version="1.1" id="Layer_1" xmlns="http://www.w3.org/2000/svg" xmlns:xlink="http://www.w3.org/1999/xlink" x="0px" y="0px"
	 width="159px" height="139px" viewBox="0 0 159 139" enable-background="new 0 0 159 139" xml:space="preserve">
<g>
	<defs>
		<rect id="SVGID_1_" width="159" height="139"/>
	</defs>
	<clipPath id="SVGID_2_">
		<use xlink:href="#SVGID_1_"  overflow="visible"/>
	</clipPath>
	<path clip-path="url(#SVGID_2_)" fill="#FFFFFF" d="M157.659,130.085c-0.054-0.752-0.12-1.538-0.203-2.405l-0.944,0.62
		l-0.006-0.005c0.149-0.343,0.468-0.725,0.898-1.123c-0.164-2.094-0.697-4.452-1.183-7.068c-0.989-1.544-1.811-3.183-1.781-5.159
		c-0.144-0.562-0.101-1.168-0.015-1.791c-0.565-1.863-1.102-3.834-2.003-5.76c-0.863-0.521-1.549-1.123-2.02-1.836l-2.114,1.229
		l1.833-1.695l-0.336-0.786l0.009-0.207l-1.661,1.162c0.431-0.576,1.013-1.202,1.664-1.858l0.101-1.819l-3.395-5.658l-0.522,0.855
		l-1.217,1.271l0.712-1.117l0.993-1.066c-1.146-2.15-3.002-3.795-4.396-5.558c-1.972,0.208-3.156-0.388-3.556-1.679l-0.416-2.218
		c-3.775-3.385-7.623-5.182-10.479-6.299l0.069-0.264c-1.501-4.171-4.56-6.557-6.597-7.962c0.149-0.148,0.29-0.308,0.447-0.453
		l0.497-1.38l-0.876-0.54l-0.246-0.159l0.29,0.109l1.007,0.354l0.304-0.354l0.095-0.058l-0.961-0.466h0.003l1.268,0.271l0.855-0.472
		c0.654-1.042,1.386-2.007,1.894-3.039l-0.524,0.005l-0.922-0.206l0.706,0.017l0.755,0.149l0.49-1.178l0.281-0.095l-0.187-0.14
		l0.121-0.288l0.358,0.327l0.021-0.011l-0.376-0.318l0.022-0.058l0.399,0.359c0.852-0.365,2.008-0.776,3.592-1.213l0.388-0.573
		c0.459-0.264,1.047-0.428,1.756-0.411c4.792-1.561,2.94-9.959,4.126-9.942l-0.715-0.448l0.767,0.359
		c0.428-0.512,0.924-0.814,1.667-2.043c-1.214-0.208-2.336-0.679-3.349-1.313c0.887,0.293,2.479,0.472,3.868,0.187
		c0.616-2.156,0.12-4.74-1.085-6.278c-1.05-1.596-1.977-2.375-2.462-3.222c-0.505,0.055-0.93-0.006-1.041-0.23
		c-0.173-0.382,0.022-0.887,0.438-1.313c-0.364-0.629-0.376-1.796-0.468-2.779l-1.162,0.296l1.125-0.609
		c0.628-7.048-6.763-10.029-9.193-10.685c-1.23-0.977-2.548-2.267-4.347-3.138c-1.521-0.153-2.835-0.623-4.175-1.409l-1.23-0.747
		c-1.516-0.46-3.174-0.612-4.855-0.779c-0.66,0.414-1.309,0.689-1.968,0.79l0.203,1.426l0.055,0.365l-0.144-0.365l-0.536-1.38
		l-0.672,0.038l-0.146-0.055l0.373,1.432l0.003,0.005l-0.003-0.005l-0.886-1.602l-1.329-0.518c-1.799,0.159-3.429,0.842-5.035,1.343
		l0.542,0.517l0.709,1.089l-0.691-0.695l-0.611-0.894c-1.805,0.664-3.652,1.023-5.047,2.244c-0.095,1.507-0.583,2.397-1.659,2.544
		l-1.888,0.011c-1.526,1.583-2.631,3.162-3.445,4.63l-0.109-0.005l-0.118,0.17l0.121,0.005h0.012
		c-0.026,0.049-0.058,0.106-0.084,0.159l-0.154-0.017l-0.158,0.234l0.184,0.013c-0.055,0.112-0.106,0.212-0.157,0.319l-0.232-0.022
		c-0.362,0.442-0.471,1.005-1.042,1.511l0.574,0.149c-0.003,0.013-0.009,0.024-0.012,0.035l-0.78,0.017
		c-0.855,0.791-1.854,1.78-3.137,3.122c-0.53,1.026-0.648,2.463-1.627,3.535l-0.579,1.091c-0.178,1.313-0.293,2.667-0.215,3.923
		c0.378,0.488,0.634,0.977,0.717,1.442l1.507-0.206l-1.461,0.517l-0.009,0.49l-0.057,0.1l1.233-0.195l-1.406,0.549l-0.594,0.809
		c-0.181,1.054-0.347,2.15-0.769,3.486l0.608-0.129h1.093l-0.81,0.157l-0.903,0.013c-0.272,1.448-0.859,3.086-0.296,4.836
		c1.125,0.676,1.65,1.179,1.908,1.996l0.092,1.566c3.004,2.771,5.713,4.271,8.089,4.4l-0.109-0.919l0.012-0.776
		c-0.58-0.164-1.354-0.955-2.232-1.555l-0.531-0.017c-0.111-0.073-0.189-0.184-0.27-0.291c-0.074-0.118-0.152-0.277-0.235-0.469
		c-0.028-0.088-0.074-0.162-0.092-0.255c-0.009-0.011-0.017-0.019-0.025-0.03c-0.141-0.341-0.29-0.73-0.445-1.135l0.987,1.388
		c0.112-0.056,0.181-0.111,0.25-0.168c0.144-0.049,0.235-0.136,0.195-0.242c0.2-0.506-0.601-1.072-0.56-1.573l-0.278-0.384
		l-0.201-0.749l-0.669-1.566l-0.098,0.161l0.029-0.318c-2.431-5.036,0.419,0.936,1.208,1.278l0.052-0.219l0.123,0.271l-0.04,0.14
		l0.12,0.164l0.021-0.085l0.063,0.135l-0.011,0.046l0.043,0.06l0.074-0.147l0.046-0.138l-0.074-0.124l-0.006,0.02l-0.055,0.21
		l-0.028-0.276l0.022-0.066l-0.037-0.063l-0.018-0.165l-0.622-1.431l0.206,0.883l-0.031-0.052l-0.055-0.219l0.037,0.188
		l-0.043-0.064l-0.111-0.478l0.071,0.412l-0.192-0.316l-0.146-0.661l-0.095-0.472l0.043,0.066l0.083,0.378l-0.069-0.354
		c0.238,0.411,0.456,0.813,0.729,1.235c0.295,0.129,0.433,1.308,0.86,0.601l-1.027-3.286c-0.157-0.525-0.382-1.048-0.585-1.572
		c0.295,0.452,0.579,0.888,0.803,1.27c0.087-0.1,0.136-0.236,0.176-0.376c0.603,0.785,0.398,0.419,0.037-0.175
		c0.092-0.601-0.115-1.443-0.453-2.323c0.034,0.024,0.06,0.03,0.089,0.044c0.104,0.365,0.154,0.469,0.114,0.063
		c0.715,0.32,0.568-0.417,0.247-1.377c0.201,0.334,0.379,0.675,0.591,1.012c0.129,0.118,0.229,0.189,0.336,0.271
		c0.025-0.254,0.071-0.518,0.109-0.782c-0.586-1.061-1.538-2.923-2.29-4.324l-0.046-0.258c-0.525-0.65-0.126-1.593-1.171-2.099
		l0.055-1.402l-0.924,0.031l0.924-0.255c0.169-1.596,1.282-3.039,2.413-4.446c0.028-0.041,0.058-0.082,0.086-0.112l0.315,0.049
		l0.511,0.085l0.138-0.181l0.25-0.324l-0.872-0.07c0.028-0.031,0.058-0.072,0.086-0.105h0.043l-0.04-0.007
		c0.061-0.077,0.12-0.154,0.184-0.234l0.752,0.105c0.637-1.474,1.732-3.911,4.16-6.248l0.967-0.437
		c0.66-0.254,1.104-0.773,1.317-1.461c1.016-0.667,1.962-1.578,3.236-2.02l0.367,0.253l0.437,0.157l-0.434-0.31l-0.336-0.112
		l2.734-1.172l-0.597-1.044l-0.441-0.776c0.224,0.2,0.441,0.455,0.662,0.688c0.278,0.291,0.554,0.601,0.827,0.943l0.129-0.057
		l0.936,0.034l0.699,0.477l-0.335-0.472h0.105l0.465-0.088l0.589,0.521l-0.299-0.602l1.294-0.565
		c1.143-0.342,2.315-0.129,3.415-0.129l0.955,0.176l0.841,0.129c0.111-0.092,0.227-0.175,0.342-0.204
		c0.307-0.035,0.585,0.129,0.834,0.382l1.017,0.159c0.766,0.267,1.518,0.477,2.188,0.735l0.066-1.107l0.215,1.173
		c5.229,1.138,8.967,3.829,11.199,5.62l0.68-0.978c0.106,0.112,0.213,0.23,0.318,0.348l-0.657,0.872l0.046,0.028l0.259,0.178
		l0.184-0.247l0.419-0.554c0.055,0.063,0.106,0.112,0.16,0.175l-0.264,0.335l-0.321,0.409l0.115,0.081l0.508-0.535l0.114-0.124
		c0.029,0.034,0.058,0.063,0.086,0.094l-0.197,0.029c0.714,0.634,1.302,1.402,1.695,2.138c0.804,0.676,1.349,1.96,0.878,3.346
		c0.012,0.411-0.16,0.911-0.353,1.366c-0.124,1.432,0.358,3.417,1.05,5.4c0.769,0.489,1.483,0.915,1.991,1.478l1.406-1.336
		l-1.091,1.66l0.425,0.512l0.034,0.149l1.042-1.189l-0.901,1.696c0.181,0.442,0.13,0.801,0.032,1.195
		c0.757,0.982,0.573,1.756,0.542,2.414l0.72,0.107l1.312,0.112l-0.93,0.088l-1.116-0.296c0.066,0.343-2.751,2.504-2.726,5.332
		c1.269,1.208,1.937,2.007,1.575,2.956c-0.281,0.459-0.691,0.755-1.107,0.949c-0.104,2.162-3.056,3.294-5.176,4.63
		c-0.225-0.543-0.228-1.037,0.126-1.415l0.987-0.747c0.45-1.656,0.588-3.165,0.61-4.464l1.384-0.538l-0.043-0.595l-1.344,0.737
		c0-0.012-0.002-0.018-0.002-0.029l0.476-0.275l-0.476,0.229v-0.036l0.699-0.383l-0.699,0.326c0-0.079-0.003-0.159-0.003-0.236
		l0.545-0.291l0.771-0.4c-0.138-0.937-0.2-2.144-0.617-3.503l-0.132-0.09l-0.086-1.707l-0.095,0.225l0.081-0.484
		c0.135-0.706,0.022-0.941-0.158-0.977c0.012-0.072,0.028-0.129,0.04-0.207c-0.043,0.063-0.04,0.141-0.074,0.207
		c-0.141-0.011-0.308,0.074-0.465,0.21c-0.141-0.759-0.241-1.566-0.201-2.432l0.018-0.859c-0.184,0.057-0.321,0.129-0.442,0.217
		h-0.063l-0.035,0.098c-0.232,0.219-0.347,0.491-0.401,0.807v-0.088l-0.184,0.213l0.187-0.529l0.015-0.784
		c-0.396-0.501,0.396-2.993-0.804-2.084l-0.034,0.046l-0.184,0.14c0.014,0.207-0.146,0.719-0.302,1.216
		c-0.043-0.296-0.061-0.606-0.04-0.903l0.104-0.905c-0.095,0.17-0.178,0.311-0.259,0.445c0.232-0.624,0.321-0.96-0.27,0.095
		c-0.065,0.061-0.083,0.241-0.08,0.46c-1.165,1.667-0.361-1.684-0.872-2.786l-0.144,0.205l-0.124,0.154
		c-0.011,0.682-0.037,1.524,0.195,2.504l0.124,0.365c0.089,0.058,0.083,0.176,0.063,0.305c-0.166-0.129-0.353-0.241-0.527-0.359
		l-0.063,0.178l-0.086-0.02l0.034-0.236c-0.046-0.029-0.089-0.063-0.132-0.093l-0.031,0.282l-0.228-0.071l0.049-0.351
		c-0.057-0.031-0.105-0.072-0.163-0.107c0.536-0.532,0.49-1.963,0.792-2.463l0.058-0.083l-0.049,0.061
		c0.008-0.011,0.011-0.029,0.017-0.035l-0.398,0.216l-0.52,1.544l0.161-0.153l-0.21,0.337c0.04-0.408,0.026-0.886-0.169-1.236
		c-0.184-0.785-0.195-1.662-0.184-2.541c-0.238-0.216,0.373-0.495-0.201-0.671c-0.235,0-0.31,0.046-0.313,0.101
		c-0.023-0.008-0.034-0.02-0.061-0.025c0.161-0.013-0.092-0.131,0.321-0.093c-0.086-0.02-0.192-0.043-0.33-0.061l-0.585,2.745
		l-0.072,0.653l-0.413-2.443l-0.068,0.225l-0.152,0.23l0.092-0.285l0.124-0.198c0.002-0.46-0.075-0.713-0.187-0.854V37.12
		l-0.018,0.006c-0.015-0.019-0.031-0.019-0.046-0.03l0.077-0.083c-0.6-0.165-0.648,0.014-0.582,0.261
		c-0.25,0.311-0.428,0.848-0.241,1.343c0.112,0.505,0.092,1.101-0.086,1.638l-0.037,0.104c0.129,0.025,0.252,0.066,0.378,0.1
		c0.109-0.365,0.213-0.776,0.299-1.177l0.244,1.374c0.172,0.077,0.347,0.146,0.505,0.247l0.327,0.428l-0.095-0.316l0.361,0.187
		c0.158-0.293,0.241-0.619,0.12-0.828l0.006-0.549l0.187-0.554c0.063,0.779,0.146,1.509,0.256,2.216l0.605,0.305l-0.049,0.766
		c-0.78-0.359-1.819-0.718-3.045-0.991l-0.008,0.055l-0.006-0.06c-0.672-0.153-1.403-0.271-2.195-0.351l0.086,2.279
		c-0.2-0.702-0.422-1.492-0.646-2.334c-0.763-0.058-1.569-0.083-2.436-0.046l-0.333-0.33l0.135,0.341l-1.971,0.076l-0.89-0.21
		l-0.522,0.276l-2.568,0.152l-2.8,0.06l-0.632-0.779l-0.126,0.013l0.27,0.761h-1.007l0.055,0.282l-0.135-0.282h-0.293l-0.161-0.253
		l0.049,0.253c-2.332-0.154-4.369-0.7-6.045-1.408c-0.259-0.079-0.502-0.164-0.743-0.26l0.006-0.048l-0.035-0.018l-0.74-0.535
		l-0.218-0.048c0.023,0.1,0.046,0.178,0.069,0.267c-0.21-0.101-0.405-0.206-0.6-0.318c0.057-0.024,0.111-0.049,0.169-0.107v-0.011
		c-0.706-0.449-1.323-0.86-1.808-1.19l0.031-0.319l0.021-0.377c0.477,0.213,1.081,0.518,1.756,0.842
		c0.006-0.181,0.012-0.359,0.022-0.546c0.043,0.199,0.084,0.4,0.121,0.612c0.373,0.181,0.771,0.348,1.202,0.535
		c-0.04-0.854-0.08-1.701-0.135-2.509c0.203,0.814,0.425,1.615,0.527,2.352c0.035,0.141,0.066,0.23,0.098,0.359
		c0.204,0.077,0.394,0.157,0.608,0.236c-0.407-1.59-0.936-3.806-1.271-5.655c-0.015-0.066-0.032-0.143-0.043-0.217
		c-0.063-0.049-0.095-0.035-0.149-0.067c-0.015-0.198-0.029-0.41-0.046-0.606c-0.049,0.178-0.026,0.377-0.046,0.562
		c-0.229-0.079-0.348,0.077-0.373,0.434c-0.083,1.037,0.459,3.453,0.298,4.625c-0.31-1.366-0.829-3.021-0.72-4.375
		c-0.006-0.077-0.021-0.118-0.031-0.184c-0.104-0.765-0.376-0.836-0.552-0.549c-0.054-0.069-0.089-0.147-0.151-0.21l0.068,0.377
		c-0.046,0.129-0.06,0.305-0.058,0.483c0.003,0.217,0.038,0.453,0.141,0.708l0.101-0.162l0.023,0.359l-0.095,0.472l0.037,1.066
		l-0.009,0.229l0.149-0.371l0.006,0.09l-0.213,1.048l-0.27-0.149c-0.071-0.293-0.149-0.584-0.235-0.866l-0.008,0.018L94.8,35.984
		l0.172,0.028c-0.003,0-0.003-0.005-0.003-0.005l-0.376-0.077l0.176-0.17l0.146,0.06c-0.189-0.595-0.396-1.066-0.589-1.25
		l0.009-0.146c-0.055-0.005-0.098,0.017-0.135,0.063c-0.117-0.03-0.227,0.118-0.315,0.442l-0.061,0.395
		c0.083,0.425,0.104,0.831,0.144,1.244l0.25-0.258V36.3c0,0,0,0.003,0.003,0.009l0.267-0.279l0.187,0.049l0.224,0.052
		c-0.207,0.302-0.508,0.713-0.847,1.155c0.009,0.118,0.023,0.242,0.029,0.354c-0.018,0.018-0.032,0.035-0.052,0.052
		c-0.023-0.063-0.043-0.118-0.066-0.181l-0.006,0.142l-0.114-0.084c-0.382,0.5-0.815,1.056-1.312,1.679l-0.04,0.024l-0.031,0.042
		c0.034,0.052,0.08,0.106,0.111,0.164l-0.046,0.035c-0.031,0.042-0.063,0.1-0.095,0.14c0.009-0.109,0.023-0.222,0.023-0.359
		l-0.391,0.219c-0.031,0.425-0.114,0.637-0.296,0.437c-0.011,0.041-0.002,0.088-0.011,0.14c0.083,0.084,0.166,0.165,0.24,0.189
		c-0.289,0.441-0.576,0.907-0.852,1.415c-0.006-0.025-0.012-0.055-0.018-0.077l-0.27,0.494c0.006,0.035,0.015,0.066,0.021,0.101
		c-0.118,0.236-0.235,0.472-0.348,0.713c-0.02-0.03-0.037-0.061-0.058-0.09l-0.252,0.477c0.025,0.046,0.055,0.077,0.08,0.124
		c-0.158,0.365-0.31,0.741-0.453,1.132c0.055-0.219,0.095-0.46,0.098-0.744l-0.181,0.278l-0.278,0.112
		c0.006,0.017,0.006,0.029,0.008,0.046l0.182-0.006L89.649,44.3l-0.068,0.229l-0.388,0.112l0.355,0.035l-0.028,0.477
		c0.063-0.052,0.101-0.135,0.149-0.21v-0.006c0.025-0.037,0.057-0.06,0.077-0.106l-0.382,1.078l1.122,0.118l-0.061,0.153
		l-1.199,0.118l-0.465,2.115c0.034-0.167,0.018-0.419-0.04-0.724c-0.117,0.4-0.098,0.817-0.086,1.201l-0.023,0.192
		c0.046-0.069,0.058-0.236,0.018-0.445c0.061-0.032,0.101-0.095,0.126-0.184l-0.043,0.184c-0.043,0.241-0.089,0.474-0.132,0.71
		l-0.129,1.054c-0.012,0.142-0.043,0.279-0.037,0.427l0.398,0.494c0.021,0.275-0.157,0.511-0.436,0.741l-0.032,1.728l0.603-0.132
		l-0.588,0.308c0.201,2.133,0.688,3.912,1.214,5.318l-0.018,0.011L90,61.353l2.97-1.301c-0.408,0.335-0.887,0.695-1.406,1.065
		l-0.006-0.042l-0.066,0.042l-0.852,0.547l0.034,0.066l0.08-0.043c-0.151,0.106-0.289,0.206-0.447,0.313l-0.055-0.371l-0.404-0.23
		l0.247,1.59L90.453,63l-0.015-0.093c0.327,1.096,0.764,2.186,1.183,3.297c0.625,1.236,1.21,2.47,1.982,3.576
		c0.046,0,0.08,0.011,0.123,0.011c-0.353,0.241-0.711,0.483-1.013,0.82l0.893,0.324h-1.237c-1.543,1.271-2.711,3.095-3.99,5.138
		c-0.055,1.146-0.276,2.212-0.743,3.217l-0.018,0.006l0.009,0.011c-0.009,0.022-0.015,0.045-0.026,0.067l-0.052-0.056
		c-1.42,0.427-3.153,1.056-5.155,1.897l-0.468,0.834c-0.597,0.367-1.326,0.485-2.175,0.356c-3.984,1.931-8.982,4.918-13.011,9.902
		l1.012,0.573l-1.173-0.365l-1.973,2.673l4.614,1.83c-1.525-0.197-3.312-0.517-5.2-0.84c-1.094,1.917-2.178,3.899-2.859,5.937
		l-2.08,5.519c0.443,0.539,0.667,1.045,0.644,1.493c-0.104,0.719-0.706,1.229-1.563,1.634l-0.517,2.14l0.088-4.683l-1.531,0.5
		c0.003,0,0.003-0.006,0.003-0.006l1.528-1.336c0.032-1.162,0.062-2.273,0.095-3.41l0.267-0.615
		c0.044-2.712,0.027-5.282-0.026-7.736c0.284-9.504,0.511-17.476,0.427-23.285c1.055,0.253,2.173,0.509,3.413,0.773
		c1.205-0.225,2.43-0.241,3.588,0.388l1.052,0.527l3.928,0.69c0.571-0.292,1.144-0.454,1.707-0.466l0.053-1.589l0.303,1.601
		l0.556,0.09l0.112,0.078l-0.042-1.313l0.42,1.555l0.944,0.702l1.061,0.163c5.018-4.389,1.328-1.853,2.411-3.1l-0.287-2.065
		l-0.543,0.364l-1.076,0.432l0.726-0.478l0.887-0.365l-0.837-4.435c-1.178-0.48-1.785-1.19-1.548-2.052l0.648-1.377
		c-1.225-3.895-2.691-6.979-4.374-8.437l-0.614,0.779l-0.57,0.624c0.361,0.713,0.706,1.65,0.989,2.857l0.479,0.318
		c0.188,0.359,0.177,0.771-0.053,1.237c0.557,2.455,1.126,5.472,1.581,8.887l0.687-0.192l-0.668,0.334l0.222,1.785l2.877-0.912
		c-0.707,0.501-1.618,0.984-2.621,1.449l-2.266-0.33c-0.278,0.324-0.566,0.529-0.842,0.555c-0.444-0.012-0.807-0.336-1.112-0.826
		l-2.748-0.352l0.028,0.982l-0.312-1.006c-3.044-0.365-5.732-0.615-8.021-0.768c0.154-0.045-0.027-0.094-0.196-0.146l-0.003-0.147
		c0.049-0.006,0.096-0.011,0.169-0.017l0.762-0.96c-0.209-0.365-0.303-0.661-0.241-0.851c0.146-0.276,0.559-0.315,1.094-0.233
		l1.172-1.549l-0.902-0.538l1.012,0.376c2.161-2.914,3.79-5.445,4.612-7.153l-1.745-0.979c0.082-0.076,0.181-0.124,0.272-0.187
		l1.59,0.922l0.101-0.216l-1.22-0.684l-0.269-0.164c0.045-0.025,0.081-0.061,0.13-0.088l1.407,0.807l0.036-0.083l-0.822-0.532
		l-0.424-0.253c0.203-0.081,0.405-0.158,0.651-0.187l1.097-0.23c1.054-0.562,1.766-1.516,2.668-2.345
		c-0.027-0.647,0.059-1.179,0.297-1.602l-1.284-0.872l-0.344-0.23l0.387,0.188l1.405,0.661l0.311-0.359l0.115-0.043l-1.383-0.782
		h-0.003h0.003l1.762,0.623l1.053-0.359c0.673-1.06,1.425-2.066,1.933-3.132l-0.737-0.096l-1.324-0.417l0.99,0.159l1.09,0.319
		l1.444-3.599c-0.967-0.974-1.31-1.767-0.648-2.25l1.357-0.655c0.449-1.837,0.508-3.469,0.446-4.857l0.855-0.331l-0.045-0.595
		l-0.844,0.46c-0.003-0.041-0.006-0.072-0.009-0.112l0.21-0.112l-0.21,0.101c-0.008-0.09-0.011-0.178-0.017-0.266l0.067-0.031
		l0.773-0.4c-0.042-0.27-0.081-0.601-0.115-0.908l0.976-1.472l-0.532,0.024l0.626-0.26c0.332-0.965,0.876-2.088,1.107-3.357
		c-0.191-0.894-0.234-1.759,0.194-2.633l0.348-0.804l0.014-2.918l-0.549-1.147l-1.152,0.228l1.11-0.477l-0.062-0.406l0.026-0.088
		l-0.911,0.267l1-0.578l0.276-0.801l-0.557-3.069l-0.35,0.307l-0.752,0.395l0.502-0.4l0.589-0.332l-1.194-3.155
		c-0.895-0.191-1.324-0.63-1.419-1.231l0.109-1.078c-0.306-0.538-0.661-0.974-1.018-1.402l0.128-0.159L75.47,9.732l-0.082,0.112
		l-0.041,0.058c-0.056-0.063-0.104-0.135-0.159-0.189l0.142-0.181L75.1,9.218L74.918,9.46c-0.121-0.124-0.241-0.228-0.365-0.34
		l0.232-0.337l-1.71-2.143l-0.297,0.818l0.033-1.133c-1.32-0.999-2.71-2.455-4.658-3.396c-1.521-0.147-2.832-0.619-4.175-1.403
		L62.75,0.779C61.231,0.319,59.574,0.167,57.895,0c-0.662,0.414-1.312,0.689-1.969,0.791l0.205,1.426l0.054,0.365l-0.141-0.365
		l-0.541-1.379l-0.67,0.036l-0.148-0.055l0.373,1.432l0.005,0.006L55.058,2.25l-0.887-1.6l-1.328-0.518
		c-1.798,0.158-3.429,0.842-5.035,1.342l0.544,0.518l0.707,1.089l-0.693-0.695l-0.611-0.894c-1.803,0.664-3.65,1.023-5.044,2.238
		c-0.098,1.512-0.585,2.403-1.66,2.55l-1.883,0.011c-2.762,2.857-4.184,5.708-4.875,7.899c-0.382,0.634-0.743,1.358-1.184,2.077
		c-0.177,0.992-0.339,1.921-0.935,2.764l-0.54,0.766c-0.376,0.923-0.58,2.056-0.771,3.228c0.235,0.477,0.367,0.935,0.376,1.388
		l1.3-0.111l-1.309,0.396l-0.026,0.446l-0.05,0.094l1.043-0.192l-1.192,0.512l-0.447,0.807l0.092,3.346l0.454-0.255l0.88-0.276
		l-0.608,0.331l-0.726,0.236c-0.003,1.235,0.343,2.515,0.552,3.687c0.873,0.4,1.513,0.889,1.428,1.613l-0.285,1.248
		c1.689,2.888,3.444,4.696,4.872,5.708l0.025-0.052c0.198,0.471,0.395,0.888,0.583,1.242l1.099-0.678l-0.221-1.331l-0.367,0.272
		l0.335-0.466c-0.159-0.791-0.379-1.679-0.367-2.693c-0.327-0.612-0.532-1.308-0.341-2.027l0.182-0.646l0.162-2.251l-0.409-0.96
		l-0.98,0.006l0.983-0.212l0.065-0.317l0.053-0.066l-0.822,0.035l0.981-0.252l0.449-0.529l0.499-2.339l-0.398,0.066l-0.718-0.006
		l0.535-0.095l0.59,0.011l0.747-2.46c-0.453-0.589-0.474-1.149-0.041-1.468l0.811-0.4c0.209-0.488,0.414-0.949,0.619-1.379
		c0.118,0.101,0.196,0.219,0.333,0.313l0.19-0.747l0.115,1.006c1.184,1.115,2.994,1.962,4.938,2.463
		c1.411-0.09,2.691-0.23,4.049,0.293l1.226,0.384l4.267-0.09c0.526-0.425,1.062-0.724,1.622-0.853l-0.314-1.621l0.673,1.555
		l0.579-0.028l0.126,0.052l-0.332-1.326l0.767,1.486l1.073,0.535l4.071,0.066l-0.214-0.612l-0.188-1.161l0.311,0.818l0.136,0.96
		c1.415,0.181,2.741,0.428,3.846,0.935c1.074-0.853,1.997-0.601,2.345,0.173c0.14,0.453,0.282,0.825,0.179,1.391
		c1.534,1.377,2.474,3.021,3.19,4.515l-0.154,0.342l0.303-0.041l0.093,0.205l-0.481,0.043l-0.006,0.017l0.49-0.058l0.018,0.035
		l-0.522,0.051c-0.144,0.372-0.294,0.797-0.44,1.25c-0.12,0.383-0.244,0.776-0.364,1.207l0.346,0.44
		c0.003,0.324-0.256,0.609-0.688,0.831c-0.808,1.862-1.349,4.236-2.683,6.522l0.82,0.286l-0.87-0.187l-0.593,1.236l2.347,0.836
		l1.061,0.376c-0.352-0.041-0.755-0.118-1.147-0.189c-0.776-0.146-1.59-0.334-2.47-0.587l-1.559,2.303l-1.552,1.997
		c0.226,0.411,0.32,0.747,0.25,0.952c-0.18,0.279-0.633,0.272-1.196,0.094c-0.426,0.537-0.884,1.009-1.419,1.349l0.855,0.839
		l-1.006-0.713c-2.562,2.409-5.37,3.234-7.271,3.927c-0.124,0.042-0.257,0.088-0.37,0.135l0.059,0.25l0.222,0.96l0.277,1.176
		l2.083,0.066l-0.414-0.79c0.208,0.14,0.451,0.425,0.729,0.79c1.068-0.011,2.192-0.419,3.44-0.808
		c-0.653,0.601-1.352,1.28-2.098,2.043c-0.174,0.891-0.538,1.68-1.467,2.056l-0.805,0.365l-1.584,1.796l-0.866-0.905l-0.321,0.56
		l-0.74,0.949l0.429-0.751l0.611-0.782l-2.246-2.222c-1.186,0.414-1.92,0.285-1.97-0.422l0.156-1.273
		c-0.52-0.477-1.023-0.919-1.505-1.331c2.148,0.223,3.861,0.27,4.866,0.157L54.8,58.248l-0.021-0.129l-0.035-0.284l-0.043-0.389
		l-0.771-0.305l-0.864-0.336l-0.297,0.21c-0.22-0.011-0.398-0.192-0.535-0.488c-1.346-0.187-2.7-1.053-4.169-2.044l-0.258,0.508
		l0.193-0.549l-0.787-0.466l-0.811,1.544l-0.2,0.376h-0.006l-0.059,0.084c0.003-0.018,0.009-0.035,0.015-0.043l0.033-0.052
		l-0.019-0.006c0.035-0.14,0.089-0.288,0.132-0.425c0.165-0.518,0.367-1.064,0.636-1.642c-0.586-0.236-1.018-0.678-1.396-1.207
		l-1.135-1.284l-0.676,0.083c-0.179-0.138-0.144-0.431,0.021-0.785l-0.946-0.977l-0.614,0.494l0.512-0.59
		c-0.938-1.437-1.673-2.797-2.337-3.892c-0.334-0.543-0.657-1.043-0.968-1.408l-0.433,0.23l-0.308,0.163l-0.739,0.394l0.294,1.245
		l0.474-0.354l-0.42,0.535l0.799,2.54c0.582,0.434,0.925,0.977,0.976,1.748l0.171,0.65l1.475,1.826l1.065,0.316l0.563-0.601
		l0.334-0.359l-0.282,0.408l-0.452,0.675l0.208,0.244l0.011,0.085l0.558-0.694l0.118-0.153l-0.098,0.173l-0.527,0.96l0.087,0.782
		c0.508,0.702,1.169,1.201,1.939,1.521l0.129-0.472l0.385-0.814l-0.183,0.619l-0.309,0.678h0.003l-0.279,0.313l0.182,0.37l0.4-0.526
		l0.224,0.112l-0.512,0.636L46.5,59.49l0.491,0.03c0.228,0.195,0.281,0.537,0.208,0.971c1.11,1.509,2.532,3.283,4.178,5.179
		l0.521-0.543l-0.456,0.625l0.871,0.985l2.083-2.362c-0.439,0.796-1.062,1.725-1.775,2.71l1.821,1.989l0.182,0.197
		c-0.022,0-0.059-0.007-0.084-0.007l0.008,0.107c-0.132,0.005-0.249,0.011-0.384,0.017l-0.006-0.116l-0.339,0.005l0.009,0.124
		h-0.009l-0.18,0.152l-0.017-0.27l-0.124,0.005l-0.005,0.393l-0.127,0.112c-0.426,0.095-0.869-0.022-1.316-0.293
		c-2.718,0.194-6.009,0.512-9.637,0.955l0.19,0.693l-0.344-0.675l-1.896,0.247l0.988,2.857c-0.56-0.742-1.111-1.705-1.661-2.774
		l-2.493,0.354c-0.204-0.201-0.353-0.403-0.376-0.604c0.009-0.439,0.343-0.793,0.845-1.095l0.403-2.674h-1.022l1.052-0.271
		c0.778-4.984,1.811-9.024,2.892-11.125l-1.995-0.768c-0.556,0.56-1.055,1.256-1.442,2.058l0.77,0.024l-0.948,0.299
		c-0.367,0.606-0.673,1.279-0.97,1.986l-0.3-0.219l-0.042,0.017l0.336,0.213c-0.016,0.035-0.033,0.061-0.045,0.096l-0.379-0.274
		c-1.783,0.779-4.066,1.558-6.567,2.94l-0.749,0.872c-0.769,0.525-1.64,0.842-2.576,1.008c-5.192,2.797-10.557,8.371-13.833,15.63
		l0.771,0.129l-0.891,0.169l-1.458,3.807l3.098,0.045l1.777-4.021l1.385-0.222c0.046-0.098,0.084-0.204,0.132-0.3l-1.129-0.202
		l1.354-1.926l0.541-0.006L17.4,76.596c0.253-0.421,0.556-0.764,0.832-1.151c0.129-1.173,0.646-2.279,1.48-3.077
		c0.048,0.058,0.264,0.005,0.724-0.224c0.347-0.125,0.692-0.29,1.04-0.472c0.951-0.896,1.889-1.684,2.787-2.435
		c1.458-1.372,2.96-2.556,4.429-3.585c0.533-0.123,0.569,0.099,0.247,0.518c0.246-0.135,0.493-0.276,0.723-0.406
		c-0.068-0.261-0.269-0.379-0.547-0.392c2.318-1.594,4.515-2.836,6.331-3.914c-0.014,0.046-0.028,0.087-0.047,0.129
		c0.114,1.259,0.059,2.49-0.688,3.634l-0.575,1.061l-0.765,4.004c0.306,0.571,0.502,1.149,0.529,1.715h1.517l0.022,0.023
		l-1.536,0.342l-0.076,0.568l-0.074,0.117l1.367-0.112c0.364,0.888-2.813-1.205,0.211,2.089l1.138,0.398l4.254-0.662l-0.385-0.539
		l-0.477-1.066l0.513,0.719l0.393,0.881l4.527-0.792c0.524-1.173,1.302-1.719,2.176-1.426l1.359,0.747
		c2.81-0.574,5.174-1.129,7.019-1.641l0.209,0.058l-0.849,0.325c-0.079,0.565-0.162,1.213-0.241,1.819l-0.811,0.325l-0.138,1.707
		l0.743-0.466c-0.039,0.297-0.078,0.628-0.115,0.938l-0.685,0.359l-0.007,0.062l0.688-0.41c-0.006,0.062-0.016,0.124-0.021,0.186
		l-0.676,0.359c-0.16,2.498-0.289,5.58-0.393,9.117c-0.27,2.604-0.544,5.372-0.813,8.303c0.132,1.066,0.205,2.145,0.247,3.228
		c-0.121,2.038-0.25,4.172-0.39,6.378c-0.07,0.433-0.114,0.864-0.205,1.303c-0.081,1.156-0.358,2.273-0.679,3.385
		c-0.185,3.879-0.37,7.933-0.532,12.099c0.104,0.291,0.157,0.595,0.241,0.887l-0.285,5.125l1.887-0.561l-0.825,0.538l-0.05,1.314
		c-0.379,0.235-0.732,0.482-1.125,0.713l-0.221,4.199l-0.073,0.241l-0.039,1.213l-8.142,0.017l0.693,0.342l0.714,0.651l-0.919-0.454
		l-0.592-0.539c-3.698,0.011-7.268,0.033-10.673,0.067c-1.619,0.629-3.6,0.876-5.495,0.629l-2.854-0.539
		c-0.194,0-0.373,0.006-0.565,0.006c0.024-0.18,0.044-0.332,0.071-0.517l-0.142-0.578c0.021-0.483,0.165-0.943,0.395-1.37
		c0.367-2.998,0.76-6.642,1.145-10.684l-0.419,0.062l0.438-0.229l0.191-2.117l-1.77,0.461l1.837-1.207l0.37-4.34l0.313-3.997
		l-0.331-0.87c0.009-0.5,0.205-0.949,0.496-1.358l0.211-3.133l-0.584,0.168l0.603-0.482c0.376-5.855,0.578-10.714,0.578-13.715
		l-1.23,0.455l-0.376,2.588l0.438-0.286l-0.487,0.668c-0.208,1.571-0.427,3.368-0.645,5.355c0.131,1.319,0.14,2.689-0.239,4.07
		l-0.316,1.252l-0.416,4.496l0.273,1.854l0.952-0.152l-0.955,0.556l-0.06,0.635l-0.044,0.135l0.784-0.225l-0.928,0.68l-0.423,1.15
		l-0.37,4.772l0.367-0.31l0.676-0.286l-0.488,0.404l-0.561,0.235l-0.348,5.093c0.564,0.819,0.731,1.785,0.415,2.666l-0.65,1.319
		c-0.141,2.616-0.23,4.884-0.281,6.805c-5.668,0.084-10.577,0.185-14.491,0.309c0.127-1.286,0.253-2.684,0.379-4.239l-0.774,0.557
		c0.163-0.433,0.457-0.859,0.833-1.28c0.191-2.937,0.524-6.282,0.841-9.965c-0.264-2.437-0.484-5.014,0.345-7.54l0.657-2.29
		l0.062-0.5l-0.051,0.006l0.011-0.151l0.062-0.017l0.031-0.23l-0.082,0.022l0.021-0.404l0.112-0.022l0.062-0.466l-0.146,0.039
		c0.264-2.335,0.385-5.737,0.831-9.903l-1.725,0.09l1.808-0.78c0.046-0.448,0.102-0.903,0.16-1.375l-1.197,0.18l1.265-0.69
		c0.092-0.674,0.186-1.364,0.297-2.071l0.679-0.455l-0.631,0.118c0.109-1.095,0.393-2.207,0.734-3.335
		c0.396-0.388,0.698-0.819,0.816-1.353l-0.144-1.006c0.155-0.685,0.373-1.33,0.617-1.976l-0.309,0.045l0.347-0.157
		c0.253-0.651,0.54-1.303,0.849-1.987l0.092-0.202c-1.061,0.455-2.254,0.825-3.547,1.15c-0.984,2.544-2.038,5.143-2.48,7.933
		l-1.579,7.467c0.297,0.545,0.435,1.111,0.407,1.679c-0.043,0.943-0.435,1.763-0.999,2.51l-0.588,5.892l1.099-0.295l-1.145,0.893
		c-0.784,10.116-0.649,18.555-0.386,24.19c-1.04,0.039-2.019,0.079-2.86,0.118l0.628,0.545l0.479,0.477
		c0.566,0.022,1.175,0.045,1.812,0.073c0.003,0.073,0.009,0.168,0.013,0.241l0.543-0.225c1.628,0.057,3.447,0.112,5.478,0.163
		l1.181-0.191c1.008-0.017,1.989,0.09,2.918,0.281c2.056,0.039,4.301,0.078,6.628,0.112c-0.003,0.601-0.006,1.165,0.003,1.642
		l0.573-0.255l0.494-0.191c0.059-0.354,0.123-0.769,0.185-1.179c4.483,0.057,9.346,0.106,14.579,0.141l-0.199-0.41l0.552,0.416
		l4.441,0.022l-1.248-1.724l2.817,1.729l7.11,0.015v0.008v0.006c2.697,0.051-5.392-0.101,4.551,0.09v0.017l0.4-0.011
		c0.458,0.005,0.898,0.017,1.433,0.027v-0.005l0.003-0.051v-0.006c1.476,0.106,3.083,0.219,4.816,0.326l1.349-0.281
		c1.152-0.006,2.257,0.208,3.306,0.562c7.16,0.449,15.868,0.729,25.528,0.87l-0.224-0.701l0.623,0.713l5.053,0.078l-0.999-2.1
		c0.207-0.006,0.394-0.011,0.597-0.02c0.761,0.654,1.495,1.361,2.187,2.147l10.358,0.033l9.534-0.112
		c0.605-0.37,1.283-0.623,2-0.701c1.186-0.062,2.29,0.196,3.317,0.623l7.466-0.135l-0.525-0.966l1.276,0.927
		c6.976-0.281,13.349-0.578,18.863-0.888c2.699-1.319,5.423,2.302,7.472-3.076C158.859,132.511,158.305,131.208,157.659,130.085
		 M84.453,55.521c-0.02,0.017-0.04,0.005-0.061,0.028l0.066-0.1L84.453,55.521z M85.71,56.286l0.04,0.094l-0.017-0.022l0.028,0.201
		l-0.031,0.252l-0.041-0.264l0.029-0.212C85.725,56.322,85.707,56.303,85.71,56.286 M86.603,57.576l-0.021-0.022l0.035-0.035
		L86.603,57.576z M86.195,49.295c-0.743-0.779-0.87-1.972-1.57-2.74c-0.017-0.039-0.034-0.074-0.046-0.106
		c0.023-0.365,0.049-0.73,0.049-1.078c0.81,1.42,1.538,3.116,2.101,4.849C86.474,49.8,86.227,49.396,86.195,49.295 M86.301,45.877
		l-0.02,0.403l-0.115-0.661C86.209,45.702,86.255,45.785,86.301,45.877 M84.508,41.772l0.006-0.135l0.557,1.409
		c0.12,0.341,0.264,0.736,0.444,1.218l-0.108-0.419c0.031,0.083,0.071,0.162,0.105,0.244l0.046,0.288
		c0.158,0.293,0.459,1.5,0.724,2.573c-0.52-0.894-1.263-2.644-1.679-3.167c0-0.083-0.006-0.178-0.006-0.266
		c-0.355-0.189-0.594-0.407-0.669-0.643C83.862,42.479,84.106,42.109,84.508,41.772 M83.716,50.732
		c0.313-0.836,0.542-2.026,0.752-3.233l0.875,2.073c0.401,0.796,1.001,2.738,1.409,3.945c-0.844-1.29-1.559-3.179-2.184-3.604
		c-0.092-0.075-0.184-0.118-0.278-0.077c0.003,0,0.003,0.002,0.006,0.008c-0.009,0-0.021-0.008-0.029-0.008
		c0.706,1.549,1.334,2.912,1.883,4.101l-0.141-0.229l0.003,0.201l-0.112-0.379c-0.594-0.383-0.958-2.231-1.997-1.667l0.89,2.052
		l0.218,0.67l0.557,1.354c-0.496-0.681-2.034-1.535-1.271-0.31l0.743,1.229l0.169,0.73c0.037,0.067,0.063,0.118,0.098,0.185
		c-1.449-1.426-2.565-2.893-2.115-4.919l-0.674-0.011l0.697-0.1l0.324-1.45l-2.832-0.212C81.562,50.878,82.6,50.778,83.716,50.732
		 M85.34,56.429c-0.028-0.06-0.058-0.132-0.086-0.189l0.063-0.175L85.34,56.429z M121.76,41.037l-0.009-0.095l0.141-0.034
		L121.76,41.037z M94.501,36.018l0.006-0.011l0.127,0.041L94.501,36.018z M95.29,37.254l0.164,0.072l-0.003,0.035l-0.152-0.068
		C95.296,37.28,95.293,37.263,95.29,37.254 M95.336,37.473c-0.008-0.052-0.022-0.106-0.034-0.164l0.146,0.072l-0.009,0.135
		L95.336,37.473z M95.457,37.298l-0.003,0.017l-0.166-0.066c0-0.006-0.003-0.011-0.003-0.024L95.457,37.298z M94.723,35.996
		l0.238,0.046l-0.018,0.02L94.723,35.996z M73.054,25.895c-0.211-0.201-0.446-0.384-0.676-0.577c0.057-0.019,0.066,0,0.137-0.03
		c-0.003-0.06,0.107-0.365,0.25-0.724c0.047,0.428,0.157,0.928,0.297,1.316C73.059,25.883,73.059,25.889,73.054,25.895
		 M73.799,24.222c0.006,0.035,0.006,0.069,0.011,0.106l-0.185,0.086L73.799,24.222z M73.785,25.639l-0.12,0.025l0.15-0.135
		l0.124-0.477c0.053,0.304,0.09,0.589,0.044,0.771l0.115,1.218c-0.177-0.212-0.378-0.428-0.571-0.634
		C73.628,26.328,73.718,26.13,73.785,25.639 M75.011,27.962c0.033,0.195,0.08,0.393,0.128,0.583
		c-0.072-0.118-0.134-0.234-0.213-0.353L75.011,27.962z M75.955,29.692c-0.039,0.643,0.108,1.331,0.19,1.902l-0.076-0.051
		c-0.235-0.403-0.255-0.88-0.142-1.431c-0.037-0.101-0.1-0.213-0.146-0.32C75.84,29.798,75.898,29.764,75.955,29.692 M75.094,10.79
		l-0.199,0.031l0.113-0.124C75.038,10.733,75.063,10.755,75.094,10.79 M74.592,10.868l-0.315,0.043l0.417-0.56
		c0.054,0.063,0.106,0.118,0.162,0.181L74.592,10.868z M36.17,25.61l0.047,0.392c-0.03-0.02-0.056-0.038-0.089-0.044L36.17,25.61z
		 M34.192,22.425l0.167-0.75l1.163,2.521l0.08-0.463l0.136,1.118l0.297,0.977c-0.424-0.801-1.105-1.92-1.679-2.756l-0.006-0.041
		c-0.085-0.217-0.158-0.384-0.229-0.554C34.151,22.46,34.162,22.437,34.192,22.425 M33.84,28.185l-0.006-0.755l0.082,0.167
		c0.244,0.371,0.582,1.275,0.878,2.066C34.465,29.14,34.148,28.58,33.84,28.185 M34.415,30.546l-0.099-0.299
		c-0.283-0.14-0.433-0.595-0.679-0.919c0.073-0.024,0.138-0.058,0.208-0.082c0.252,0.466,0.487,0.899,0.709,1.308l-0.143-0.184
		L34.415,30.546z M33.969,23.725c0.003,0.009,0.003,0.014,0.006,0.02c-0.25-0.173-0.409-0.365-0.432-0.555
		c0-0.083,0.062-0.159,0.101-0.236C33.728,23.167,33.837,23.426,33.969,23.725 M33.411,31.325l0.272-0.118l0.024,0.052
		L33.411,31.325z M34.213,32.503l-0.021-0.208l0.003-0.017l0.046,0.088L34.213,32.503z M34.03,30.664
		c0.012,0.02,0.029,0.037,0.045,0.061L34,30.831L34.03,30.664z M33.828,25.924c0-0.136,0.003-0.271,0.006-0.4
		c0.391,0.664,0.74,1.36,1.049,2.107c-0.147-0.201-0.271-0.388-0.303-0.483C34.219,26.86,34.045,26.36,33.828,25.924 M34.603,25.417
		c-0.19-0.431-0.429-0.897-0.659-1.213c0.02-0.132,0.025-0.273,0.052-0.397c0.098,0.285,0.212,0.567,0.332,0.842
		C34.434,24.946,34.524,25.206,34.603,25.417 M31.527,30.288c0.406-0.242,0.896-0.466,1.413-0.688l0.162,0.316L31.527,30.288z
		 M36.029,37.603c0.037,0.206,0.056,0.442,0.093,0.637C36.043,38.05,36.008,37.844,36.029,37.603 M41.572,19.58l-0.009,0.212
		l-0.011-0.005L41.572,19.58z M71.318,24.786l0.035-0.236c-0.047-0.035-0.092-0.063-0.132-0.092l-0.033,0.282l-0.227-0.072
		l0.045-0.348c-0.053-0.035-0.104-0.074-0.156-0.109c0.532-0.538,0.492-1.963,0.79-2.463l0.059-0.083l-0.048,0.06
		c0.008-0.012,0.011-0.029,0.017-0.035l-0.403,0.216l-0.517,1.542l0.158-0.151l-0.211,0.342c0.042-0.408,0.026-0.886-0.171-1.239
		c-0.182-0.788-0.19-1.665-0.179-2.544c-0.235-0.212,0.373-0.488-0.2-0.675c-0.237,0.006-0.308,0.052-0.313,0.104
		c-0.024-0.006-0.036-0.017-0.059-0.024c0.162-0.017-0.106-0.129,0.334-0.088c-0.088-0.022-0.202-0.052-0.343-0.069l-0.589,2.745
		l-0.07,0.658l-0.417-2.443l-0.064,0.218l-0.152,0.236l0.091-0.289l0.123-0.2c0.003-0.453-0.073-0.713-0.186-0.848v-0.043
		l-0.017,0.006c-0.015-0.011-0.033-0.011-0.048-0.022l0.079-0.083c-0.598-0.17-0.648,0.011-0.581,0.261
		c-0.249,0.304-0.429,0.848-0.241,1.336c0.112,0.512,0.091,1.102-0.092,1.642l-0.034,0.107c0.129,0.025,0.253,0.066,0.379,0.1
		c0.112-0.371,0.215-0.776,0.3-1.185l0.244,1.386c0.173,0.075,0.347,0.141,0.505,0.242l0.325,0.434l-0.093-0.316l0.358,0.181
		c0.161-0.293,0.247-0.625,0.123-0.831l0.006-0.552l0.188-0.556c0.062,0.779,0.144,1.516,0.249,2.222l0.608,0.304l-0.05,0.768
		c-0.779-0.359-1.819-0.713-3.045-0.991l-0.008,0.055l-0.006-0.061c-0.67-0.153-1.401-0.271-2.195-0.348l0.089,2.279
		c-0.203-0.71-0.42-1.5-0.646-2.337c-0.764-0.055-1.571-0.084-2.437-0.046l-0.331-0.33l0.135,0.341l-1.972,0.076l-0.891-0.211
		l-0.522,0.277l-2.567,0.151l-2.801,0.055l-0.628-0.773l-0.127,0.011l0.268,0.762h-1.005l0.054,0.282l-0.135-0.282h-0.292
		l-0.162-0.25l0.051,0.25c-2.324-0.156-4.36-0.702-6.033-1.402c-0.264-0.084-0.516-0.167-0.76-0.265l0.006-0.055
		c-0.012-0.005-0.023-0.005-0.032-0.011l-0.741-0.54l-0.22-0.043c0.021,0.095,0.048,0.178,0.07,0.271
		c-0.211-0.104-0.403-0.21-0.597-0.315c0.056-0.03,0.112-0.055,0.168-0.112v-0.011c-0.706-0.455-1.326-0.86-1.808-1.196l0.033-0.314
		l0.017-0.376c0.477,0.213,1.085,0.518,1.758,0.836c0.006-0.176,0.015-0.354,0.025-0.535c0.036,0.198,0.078,0.394,0.115,0.606
		c0.373,0.176,0.773,0.348,1.202,0.529c-0.042-0.848-0.079-1.695-0.135-2.498c0.202,0.808,0.426,1.61,0.527,2.347
		c0.036,0.134,0.065,0.229,0.098,0.352c0.202,0.087,0.394,0.164,0.608,0.241c-0.409-1.586-0.934-3.805-1.272-5.653
		c-0.012-0.066-0.028-0.144-0.041-0.219c-0.065-0.048-0.094-0.031-0.149-0.066c-0.015-0.198-0.03-0.411-0.048-0.606
		c-0.047,0.178-0.022,0.376-0.047,0.567c-0.226-0.084-0.34,0.08-0.37,0.428c-0.085,1.032,0.462,3.446,0.297,4.619
		c-0.312-1.366-0.825-3.022-0.716-4.372c-0.008-0.08-0.021-0.118-0.03-0.181c-0.104-0.765-0.373-0.836-0.553-0.549
		c-0.053-0.068-0.087-0.147-0.151-0.21l0.07,0.376c-0.045,0.13-0.063,0.306-0.06,0.484c0.003,0.218,0.035,0.459,0.141,0.712
		l0.101-0.16l0.023,0.354L42.938,17l0.035,1.065l-0.005,0.225l0.146-0.365l0.006,0.083l-0.211,1.05l-0.27-0.143
		c-0.071-0.299-0.153-0.595-0.235-0.877l-0.012,0.017l-0.162-0.046l0.174,0.03c-0.003-0.006-0.003-0.006-0.003-0.011l-0.379-0.079
		l0.176-0.168l0.15,0.069c-0.19-0.601-0.4-1.072-0.594-1.253l0.009-0.153c-0.054-0.006-0.097,0.023-0.136,0.068
		c-0.117-0.022-0.227,0.118-0.313,0.449l-0.059,0.382c0.081,0.425,0.103,0.836,0.14,1.25l0.247-0.255l0.003-0.022
		c0,0.005,0.003,0.011,0.003,0.017l0.269-0.276l0.188,0.049l0.224,0.052c-0.209,0.302-0.512,0.713-0.843,1.155
		c0.005,0.124,0.017,0.241,0.022,0.359c-0.015,0.018-0.028,0.029-0.047,0.046c-0.023-0.063-0.046-0.118-0.067-0.181l-0.006,0.135
		l-0.118-0.083c-0.382,0.505-0.813,1.061-1.31,1.684l-0.036,0.017l-0.034,0.049c0.031,0.052,0.079,0.109,0.115,0.165l-0.048,0.034
		c-0.033,0.043-0.062,0.095-0.095,0.142c0.012-0.112,0.024-0.222,0.024-0.365l-0.392,0.217c-0.031,0.425-0.115,0.644-0.297,0.438
		c-0.012,0.045-0.006,0.094-0.015,0.14c0.089,0.088,0.171,0.165,0.244,0.195c-0.158,0.247-0.32,0.506-0.482,0.776
		c-0.008-0.034-0.017-0.071-0.022-0.106l-0.277,0.512c0.006,0.025,0.014,0.061,0.019,0.083c-0.003,0.005-0.005,0.012-0.008,0.012
		l-0.033-0.057l-0.132,0.241c0.014,0.011,0.028,0.017,0.04,0.028c-0.475,0.889-0.929,1.874-1.313,2.952l0.429,0.087h-0.458
		l-0.392,1.098l1.839,0.205l-1.977,0.189l-0.514,2.342c-0.044,0.25-0.095,0.497-0.142,0.75l-0.115,0.938
		c-0.014,0.164-0.046,0.334-0.04,0.5l0.396,0.496c0.02,0.275-0.155,0.511-0.438,0.741l-0.033,1.73l0.605-0.135l-0.587,0.307
		c0.05,0.529,0.138,1.006,0.217,1.495c-0.494-0.905-0.945-1.785-1.305-2.745c0.062,0.003,0.149-0.041,0.335-0.282
		c-0.161-0.181-0.338-0.577-0.52-1.017l0.499,0.606c0.073-0.025,0.109-0.047,0.165-0.077c0.006-0.005,0.009,0,0.018-0.005
		c0.008-0.282,0.017-0.595,0.022-0.949c-0.104-0.135-0.193-0.27-0.163-0.4l-0.25-0.264l-0.153-0.543l-0.429-0.859
		c0.273,0.365,0.54,0.64,0.729,0.628l0.053-0.189l0.106,0.195l-0.042,0.118l0.104,0.107l0.021-0.072l0.053,0.094l-0.012,0.038
		l0.015,0.022c0-0.06,0.009-0.124,0.012-0.184l-0.009-0.17l0.017-0.042l-0.02-0.03l-0.006-0.118l-0.505-1.006l0.141,0.642
		l-0.023-0.034l-0.041-0.159l0.022,0.135l-0.034-0.043l-0.077-0.341l0.041,0.296l-0.165-0.213l-0.096-0.472l-0.053-0.316
		l0.041,0.063l0.04,0.219l-0.031-0.202l0.522,0.792c0.142,0.069,0.193,0.253,0.273,0.399c0.026-0.335,0.067-0.684,0.112-1.049
		l-0.415-1.153c-0.095-0.264-0.227-0.514-0.335-0.772c0.123,0.166,0.232,0.318,0.327,0.464c0.099-0.045,0.157-0.112,0.219-0.187
		c0.012,0.029,0.027,0.058,0.039,0.087c0.376,0.258,0.275,0.055,0.056-0.265c0.132-0.365,0-0.911-0.268-1.5
		c0.644,0.383,0.688,0.107,0.509-0.414c0.018,0.006,0.031,0.024,0.05,0.03c0.241,0.212,0.43,0.348,0.596,0.453l0.376-1.278
		c-0.04-0.115-0.088-0.233-0.132-0.351c0.077,0.046,0.165,0.063,0.269,0.052L37,24.668l-0.175-0.693
		c0.113,0.153,0.229,0.288,0.346,0.371l0.21-0.39l0.261-0.052c0.021-0.057,0.045-0.106,0.056-0.175l-0.173-0.02l0.205-0.359
		c0-0.159,0.005-0.312-0.015-0.483c0.053,0.077,0.106,0.154,0.159,0.229l0.059-0.1l0.186-0.011l-0.153-0.046
		c0.038-0.072,0.089-0.124,0.123-0.195c-0.794-0.935-0.737-2.857-1.884-3.18c0.438,1.289,0.79,2.651,1.025,4.053
		c-0.353-0.902-1.083-2.38-1.564-3.003c-0.216-0.437-0.3-0.472-0.295-0.279c-0.132-0.052-0.193,0.107-0.145,0.567l0.706,2.032
		c-0.25-0.506-0.578-1-0.99-1.319c-0.089-0.276-0.206-0.501-0.465-0.466l0.159-0.696l-0.793-0.069l0.841-0.138
		c0.328-1.331,0.746-2.466,1.184-3.516l-0.253-0.017l0.109-0.252l0.267-0.029c0.003-0.006,0.006-0.014,0.012-0.025l-0.272,0.037
		l0.017-0.037l0.259-0.011c0.006-0.013,0.009-0.024,0.014-0.035l-0.27,0.028l0.023-0.05h0.257c0.022-0.049,0.046-0.106,0.07-0.156
		l-0.263,0.014c0.633-1.468,1.731-3.978,4.214-6.369l0.967-0.441c0.661-0.252,1.107-0.772,1.322-1.459
		c1.01-0.667,1.96-1.58,3.235-2.021l0.364,0.254l0.44,0.157l-0.435-0.31l-0.336-0.112l2.73-1.172l-0.597-1.044L47.303,2.9
		c0.222,0.199,0.44,0.452,0.664,0.688c0.275,0.291,0.552,0.595,0.822,0.937l0.132-0.058l0.938,0.041l0.702,0.477l-0.342-0.477
		l0.106,0.006l0.471-0.094l0.587,0.525l-0.299-0.606l1.293-0.565c1.139-0.337,2.318-0.124,3.416-0.124l0.955,0.175l0.838,0.129
		c0.111-0.093,0.225-0.176,0.34-0.205c0.309-0.031,0.585,0.13,0.835,0.383l1.021,0.157c0.769,0.271,1.515,0.477,2.185,0.737
		l0.07-1.107l0.212,1.167c5.227,1.147,8.967,3.829,11.2,5.625l0.679-0.979c0.106,0.112,0.211,0.23,0.317,0.348l-0.656,0.866
		l0.045,0.034l-0.426,0.061c0.781,1.483,1.842,3.079,2.324,5.235l0.467-0.21l-0.438,0.305l0.385,1.173l1.945-0.886
		c-0.477,0.455-1.073,0.875-1.827,1.308l0.39,2.529c0.137,0.793,0.291,1.566,0.271,2.342c0.27,0.14,0.449,0.302,0.505,0.483
		c0.047,0.296-0.146,0.583-0.459,0.842l0.077,1.857l0.71-0.088l-0.722,0.275c-0.123,1.964-0.306,3.735-0.576,5.192l-0.064-1.284
		l-0.091,0.223l0.082-0.483c0.132-0.713,0.02-0.942-0.159-0.977c0.016-0.071,0.03-0.126,0.041-0.206
		c-0.044,0.063-0.041,0.14-0.075,0.203c-0.143-0.005-0.306,0.078-0.462,0.212c-0.144-0.758-0.247-1.572-0.203-2.436l0.012-0.86
		c-0.179,0.058-0.322,0.136-0.44,0.219c-0.02,0-0.039,0-0.059,0.006L75.008,26.1c-0.233,0.217-0.349,0.5-0.404,0.807v-0.083
		l-0.183,0.217l0.186-0.535l0.014-0.784c-0.396-0.5,0.395-2.98-0.799-2.083l-0.038,0.045l-0.186,0.142
		c0.013,0.207-0.146,0.719-0.303,1.216c-0.043-0.291-0.059-0.598-0.037-0.897l0.102-0.902c-0.093,0.167-0.175,0.307-0.258,0.442
		c0.232-0.623,0.327-0.966-0.27,0.095c-0.067,0.063-0.087,0.242-0.082,0.46c-1.165,1.655-0.356-1.673-0.868-2.786l-0.144,0.203
		l-0.12,0.156c-0.015,0.681-0.039,1.522,0.19,2.506l0.123,0.362c0.09,0.052,0.084,0.175,0.063,0.304
		c-0.165-0.129-0.354-0.241-0.525-0.365l-0.064,0.184L71.318,24.786z M69.324,22.926l-0.134,0.129l-0.009-0.095L69.324,22.926z
		 M42.371,18.088l-0.219-0.074l0.238,0.05L42.371,18.088z M42.871,19.54l-0.1-0.043c-0.011-0.052-0.027-0.105-0.038-0.163
		l0.15,0.074L42.871,19.54z M42.884,19.384l-0.153-0.069c-0.003-0.011-0.006-0.025-0.006-0.037l0.162,0.072L42.884,19.384z
		 M42.887,19.339l-0.162-0.066c-0.003-0.006-0.006-0.013-0.006-0.024l0.171,0.072L42.887,19.339z M41.937,18.031l0.124,0.034
		l-0.13-0.028L41.937,18.031z M63.186,58.43c0.029-0.024,0.053-0.058,0.08-0.082l0.382,0.165l-0.479-0.077
		C63.174,58.436,63.18,58.436,63.186,58.43 M49.318,58.148c-0.33-0.271-0.645-0.529-0.947-0.759
		c0.353-0.118,0.626-0.049,0.788,0.277L49.318,58.148z M46.125,56.05l-0.022,0.037c0.003-0.006,0.006-0.011,0.006-0.022
		L46.125,56.05z M122.244,76.281c0.376,0.28,0.514,0.707,0.296,1.325c0.936,2.711,2.304,5.737,2.714,9.734l0.798-0.247l-0.771,0.404
		l0.381,1.998l3.314-1.066c-0.826,0.623-1.979,1.224-3.251,1.808l0.318,3.178c-0.187,0.141-0.373,0.235-0.554,0.25
		c-0.52-0.015-0.938-0.396-1.294-0.963l-3.202-0.421l0.034,1.14l-0.358-1.174c-3.771-0.466-7.142-0.797-9.904-0.982
		c-0.029-0.096-1.016-0.208-0.098-0.28l0.789-1.022c-0.224-0.381-0.327-0.695-0.267-0.897c0.151-0.292,0.579-0.337,1.147-0.259
		l1.214-1.639l-0.956-0.562l1.067,0.387c2.106-2.919,3.696-5.445,4.579-7.241l0.256-0.018l0.028-0.045l-0.071,0.006l-0.192,0.012
		c0.006-0.012,0.015-0.028,0.023-0.04l0.267-0.017l0.037-0.062l-0.275,0.017c0.015-0.022,0.031-0.056,0.043-0.078l0.278-0.022
		l0.198-0.416l-0.281,0.028l0.009-0.022l0.295-0.067l0.281-0.858c-0.221-0.225-0.321-0.455-0.04-0.663l0.227-0.19l0.112-0.719
		l-0.399-0.331l-0.927-0.063l0.907-0.005l0.012-0.107l0.037-0.017l-0.761-0.033l0.872-0.028l0.336-0.151l0.052-0.814l-0.342,0.022
		l-0.648-0.011l0.454-0.022l0.539,0.005l0.009-0.875c-0.5-0.152-0.729-0.286-0.666-0.41l0.08-0.028
		c0.052-0.022,0.084-0.072,0.132-0.101l0.417-0.146c0.554,0.792,1.222,1.69,2.028,2.661L122.244,76.281z M103.152,126.823
		l-0.101-0.427l0.345-0.477l0.789-2.745l-0.141,2.279c0.089,0.274,0.141,0.556,0.209,0.83l-0.247,3.049l-0.536-1.117l-0.068-0.314
		l-1.295,1.325C102.337,128.446,102.713,127.638,103.152,126.823 M105.218,83.231c-1.248,0.421-2.02,0.274-2.063-0.472l0.181-1.336
		c-1.733-1.617-3.257-2.892-4.456-3.75l0.025-0.163c-0.332-0.281-0.51-0.578-0.181-0.909l0.265-0.304l0.006-1.021
		c-0.305-0.112-0.508-0.236-0.592-0.37l-1.228,0.146l1.188-0.23l-0.003-0.095c3.923,2.745,8.267,2.952,11.127,2.234l1.656-0.028
		l-0.287-0.427l0.034-0.017l0.554,0.427c1.229-0.057,2.505-0.669,3.994-1.117c0.646-0.472,1.162-1.095,1.882-1.477l-0.02,0.078
		l0.41,0.022l-0.416,0.006l-0.052,0.337l1.716,0.067l-1.733,0.051l-0.074,0.698l-0.043,0.688l0.388,0.186
		c0.022,0.084-0.141,0.146-0.399,0.196l-0.003,0.539l0.568,0.006l-0.563,0.051c0.003,0.174,0.026,0.309,0.034,0.472l-0.144,0.106
		l0.121,0.067l0.04,0.022c0.003,0.062,0.003,0.123,0.012,0.18l-0.305-0.174l-0.2,0.157l0.527,0.297
		c0.015,0.129,0.032,0.259,0.052,0.376l-0.85-0.466l-1.308,1.134l0.751,0.32l-0.938-0.146c-0.767,0.707-1.61,1.549-2.508,2.492
		c-0.17,0.943-0.543,1.774-1.518,2.179l-0.841,0.398l-1.604,1.869l-0.847-0.909l-0.347,0.589L106.44,87.2l0.462-0.786l0.654-0.813
		L105.218,83.231z M98.266,74.664l-0.866,0.124l0.786-0.18C98.211,74.625,98.24,74.642,98.266,74.664 M118.491,79.11l0.015,0.012
		l-0.083,0.006L118.491,79.11z M104.099,129.523l1.054-0.286l-0.485,0.309l-0.049,0.865c-0.014-0.022-0.034-0.045-0.049-0.067
		l-1.704,1.369l1.242-2.172L104.099,129.523z M109.025,88.969l0.508,0.331l-0.671-0.306
		C108.92,88.985,108.966,88.979,109.025,88.969 M108.317,117.128l-0.54,0.163c0.003-0.039,0.021-0.078,0.026-0.118l0.476-0.398
		C108.291,116.893,108.303,117.011,108.317,117.128 M107.949,89.154l0.62,0.364C108.053,89.429,107.149,89.345,107.949,89.154
		 M108.263,129.642c0.178-2.953,0.361-5.85,0.527-8.611c-0.108-0.157-0.178-0.331-0.272-0.494l0.063-1.695
		c0.869,2.768,1.492,5.687,1.334,8.791l0.009,0.376c-0.204,0.236-0.41,0.472-0.439,0.304L108.263,129.642z M104.811,116.011
		l-1.004,0.214l1.084-0.578L104.811,116.011z M127.704,46.521c-0.068-0.118-0.132-0.23-0.206-0.348l0.08-0.235
		C127.612,46.139,127.658,46.338,127.704,46.521 M128.522,47.668c-0.037,0.649,0.111,1.328,0.192,1.903l-0.075-0.052
		c-0.235-0.4-0.255-0.877-0.144-1.426c-0.04-0.107-0.1-0.219-0.146-0.319C128.407,47.775,128.468,47.74,128.522,47.668
		 M126.364,42.205c0.003,0.034,0.006,0.069,0.012,0.1l-0.184,0.093L126.364,42.205z M126.358,43.612l-0.123,0.035l0.149-0.142
		l0.12-0.471c0.055,0.306,0.092,0.589,0.046,0.771l0.115,1.214c-0.175-0.213-0.373-0.424-0.568-0.63
		C126.198,44.311,126.293,44.112,126.358,43.612 M125.085,43.27c-0.003-0.06,0.109-0.37,0.25-0.729
		c0.046,0.428,0.157,0.929,0.298,1.319c-0.003,0.005-0.006,0.011-0.006,0.017c-0.209-0.201-0.447-0.387-0.677-0.583
		C125.005,43.282,125.013,43.299,125.085,43.27 M94.14,37.556l-0.009,0.219l-0.011-0.012L94.14,37.556z M89.765,44.805
		c0.014-0.035,0.046-0.041,0.057-0.08l0.394,0.08H89.765z M93.399,60.987l0.904-0.497c-0.497-1.46-0.694-2.955-0.99-4.347
		c-1.217-0.541-1.744-1.408-1.352-2.244c0.21-0.446,0.594-0.854,1.005-1.237c-0.201-3.999,0.267-7.214,0.794-9.1l-1.041-0.157
		l-0.605-0.09c0-0.022,0.006-0.034,0.009-0.058l0.324,0.041l-0.321-0.052c0.017-0.095,0.046-0.189,0.101-0.273l1.595,0.23
		l0.058-0.354l-1.045-0.299l0.385-0.189c0.207-0.488,0.413-0.949,0.62-1.382c0.117,0.104,0.195,0.222,0.33,0.315l0.192-0.747
		l0.114,1.006c1.185,1.114,2.992,1.962,4.938,2.463c1.411-0.09,2.693-0.23,4.048,0.293l1.226,0.385l4.27-0.088
		c0.521-0.425,1.059-0.719,1.618-0.855l-0.313-1.621l0.674,1.555l0.577-0.028l0.129,0.052l-0.333-1.319l0.766,1.479l1.073,0.54
		l4.072,0.067l-0.213-0.619l-0.192-1.155l0.313,0.82l0.135,0.954c1.417,0.181,2.739,0.428,3.845,0.931
		c1.078-0.851,2-0.595,2.347,0.181c0.141,0.455,0.281,0.819,0.178,1.385c1.73,1.549,2.709,3.45,3.455,5.065l-0.132,0.022
		l-0.003,0.017l0.138-0.028l0.017,0.035l-0.169,0.025c-0.028,0.093-0.058,0.216-0.086,0.316c-0.178,0.625-0.361,1.349-0.551,2.196
		l0.218,0.419c-0.012,0.33-0.195,0.629-0.493,0.877c-0.735,1.92-1.223,4.366-2.557,6.739l0.557,0.17l-0.605-0.066l-0.597,1.279
		l1.618,0.471l0.711,0.208l-0.78-0.073l-1.762-0.157l-1.601,2.397l-1.621,2.066l0.028,0.773c-0.201,0.276-0.576,0.348-1.021,0.304
		c-0.453,0.549-0.938,1.033-1.506,1.379l0.613,0.535l-0.774-0.405c-1.636,1.472-3.371,2.325-4.933,2.893l-0.138-0.247l-0.246,0.011
		l0.065,0.118l0.112,0.188c-0.063,0.025-0.138,0.06-0.204,0.082l-0.194-0.376l-0.345,0.017l0.241,0.455
		c-0.141,0.045-0.275,0.09-0.41,0.129l-0.29-0.551c-0.318,0.012-0.654,0.063-1.002,0.096c-0.404,0.039-0.826,0.062-1.273-0.028
		l0.336,0.741c-0.224-0.146-0.456-0.421-0.666-0.769c-0.941-0.022-1.945-0.259-2.961-0.59c-0.437-0.141-0.872-0.258-1.312-0.449
		c-1.136,0.017-2.364-0.354-2.973-1.509l-0.567-0.94c-0.807-0.891-1.67-1.785-2.354-2.923c-0.625-0.181-1.208-0.448-1.529-0.911
		l-1.214,0.883l0.121-0.207l0.884-0.967l-0.259-0.505l0.003-0.135l-1.084,0.818c-0.003-0.006-0.006-0.011-0.009-0.011l0.927-1.083
		l0.152-0.178c-0.015-0.376-0.052-0.735,0.095-1.161c-0.511-1.314-1.065-2.584-1.39-3.903l-0.536,0.448l-1.087,0.618L93.399,60.987z
		 M95.609,72.295l0.16,0.165c-0.003,0.129-0.015,0.246-0.018,0.379l0.362-0.031l0.011,0.011l-0.373,0.061l0.003,0.483l0.807-0.107
		l0.098,0.102c-0.293,0.056-0.585,0.118-0.904,0.174l0.044,0.974l0.071,0.862c0.29,0.033,0.482,0.084,0.542,0.146
		c0.049,0.107-0.154,0.22-0.487,0.337l0.098,0.668l0.749-0.084l-0.732,0.151c0.21,1.252,0.531,2.297,0.898,2.947l0.313-0.027
		c0.021,0.03,0.034,0.062,0.055,0.095l-0.313,0.022l0.049,0.085l0.315-0.028c0.009,0.017,0.02,0.033,0.031,0.051l-0.315,0.022
		l0.021,0.033l0.321-0.017c0.189,0.309,0.39,0.629,0.619,0.971l0.52,0.04c0.244,0.207,0.29,0.566,0.207,1.021
		c1.147,1.605,2.619,3.492,4.323,5.513l0.554-0.567l-0.484,0.651l0.9,1.05l2.227-2.459c-0.47,0.831-1.142,1.803-1.907,2.83
		l1.888,2.116l0.198,0.213c-0.109,0.003-0.232,0.012-0.345,0.018l-0.003-0.063l-0.393,0.006l0.005,0.073
		c-0.077,0-0.148,0-0.227,0.006l-0.006-0.067h-0.146l-0.003,0.072c-0.224,0.012-0.416,0.018-0.651,0.028l-0.563,0.488
		c-0.525,0.124-1.079-0.022-1.633-0.359c-3.377,0.253-7.457,0.669-11.965,1.235l0.244,0.859l-0.431-0.837l-1.208,0.157l0.018-0.146
		l0.576-4.217c-0.413-0.342-0.665-0.695-0.694-1.027c0.032-0.533,0.471-0.954,1.105-1.285l0.705-3.194l-1.26-0.106l1.326-0.214
		C91.988,78.033,93.764,74.529,95.609,72.295 M88.838,95.554l0.017-0.157l0.373,1.066c-0.141-0.185-0.281-0.426-0.422-0.634
		L88.838,95.554z M60.855,117.465l0.717-0.482l-0.67,0.123c0.115-1.156,0.379-2.335,0.746-3.531c0.415-0.409,0.731-0.87,0.853-1.431
		l-0.165-1.067c0.285-1.243,0.726-2.402,1.244-3.604l-1.32-0.287l1.432,0.012c0.067-0.151,0.116-0.292,0.188-0.449l0.308-0.719
		l-0.873-0.151c0.3-0.045,0.639-0.067,0.976-0.09l1.581-3.666l2.462-0.443l-2.083-0.343l1.41-2.055l0.567-0.011l-0.456-0.146
		c0.118-0.202,0.262-0.359,0.382-0.55l-0.937-0.247l1.063,0.067c1.614-2.504,3.574-4.463,5.452-6.131
		c-0.036-1.234,0.584-2.06,1.627-2.29c0.423-0.067,0.852-0.096,1.292-0.084c0.432-0.129,0.844-0.295,1.199-0.551l0.418-0.527
		c1.475-0.876,2.742-1.611,3.77-2.173l0.086,0.051c0.018-0.011,0.032-0.022,0.049-0.033l-0.083-0.045l0.023-0.012l0.074,0.045
		c0.092-0.067,0.184-0.135,0.275-0.196l-0.034-0.017l0.235-0.124c0.924-0.651,1.799-1.252,2.628-1.813
		c-0.192,0.78-0.364,1.578-0.522,2.386c0.354,0.741,0.537,1.466,0.574,2.179l2.058,0.051l-2.061,0.398l-0.106,0.701l-0.095,0.141
		l1.699-0.084l-2.006,0.572l-0.887,1.224l-0.27,2.689l-0.061,0.662l-0.012,0.079v0.006v0.005c0.445,0.41,5.426,4.98,2.996,2.746
		h0.012l0.02-0.006l0.04-0.006l0.164-0.028l0.327-0.05l1.294-0.22l-0.482-0.662l-0.597-1.325l0.64,0.888l0.497,1.095l5.615-1
		c0.643-1.465,1.606-2.145,2.69-1.779l1.69,0.915c1.667-0.343,3.171-0.68,4.585-1.016l-0.232,0.64l2.404-0.696l0.063-0.482
		c0.388-0.096,0.709-0.191,1.064-0.287l-0.055,0.814l0.933-0.617l-0.092,0.286l-0.155,0.106l0.146-0.078l-0.2,0.623l-0.675,0.376
		c-0.031,0.623-0.058,1.308-0.083,2.026c-0.224,0.707-0.447,1.415-0.675,2.139c-0.616-0.415-1.199-0.813-1.325-1.111
		c0.706,1.269,0.651-2.285,0.93-2.891l-1.392,0.37l-1.188,0.258c0.218,1.629-2.146,1.18,0.103,4.896l1.803,1.897
		c-0.5,1.611-0.999,3.217-1.51,4.89l0.973,0.045l-1.09,0.326l-1.412,4.671l3.879-0.236c-0.005,0.045-0.011,0.09-0.017,0.141
		c-1.294,0.696-2.77,1.269-4.361,1.746l-2.838,9.6c0.585,6.484,2.401,6.687,3.581,9.909l-3.507,0.005l0.66,0.494
		c-0.144,0-0.281-0.006-0.428-0.011l-0.35-0.483c-4.195-0.011-8.243-0.011-12.105,0.012c-0.126,0.073-0.275,0.118-0.407,0.186
		c-0.858-0.012-1.725-0.028-2.62-0.04c-1.775,0.157-3.62,0.214-5.491,0.191l-0.955-0.286h-0.091l0.314-2.49l-0.455,0.312
		l0.502-0.719c0.191-1.673,0.388-3.593,0.584-5.709c-0.163-1.403-0.199-2.866,0.177-4.34l0.314-1.342l0.358-4.794l-0.323-1.926
		c0.265-0.825,1.075-1.774,0.458-2.425l0.201-0.584c-0.589-0.034-1.054-0.012-1.44,0.033c-0.054-0.011-0.097-0.022-0.155-0.033
		c0.062-0.141,0.076-0.264,0.012-0.365c-0.045,0.118-0.098,0.225-0.148,0.334c-0.046-0.003-0.11-0.009-0.16-0.014
		c0.003-0.04-0.021-0.063-0.027-0.096c-0.009,0.022-0.031,0.056-0.043,0.084c-0.183-0.028-0.364-0.051-0.583-0.073l-0.035,0.562
		c-0.29,0.23-0.402,0.533-0.422,0.87c-0.039,0.04-0.059,0.067-0.098,0.112c-1.623,2.504-3.628,4.688-5.789,6.726
		c-2.532,1.797-4.935,3.762-7.244,5.842c-0.065,0.059-0.109,0.098-0.171,0.154c-0.054,0.388-0.112,0.786-0.164,1.156
		c0.791-0.478,1.78-1.229,2.513-2.043c1.786-1.595,3.731-3.071,5.481-4.789c1.665-1.117,3.361-2.049,5.115-2.7l-0.032,0.253
		c-0.284,0.409-0.664,0.897-1.184,1.471c-2.936,1.701-5.557,3.795-7.884,6.091c-3.213,2.937-3.986,3.901-3.473,3.778
		c-0.413,0.449-0.088,0.264,0.616-0.292c1.967-1.117,7.188-5.075,9.557-7.275c0.601-0.488,1.077-1.101,1.527-1.74
		c0.25-0.135,0.446-0.225,0.62-0.292l-0.188,1.465c-0.271,0.343-0.6,0.735-0.973,1.162c-0.829,0.527-1.604,1.044-1.945,1.168
		c-2.436,2.01-4.724,4.193-6.837,6.579c-1.643,1.387-3.575,3.784-3.312,3.891c0.765-0.837,2.691-2.784,6.309-6.315
		c1.398-1.174,2.548-2.105,3.515-2.869c-2.061,2.139-4.527,4.536-6.529,6.423c3.05-2.571,7.087-5.361,9.322-8.508
		c0.351-0.223,0.591-0.352,0.776-0.43c0.059,0.196,0.109,0.387,0.129,0.584c-0.652,1.061-2.56,3.25-4.583,5.468
		c-2.58,2.178-5.016,4.643-7.475,7.163c1.561,0.067,6.146-4.912,8.817-7.641c0.035-0.033,0.059-0.073,0.095-0.106
		c0.939-0.69,1.68-1.313,2.111-1.589c-0.056,0.494-0.101,0.954-0.152,1.426c-0.095,0.196-0.162,0.349-0.282,0.59
		c-0.799,1.348-1.739,2.588-2.733,3.778c-0.845,0.825-1.677,1.673-2.459,2.588l-1.251,1.387c-1.634-0.012-3.291-0.017-4.975-0.022
		l-0.935,0.098c-0.951,0.015-1.867,0.031-2.744,0.043c0.276-0.972,0.555-2.055,0.85-3.245l-1.201,0.28
		c0.27-0.292,0.737-0.562,1.318-0.809C59.815,127.458,60.033,122.899,60.855,117.465 M75.57,112.587
		c0.12,0.721,0.299,1.471-0.204,1.925l0.365-0.264l-0.012,0.186l-0.358,0.135l-0.149,1.168c-1.303,0.033-2.686,1.15-3.936,1.706
		l2.542-2.414C74.342,114.17,74.982,113.4,75.57,112.587 M71.826,134.464h-0.015c0.443-0.853,1.144-2.223,1.693-3.497
		c-0.051,0.617-0.098,1.19-0.138,1.74c-0.451,0.601-0.889,1.19-1.338,1.757H71.826z M73.345,132.954
		c-0.037,0.567-0.064,1.044-0.09,1.516c-0.3,0-0.614-0.006-0.911-0.006C72.694,133.959,73.02,133.454,73.345,132.954
		 M75.044,131.618c-0.012,1.055-0.015,2.016-0.006,2.857H74.45C74.632,133.661,74.833,132.695,75.044,131.618 M76.075,115.506
		l-0.177,0.039l0.152-0.09L76.075,115.506z M74.959,122.821l-0.691,1.218l-0.811,0.567c0.541-0.641,1.063-1.309,1.561-1.993
		C74.993,122.681,74.988,122.754,74.959,122.821 M73.78,128.008c-0.194,0.079-0.43,0.214-0.749,0.466
		c0.303-0.443,0.582-0.909,0.844-1.381C73.842,127.401,73.813,127.711,73.78,128.008 M72.613,129.389
		c0.26-0.319,0.737-0.713,1.138-1.077c-0.033,0.337-0.059,0.646-0.092,0.966l-0.352,0.938c-0.423,1.459-1.255,2.829-1.654,4.244
		c-1.237-0.012-2.509-0.018-3.787-0.022c0.023-0.028,0.046-0.057,0.073-0.079c-0.03,0.022-0.059,0.051-0.085,0.079
		c-0.021,0-0.038,0-0.059-0.006c1.072-1.027,2.062-2.173,3.117-3.2c0.22-0.258,0.43-0.539,0.646-0.803
		C71.912,130.08,72.255,129.715,72.613,129.389 M66.6,124.129c1.255-1.185,2.521-2.24,3.899-3.194
		c0.581-0.404,1.099-0.758,1.568-1.072c-1.557,1.51-3.424,3.127-5.191,4.373c0.464-0.466,0.91-0.938,1.302-1.392L66.6,124.129z
		 M65.342,132.409C64.52,133.257,64.349,133.426,65.342,132.409 M58.719,115.287l-0.903,0.19c0.003-0.078,0.006-0.157,0.006-0.235
		L58.719,115.287z M57.544,67.518l-0.682-0.318c0.06-0.005,0.101-0.017,0.165-0.022L57.544,67.518z M56.622,67.714
		c-0.488-0.084-1.323-0.167-0.592-0.359L56.622,67.714z M56.801,71.37c0.015-0.005,0.029-0.013,0.048-0.013l0.02,0.035l-0.062,0.02
		L56.801,71.37z M138.499,134.739c-0.299,0.011-0.6,0.017-0.896,0.017l0.218-0.135l-0.154-2.778l-0.394,0.387l0.345-0.758
		C137.942,132.746,138.234,133.841,138.499,134.739 M143.95,134.194c-1.455,0.23-2.943,0.41-4.459,0.506l0.129-0.096l-0.003-0.022
		l-0.148,0.124c-0.035,0-0.069,0.005-0.104,0.005l0.25-0.185c-0.115-1.078-0.287-2.414-0.508-3.973l-0.313-0.547
		c-0.117-0.506-0.104-1.017,0.009-1.516c-0.49-3.178-1.142-7.023-1.917-11.284l-0.413,0.186l0.382-0.359l-0.413-2.229l-0.398,0.23
		l-0.198-0.55c0.149-0.151,0.29-0.309,0.45-0.461c-1.004-0.716,0.508-2.706-0.789-3.317l0.055-0.365
		c-0.315,0.062-0.594,0.129-0.838,0.196c-0.425-0.027-0.967,0-1.689,0.118l0.117,0.954c-0.104,0.314-0.025,0.657,0.123,1.005
		l0.278,2.279l0.531,0.843c0.098,0.527-0.015,1.032-0.229,1.521l0.436,3.312l0.577-0.292l-0.525,0.629
		c0.795,5.833,1.562,10.689,2.178,13.85c-0.74-0.017-1.486-0.056-2.237-0.135l-3.027-0.286c-3.438-0.011-7.024-0.011-10.714,0.006
		c-1.389,0.393-2.838,0.656-4.324,0.764l0.548,1.589l-1.497-1.533l-1.513,0.006l-0.327-0.057l0.681,1.297l-1.794-1.471l-1.558-0.297
		l2.989-3.431l-1.311-0.478c0.789-0.96,0.665,1.932,2.304-2.082c-1.509-9.881-2.964-18.471-4.218-25.005
		c0.542-0.146,1.102-0.23,1.67-0.27c4.095-5.277,0.339-4.44,0.847-7.085l-0.339-1.229c0.777,0.18,1.575,0.359,2.425,0.545
		c1.405-0.253,2.832-0.27,4.175,0.472l1.228,0.611l4.571,0.825c0.671-0.336,1.34-0.527,1.994-0.533l0.068-1.853l0.348,1.864
		l0.646,0.106l0.126,0.09l-0.04-1.527l0.264,0.843c2.324-1.673,1.15-0.725,1.926-1.213l0.521-1.258l-0.564-4.873l-0.646,0.427
		l-1.263,0.517l0.857-0.562l1.042-0.432l-0.964-4.188l0.235-0.011c0.559,0.27,0.955,0.746,1.041,1.549
		c2.729,2.678,6.011,5.788,8.846,10.01l0.798-0.713l-0.671,0.882l1.466,2.189l3.383-3.071c-0.703,1.229-1.73,2.555-2.924,3.891
		l2.731,4.704l2.08,4.604c0.651,0.079,1.148,0.275,1.403,0.59c0.336,0.556,0.189,1.246-0.218,1.968l1.368,3.753l1.329-0.713
		l-1.174,1.089c2.643,6.995,4.301,13.098,5.719,16.774l1.179-0.517c0.028,0.208,0.055,0.41,0.077,0.612l-1.05,0.432l0.184,0.461
		l0.936-0.404c0.015,0.106,0.034,0.208,0.058,0.303l-0.881,0.365l0.074,0.174l0.887-0.286c0.115,0.309,0.287,0.55,0.6,0.646
		c-0.055,0-0.089-0.011-0.155-0.006C152.979,134.161,148.682,134.161,143.95,134.194 M157.373,134.447
		c-0.018-0.101-0.075-0.186-0.213-0.23c0.149,0.012,0.293,0.028,0.494-0.011C157.533,134.307,157.47,134.363,157.373,134.447"/>
	<polygon clip-path="url(#SVGID_2_)" fill="#FFFFFF" points="106.306,95.61 106.303,95.649 106.856,95.301 	"/>
	<path clip-path="url(#SVGID_2_)" fill="#FFFFFF" d="M67.795,102.796l-0.65,0.225l0.807-0.022l0.16-0.057
		c0.021-0.05,0.045-0.106,0.064-0.151L67.795,102.796z"/>
	<path clip-path="url(#SVGID_2_)" fill="#FFFFFF" d="M64.799,109.017l-0.505,0.185l0.528-0.008
		C64.816,109.128,64.805,109.075,64.799,109.017"/>
	<path clip-path="url(#SVGID_2_)" fill="#FFFFFF" d="M65.007,110.046c1.122,0.082,1.537-0.867,2.406-1.142l4.856-3.341
		c0.784-0.657,2.494-1.993,3.967-3.323c0.481-0.27,0.938-0.573,1.438-0.814l-0.858,0.326l1.859-0.87
		c-0.034-0.326-0.267-0.472-0.766-0.295c0.598-0.693,0.951-1.277,0.839-1.637c-0.774,0.573-1.531,1.589-2.37,2.493
		c-3.493,1.875-6.45,4.424-9.458,6.747l-1.943,1.517l-0.107,0.28l-1.154,0.343l1.06,0.095l-0.056,1.274l0.376-1.246
		C65.047,110.313,65.042,110.184,65.007,110.046 M70.956,105.794c0.897-0.69,1.811-1.354,2.745-1.993
		C72.91,104.446,71.94,105.134,70.956,105.794"/>
	<path clip-path="url(#SVGID_2_)" fill="#FFFFFF" d="M83.604,95.503L83.604,95.503C83.558,95.458,83.544,95.447,83.604,95.503"/>
	<polygon clip-path="url(#SVGID_2_)" fill="#FFFFFF" points="105.261,95.043 104.191,95.413 105.238,95.184 	"/>
	<polygon clip-path="url(#SVGID_2_)" fill="#FFFFFF" points="102.621,96.368 102.602,96.418 103.399,96.205 	"/>
	<polygon clip-path="url(#SVGID_2_)" fill="#FFFFFF" points="105.238,95.245 103.772,95.678 105.212,95.413 	"/>
	<path clip-path="url(#SVGID_2_)" fill="#FFFFFF" d="M64.939,129.721c-0.42,0.354-0.826,0.707-1.202,1.05
		c-1.359,1.313-1.968,1.769-2.092,1.712C60.406,133.841,62.239,132.264,64.939,129.721"/>
	<path clip-path="url(#SVGID_2_)" fill="#FFFFFF" d="M78.669,101.229c0.138-0.177,0.291-0.359,0.424-0.536l-0.418,0.188
		C78.687,100.988,78.692,101.095,78.669,101.229"/>
	<path clip-path="url(#SVGID_2_)" fill="#FFFFFF" d="M63.62,118.694c0.74-0.887,2.248-1.998,4.04-3.301
		c-1.354,1.28-2.688,2.543-4.085,3.666c0.009,0.241,0.062,0.472,0.207,0.685c2.549-2.1,4.699-4.514,7.183-6.54
		c0.743-0.725,4.226-2.976,5.321-3.155c-0.566-0.112-1.74,0.275-2.809,0.78c1.864-1.701,3.47-3.573,4.258-5.568
		c-0.174-0.006-0.358,0.027-0.541,0.039c-0.064,0.298-0.386,0.858-1.056,1.802C73.729,111.307,64.284,115.686,63.62,118.694"/>
	<path clip-path="url(#SVGID_2_)" fill="#FFFFFF" d="M76.093,105.479c0.379-0.09,0.746-0.151,1.102-0.177
		C77.292,104.861,76.815,105.041,76.093,105.479"/>
	<path clip-path="url(#SVGID_2_)" fill="#FFFFFF" d="M63.164,119.413c0.141-0.112,0.275-0.241,0.414-0.354
		c-0.003-0.118,0.015-0.241,0.04-0.365C63.407,118.953,63.234,119.194,63.164,119.413"/>
	<path clip-path="url(#SVGID_2_)" fill="#FFFFFF" d="M67.938,134.357c0.143-0.146,0.291-0.292,0.445-0.418
		C68.252,134.021,68.101,134.181,67.938,134.357"/>
	<path clip-path="url(#SVGID_2_)" fill="#FFFFFF" d="M75.371,105.948c0.263-0.183,0.5-0.334,0.72-0.469
		c-0.117,0.028-0.232,0.051-0.353,0.09c0.55-0.562,1.064-1.156,1.438-1.869c0.746-0.674,1.36-1.752,1.492-2.471
		c-1.302,1.712-2.826,3.352-4.514,4.924c-3.648,1.667-7.659,5.308-9.877,7.741c-0.021,0.067-0.045,0.141-0.063,0.208l0.367-0.286
		c0.033-0.022,0.06-0.04,0.092-0.057l-0.473,0.382c-0.104,0.32-0.197,0.646-0.292,0.96c2.959-2.357,6.168-4.412,8.969-6.928
		C73.68,107.405,74.566,106.709,75.371,105.948 M70.806,109.063c-0.726,0.593-1.466,1.177-2.215,1.755
		C69.307,110.206,70.044,109.622,70.806,109.063 M65.623,113.435c0.408-0.365,0.811-0.73,1.219-1.095
		c0.858-0.528,1.666-1.002,2.392-1.454L65.623,113.435z"/>
	<path clip-path="url(#SVGID_2_)" fill="#FFFFFF" d="M75.662,109.926c0.729-0.146,1.129-0.039,1.267,0.174
		c0.029-0.096,0.085-0.174,0.115-0.27L75.662,109.926z"/>
	<path clip-path="url(#SVGID_2_)" fill="#FFFFFF" d="M76.285,110.049c0.173,0.04,0.279,0.129,0.305,0.275
		C76.672,110.083,76.543,110.01,76.285,110.049"/>
	<path clip-path="url(#SVGID_2_)" fill="#FFFFFF" d="M77.237,99.349c0.475-0.18,0.957-0.348,1.444-0.511
		c-0.093-0.129-0.255-0.225-0.543-0.253c-0.057,0.018-0.103,0.045-0.158,0.063c1.475-1.438,2.754-3.122,1.284-3.772
		c-0.135,0.039-0.259,0.095-0.392,0.14c1.219-1.218,2.151-2.414,2.197-2.953c-1.05,1.213-2.224,2.353-3.493,3.414
		c-1.951,0.786-3.72,1.869-5.414,2.98c-0.291,0.281-0.938,0.708-1.654,1.168l-1.107,1.701l5.45-3.2
		c0.92-0.427,2.111-1.336,3.214-2.341c1.264-0.478,1.926-0.427,0.981,0.803c-0.721,0.966-1.587,1.824-2.507,2.633
		c-3.157,1.286-6.04,3.245-8.793,5.243l-0.171,0.404c1.694-0.993,4.75-2.807,5.883-3.728c0.607-0.382,1.267-0.662,1.909-0.971
		c-1.912,1.476-4.052,2.745-6.232,3.918c-0.687,0.371-1.184,0.641-1.595,0.864l-0.18,0.433c1.657-0.427,6.705-3.52,8.548-4.89
		C76.253,100.208,76.73,99.798,77.237,99.349 M72.735,98.866l-1.96,1.111c0.241-0.163,0.465-0.309,0.638-0.388
		c0.729-0.623,2.609-1.808,4.375-2.739C74.81,97.558,73.803,98.243,72.735,98.866"/>
	<path clip-path="url(#SVGID_2_)" fill="#FFFFFF" d="M77.788,93.162l-1.918,1.207c2.08-1.521,3.918-3.144,4.417-4.479
		c-0.258,0.028-0.499,0.09-0.752,0.135c-0.245,0.185-0.499,0.382-0.757,0.584c0.786-0.23,1.302-0.314,1.153-0.135
		c-2.49,2.082-4.981,4.361-8.078,6.1c-0.06,0.03-0.121,0.069-0.18,0.098c-0.091,0.241-0.149,0.503-0.174,0.774
		c3.339-2.015,8.442-5.08,9.588-5.473C81.039,91.523,80.126,91.726,77.788,93.162"/>
	<path clip-path="url(#SVGID_2_)" fill="#FFFFFF" d="M79.581,98.523c-0.305,0.096-0.597,0.219-0.899,0.314
		c0.027,0.039,0.057,0.073,0.067,0.112C79.023,98.748,79.296,98.585,79.581,98.523"/>
	<path clip-path="url(#SVGID_2_)" fill="#FFFFFF" d="M81.199,91.928c-0.022,0.005-0.083,0.033-0.111,0.045
		c0.003,0.022-0.018,0.066-0.018,0.089C81.11,92.018,81.159,91.973,81.199,91.928"/>
	<polygon clip-path="url(#SVGID_2_)" fill="#FFFFFF" points="2.582,136.114 2.635,136.114 2.276,135.801 	"/>
	<polygon clip-path="url(#SVGID_2_)" fill="#FFFFFF" points="0.976,135.132 0.846,135.138 1.401,135.554 	"/>
	<polygon clip-path="url(#SVGID_2_)" fill="#FFFFFF" points="0,135.183 0.597,136.02 1.934,136.087 0.805,135.138 	"/>
	<polygon clip-path="url(#SVGID_2_)" fill="#FFFFFF" points="1.185,135.121 1.028,135.127 1.729,135.699 	"/>
	<polygon clip-path="url(#SVGID_2_)" fill="#FFFFFF" points="13.416,87.145 13.924,87.194 14.002,86.976 	"/>
	<polygon clip-path="url(#SVGID_2_)" fill="#FFFFFF" points="4.65,137.939 6.072,137.339 6.625,137.153 6.701,136.451 
		4.606,137.231 	"/>
	<path clip-path="url(#SVGID_2_)" fill="#FFFFFF" d="M13.987,86.083l0.34-0.006c0.019-0.039,0.036-0.084,0.051-0.129L13.987,86.083z
		"/>
	<polygon clip-path="url(#SVGID_2_)" fill="#FFFFFF" points="4.683,138.338 4.699,138.602 5.708,138.371 6.51,138.091 
		6.572,137.597 6.437,137.647 	"/>
	<polygon clip-path="url(#SVGID_2_)" fill="#FFFFFF" points="39.337,54.241 41.126,55.066 41.25,54.775 40.055,54.194 39.59,53.97 	
		"/>
	<polygon clip-path="url(#SVGID_2_)" fill="#FFFFFF" points="41.363,54.494 40.587,53.976 39.933,53.616 39.753,53.803 
		39.864,53.858 41.315,54.606 	"/>
	<polygon clip-path="url(#SVGID_2_)" fill="#FFFFFF" points="71.404,53.825 70.784,54.673 71.451,53.877 	"/>
	<polygon clip-path="url(#SVGID_2_)" fill="#FFFFFF" points="71.341,53.769 70.915,54.405 71.383,53.815 	"/>
	<polygon clip-path="url(#SVGID_2_)" fill="#FFFFFF" points="71.068,53.505 70.113,54.629 70.298,55.126 71.329,53.758 	"/>
	<polygon clip-path="url(#SVGID_2_)" fill="#FFFFFF" points="70.765,54.959 70.392,55.365 70.397,55.379 	"/>
	<polygon clip-path="url(#SVGID_2_)" fill="#FFFFFF" points="45.228,57.452 45.233,57.469 45.587,57.01 	"/>
	<polygon clip-path="url(#SVGID_2_)" fill="#FFFFFF" points="22.362,137.844 22.368,137.821 22.043,137.967 	"/>
	<polygon clip-path="url(#SVGID_2_)" fill="#FFFFFF" points="25.476,90.153 25.173,90.237 25.111,90.613 26.261,90.237 
		26.258,89.861 	"/>
	<polygon clip-path="url(#SVGID_2_)" fill="#FFFFFF" points="21.758,138.36 21.325,138.534 21.325,138.596 	"/>
	<polygon clip-path="url(#SVGID_2_)" fill="#FFFFFF" points="21.339,139 22.19,138.781 22.309,138.146 21.324,138.613 	"/>
	<polygon clip-path="url(#SVGID_2_)" fill="#FFFFFF" points="21.318,138.434 21.321,138.506 21.918,138.22 	"/>
	<polygon clip-path="url(#SVGID_2_)" fill="#FFFFFF" points="25.218,90.002 25.288,89.979 26.255,89.643 26.252,89.502 
		25.702,89.604 25.265,89.738 	"/>
	<path clip-path="url(#SVGID_2_)" fill="#FFFFFF" d="M30.391,70.106c-0.062,0.022-0.12,0.058-0.182,0.077
		c0.009,0.005,0.014,0.024,0.022,0.029C30.282,70.183,30.35,70.123,30.391,70.106"/>
	<polygon clip-path="url(#SVGID_2_)" fill="#FFFFFF" points="26.11,83.462 26.031,83.568 24.964,84.927 24.683,85.435 25.093,85 
		25.537,84.449 	"/>
	<path clip-path="url(#SVGID_2_)" fill="#FFFFFF" d="M28.38,68.366c-0.165,0.124-0.338,0.258-0.508,0.389
		c0.404-0.131,0.673-0.199,0.836-0.21C28.632,68.478,28.526,68.417,28.38,68.366"/>
	<path clip-path="url(#SVGID_2_)" fill="#FFFFFF" d="M24.261,83.338c0.643-0.343,1.29-0.662,1.93-0.932L24.68,82.9
		c0.417-0.427,0.847-0.825,1.241-1.286l2.373-3.52c-0.488-0.062-0.926,0.045-1.346,0.202c0.153-0.169,0.321-0.304,0.465-0.478
		c0.364-0.791,1.533-0.797,1.242-2.245l-1.14,0.382c0.662-0.73,1.257-1.519,1.708-2.432c-0.112-0.106-0.257-0.14-0.384-0.207
		c0.054,0.117-0.123,0.387-0.631,0.864c-0.572,0.819-1.284,1.538-2.042,2.229c-2.348,0.901-4.569,2.269-6.75,3.745l0.944-0.326
		l-2.359,1.28l-0.699,0.514l-0.538,1.237c0.104-0.045,0.205-0.095,0.309-0.151l4.505-2.273c1.753-1.072,3.533-2.224,5.053-3.627
		c0.247-0.084,0.479-0.18,0.737-0.264c3.129-2.302-1.492,1.887-1.736,2.302c-0.148,0.129-0.308,0.247-0.459,0.376
		c-0.284,0.163-0.578,0.326-0.881,0.438c-2.441,1.594-4.815,3.346-7.183,5.164c-0.627,0.214-1.426,0.933-1.907,1.511
		c-0.12,0.073-0.24,0.157-0.361,0.23l0.247-0.107c-0.499,0.443-0.883,1.225-0.045,0.612c0.006-0.006,0.015-0.012,0.023-0.017
		c0.198-0.063,0.484-0.202,0.991-0.551c2.603-1.647,5.291-3.34,7.774-5.389c0.704-0.562,1.403-1.14,2.073-1.752
		c0.756-0.393,1.157-0.482,0.976-0.096c-0.881,1.55-2.009,2.863-3.244,4.048c-2.871,1.442-5.635,3.82-8.629,6.366l1.087-0.792
		l-2.206,1.741c-0.121,0.37-0.238,0.746-0.351,1.111c0.981-0.635,2.169-1.505,3.112-2.358
		C19.165,87.613,21.848,85.698,24.261,83.338 M21.146,79.953c-0.297,0.274-1.346,0.803-2.45,1.336
		c1.762-1.222,3.539-2.403,5.428-3.323c0.121-0.085,0.28-0.135,0.409-0.214C23.451,78.544,22.31,79.273,21.146,79.953
		 M17.129,88.391c1.792-1.572,3.566-2.896,5.318-3.991c-1.735,1.481-3.608,2.768-5.365,4.03L17.129,88.391z"/>
	<path clip-path="url(#SVGID_2_)" fill="#FFFFFF" d="M25.94,82.192c0.981-0.449,0.935-0.123,0.229,0.596l-0.771,1.358l0.914-1.19
		l0.306-0.382C27.205,81.9,26.402,81.671,25.94,82.192"/>
	<path clip-path="url(#SVGID_2_)" fill="#FFFFFF" d="M26.997,73.771c0.799-0.342,1.46-0.562,1.727-0.521
		c-0.27-0.13-0.563-0.191-0.887-0.197c0.938-0.808,1.837-1.655,2.642-2.581c-0.039-0.142-0.153-0.187-0.244-0.26
		c-0.646,0.403-1.977,1.667-3.594,3.038c-1.957,0.611-4.289,2.386-5.837,3.262l1.228-0.713l1.346-0.606l-1.665,0.881l-1.085,0.551
		c-0.171,0.168-0.415,0.342-0.679,0.516l-0.409,0.606c1.113-0.64,2.201-1.246,3.229-1.796c0.297-0.205,0.905-0.545,1.618-0.924
		c-0.948,0.693-1.915,1.3-2.832,1.692l0.406-0.117l-1.017,0.482L19.434,77.9l-0.725,1.075l3.416-1.892
		C23.848,76.096,25.48,74.99,26.997,73.771"/>
	<path clip-path="url(#SVGID_2_)" fill="#FFFFFF" d="M28.839,68.775c0.123-0.164,0.09-0.241-0.129-0.23
		C28.777,68.611,28.821,68.692,28.839,68.775"/>
	<path clip-path="url(#SVGID_2_)" fill="#FFFFFF" d="M17.138,79.145l0.761-0.124l-0.567-0.101c-0.047,0.062-0.084,0.123-0.12,0.186
		L17.138,79.145z"/>
	<path clip-path="url(#SVGID_2_)" fill="#FFFFFF" d="M24.692,72.627c2.232-1.489,4.299-3.053,4.146-3.852
		c-0.45,0.595-2.904,2.219-5.128,3.769c-0.02,0.022-0.041,0.036-0.059,0.061l-0.076,0.033c-0.946,0.657-1.836,1.297-2.5,1.83
		c-0.092,0.259-0.135,0.533-0.144,0.825c3.078-1.622,5.86-3.908,9.274-5.11C29.408,69.618,26.958,71.161,24.692,72.627"/>
	<path clip-path="url(#SVGID_2_)" fill="#FFFFFF" d="M28.724,73.25c0.042,0.017,0.076,0.045,0.118,0.067
		C28.824,73.277,28.783,73.255,28.724,73.25"/>
	<polygon clip-path="url(#SVGID_2_)" fill="#FFFFFF" points="55.044,58.884 54.935,58.26 54.9,58.064 54.926,58.26 55.008,58.889 	
		"/>
	<polygon clip-path="url(#SVGID_2_)" fill="#FFFFFF" points="55.058,58.878 55.088,58.878 54.971,58.283 	"/>
	<polygon clip-path="url(#SVGID_2_)" fill="#FFFFFF" points="39.266,44.085 39.15,43.939 38.643,44.203 38.514,44.269 
		38.211,44.428 37.841,44.609 37.87,44.792 38.575,44.433 38.789,44.327 	"/>
	<polygon clip-path="url(#SVGID_2_)" fill="#FFFFFF" points="39.082,43.861 39.034,43.803 38.462,44.05 38.432,44.062 
		38.345,44.102 37.804,44.36 37.825,44.491 37.916,44.444 38.474,44.163 38.55,44.125 	"/>
	<polygon clip-path="url(#SVGID_2_)" fill="#FFFFFF" points="55.098,58.878 55.286,58.843 55.228,58.289 55.222,58.236 
		55.16,57.671 54.868,57.529 54.947,58.006 54.995,58.266 	"/>
	<polygon clip-path="url(#SVGID_2_)" fill="#FFFFFF" points="54.776,57.862 54.729,57.462 54.718,57.456 54.776,57.862 
		54.782,57.902 	"/>
	<polygon clip-path="url(#SVGID_2_)" fill="#FFFFFF" points="55.391,58.429 55.522,59.293 55.725,59.317 55.699,59.17 55.55,58.276 
		55.503,58.018 55.379,57.293 55.287,57.334 55.368,58.193 55.376,58.289 	"/>
	<polygon clip-path="url(#SVGID_2_)" fill="#FFFFFF" points="55.807,58.749 55.913,59.338 56.206,59.366 55.989,58.249 
		55.86,57.576 55.769,57.128 55.521,57.229 55.639,57.852 55.715,58.266 	"/>
	<polygon clip-path="url(#SVGID_2_)" fill="#FFFFFF" points="58.214,22.713 58.108,22.371 57.95,22.383 	"/>
	<polygon clip-path="url(#SVGID_2_)" fill="#FFFFFF" points="77.237,35.479 77.234,35.457 76.729,35.737 	"/>
	<polygon clip-path="url(#SVGID_2_)" fill="#FFFFFF" points="45.965,6.904 45.205,6.545 45.725,7.022 	"/>
	<polygon clip-path="url(#SVGID_2_)" fill="#FFFFFF" points="37.926,43.4 38.016,43.579 38.707,43.129 38.978,42.975 38.957,42.777 
			"/>
	<polygon clip-path="url(#SVGID_2_)" fill="#FFFFFF" points="38.106,43.754 38.611,43.478 39.009,43.236 38.99,43.096 
		38.923,43.142 38.07,43.688 	"/>
	<path clip-path="url(#SVGID_2_)" fill="#FFFFFF" d="M74.95,26.014c0.042-0.005,0.06,0,0.089,0l0.058-0.158L74.95,26.014z"/>
	<polygon clip-path="url(#SVGID_2_)" fill="#FFFFFF" points="71.869,21.253 71.866,21.207 71.76,21.388 	"/>
	<polygon clip-path="url(#SVGID_2_)" fill="#FFFFFF" points="71.723,21.489 71.872,21.313 71.869,21.27 	"/>
	<path clip-path="url(#SVGID_2_)" fill="#FFFFFF" d="M73.748,23.605l-0.144,0.189c0.088-0.083,0.141-0.106,0.214-0.154l0.153-0.205
		L73.748,23.605z"/>
	<path clip-path="url(#SVGID_2_)" fill="#FFFFFF" d="M66.572,18.609L66.44,18.81l-0.118,0.153c0.006,0.101,0.012,0.23,0.018,0.342
		l-0.264,0.747l-0.121,0.293l-0.168,1.021l0.488-1.218l0.076-0.608c0.024,0.529,0.047,1.102,0.117,1.769l0.143,0.345l0.093,0.565
		c0.162,0.03,0.314,0.055,0.471,0.084C66.903,21.078,66.44,18.991,66.572,18.609"/>
	<polygon clip-path="url(#SVGID_2_)" fill="#FFFFFF" points="66.55,18.435 66.465,18.57 66.477,18.542 66.481,18.507 66.547,18.418 
		66.541,18.377 66.481,18.487 66.487,18.446 66.538,18.369 66.517,18.21 66.523,18.159 66.511,18.177 66.505,18.128 66.3,18.323 
		66.309,18.575 66.153,18.958 66.05,19.688 66.079,19.608 66.339,18.912 66.397,18.817 66.347,18.89 66.452,18.605 66.555,18.481 	
		"/>
	<path clip-path="url(#SVGID_2_)" fill="#FFFFFF" d="M70.107,19.17c0.015,0.006,0.022,0.011,0.038,0.011
		c0.026,0,0.029-0.005,0.063-0.005C70.157,19.17,70.148,19.176,70.107,19.17"/>
	<polygon clip-path="url(#SVGID_2_)" fill="#FFFFFF" points="71.757,21.354 71.863,21.196 71.849,21 71.854,20.984 71.849,20.984 
		71.846,20.943 71.777,21 71.692,21.023 71.555,21.083 71.499,21.242 71.521,21.231 71.628,21.176 71.625,21.297 71.543,21.343 
		71.451,21.382 71.373,21.602 71.622,21.483 71.619,21.561 71.692,21.456 71.737,21.432 	"/>
	<path clip-path="url(#SVGID_2_)" fill="#FFFFFF" d="M54.625,20.467c0.148,0.578,0.309,1.119,0.44,1.544l1.175-0.035l0.053,0.011
		c0.024-0.143,0.039-0.308,0.045-0.488l0.199,0.54l0.459,0.096l0.502,0.505l-0.202-0.454l0.088,0.017l0.405-0.022l0.06,0.071
		c0.126-0.707,0.144-1.443,0.354-2.032c0.097,0.584,0.227,1.207,0.395,1.772l0.581-0.166c-0.259-1.406-0.299-2.961-1.299-3.639
		c-0.073,0.925-0.499,3.039-0.62,4.136c-0.487-1.292-0.799-2.722-0.961-4.237l-0.163,0.655c0.154-0.848-0.188-1.149-0.312-0.178
		l-0.089,1.769l-0.029,0.382l0.244-0.782l-0.266,1.942c-0.799-0.801-0.524-4.299-0.98-4.682v-0.017
		c-0.006,0-0.009,0.005-0.015,0.005c-0.132-0.094-0.329,0.063-0.632,0.647c0.109,0.995-0.117,3.058-0.196,4.21l0.64-0.017
		C54.549,21.504,54.599,20.985,54.625,20.467"/>
	<path clip-path="url(#SVGID_2_)" fill="#FFFFFF" d="M66.11,21.31l-0.306,0.771c0.098,0.014,0.188,0.025,0.285,0.043
		C66.11,21.893,66.122,21.634,66.11,21.31"/>
	<path clip-path="url(#SVGID_2_)" fill="#FFFFFF" d="M60.55,19.721c0.193,1.012,0.482,1.931,1.007,2.067h0.201
		c0.111-0.019,0.223-0.024,0.355-0.107c0.052-0.323,0.152-0.894,0.253-1.5c0.064,0.565,0.166,1.117,0.27,1.667l0.294,0.04
		c0.07,0.005,0.141,0.018,0.214,0.024c-0.04-1.042-0.281-2.679-0.55-3.533c0.039-0.589-0.031-0.875-0.295-0.538
		c-0.183-0.046-0.342,0.514-0.43,2.15c0.36,3.906-0.57,0.105-1.286-1.574c-0.048-0.422-0.168-0.747-0.421-0.911
		c0.021,0.08,0.035,0.187,0.057,0.276c-0.28-0.259-0.451,0.354-0.342,2.963c0.006,0.276-0.091,0.669-0.193,1.069l0.535-0.005
		C60.335,21.13,60.474,20.393,60.55,19.721"/>
	<path clip-path="url(#SVGID_2_)" fill="#FFFFFF" d="M64.271,20.181c0.078,0.672,0.272,1.336,0.511,1.854
		c0.142,0.002,0.282,0.002,0.417,0.002c-0.211-0.885-0.487-2.273-0.746-3.406c0.051-0.628,0.023-0.888-0.076-0.342
		c-0.047-0.198-0.092-0.365-0.135-0.541c-0.136,0.153-0.26,0.466-0.221,0.817c-0.006,0.324-0.322,2.076-0.597,3.371
		c0.156,0.019,0.309,0.035,0.465,0.046C64.047,21.448,64.177,20.804,64.271,20.181"/>
	<path clip-path="url(#SVGID_2_)" fill="#FFFFFF" d="M64.535,18.025c0.076-0.219,0.229-0.46-0.355-0.518
		c0.02,0.069,0.041,0.17,0.062,0.241C64.379,17.6,64.523,17.638,64.535,18.025"/>
	<path clip-path="url(#SVGID_2_)" fill="#FFFFFF" d="M64.532,18.267c0.009-0.101,0.006-0.17,0.003-0.241
		C64.504,18.114,64.485,18.201,64.532,18.267"/>
	<path clip-path="url(#SVGID_2_)" fill="#FFFFFF" d="M48.453,22.095c0.059-0.483,0.056-1.286-0.045-2.55L48.3,18.008
		c0.01-0.041,0.007-0.079,0.016-0.118c0.275,1.376,0.67,2.779,1.157,4.222c0.144-0.034,0.281-0.069,0.413-0.135
		c-0.472-1.415-1.096-3.65-1.567-5.096c-0.089-0.688-0.294-1.207-0.32-0.911c-0.426-1.072-0.574-0.674-0.016,3.492
		c0.07,1.138,0.109,1.915,0.117,2.438l0.256,0.178C48.389,22.095,48.42,22.084,48.453,22.095"/>
	<polygon clip-path="url(#SVGID_2_)" fill="#FFFFFF" points="46.757,16.852 46.719,17.263 46.726,17.329 	"/>
	<path clip-path="url(#SVGID_2_)" fill="#FFFFFF" d="M53.368,22.382l0.282,0.276l-0.221-0.395l-0.152-0.153
		c0.018,0.07,0.032,0.136,0.052,0.205L53.368,22.382z"/>
	<path clip-path="url(#SVGID_2_)" fill="#FFFFFF" d="M50.723,21.764c0.015,0.072,0.033,0.159,0.044,0.236
		c0.146,0.011,0.295,0.035,0.443,0.041c-0.076-0.688-0.24-1.432-0.405-2.208c-0.038-1.026-0.158-2.087-0.223-2.857
		c-0.062-0.041-0.095-0.006-0.145-0.017c0-0.035-0.003-0.071-0.003-0.106c-0.373-0.771-0.382-0.288-0.317,0.442
		c-0.056,0.395,0.012,1.047,0.129,1.796c-0.003,0.03,0,0.082-0.006,0.101c0.159,1.237,0.256,2.136,0.303,2.786
		c0.045,0.005,0.089,0.005,0.129,0.011C50.691,21.91,50.711,21.841,50.723,21.764"/>
	<path clip-path="url(#SVGID_2_)" fill="#FFFFFF" d="M51.974,22.073c0.085-0.589,0.109-1.342,0.104-2.115
		c0.193,0.724,0.457,1.424,0.857,2.104h0.091l-0.27-1.385c0.234,0.267,0.372,0.836,0.505,1.38l0.243-0.006
		c-0.824-1.392-0.866-3.57-1.472-4.56c-0.003-0.264-0.003-0.505,0.003-0.695l-0.106,0.264c-0.23-0.118,0.653-0.818-0.49-0.398
		c0.024,0.124,0.042,0.241,0.062,0.365c-0.028-0.011-0.046-0.041-0.076-0.043c0.121,1.756,0.027,3.429-0.141,5.068
		C51.51,22.062,51.741,22.073,51.974,22.073"/>
	<path clip-path="url(#SVGID_2_)" fill="#FFFFFF" d="M46.722,15.026l-0.006,0.165l-0.015,0.035l0.009-0.199l0.006-0.112
		c-0.012-0.212-0.059-0.267-0.118-0.272c0.021-0.118,0.006-0.17-0.144,0.02l0.012,0.142c-0.02,0.08-0.009,0.163,0.027,0.258v0.006
		l0.055,0.529l-0.026,0.072l0.021,0.442l0.016-0.048l0.026-0.095l0.038,0.362l-0.062,0.181l0.026,0.63l0.237-0.743l-0.025,0.425
		l-0.059,0.642c-0.003,0.041,0,0.09-0.003,0.135l-0.112,0.395c0.107,0.968,0.003,2.063-0.104,3.222
		c0.121,0.037,0.244,0.077,0.37,0.118c0.068-0.447,0.121-0.938,0.154-1.438c0.135,0.583,0.298,1.161,0.475,1.632
		c0.036,0.011,0.062,0.022,0.098,0.034l0.141,0.095c-0.329-1.739-0.794-5.065-0.908-5.666l-0.018,0.271l-0.038-0.543l-0.079,0.272
		l0.064-0.583l-0.021-0.162l-0.011-0.118l-0.003,0.003l-0.017-0.107l-0.005-0.055L46.722,15.026z M46.64,16.268l0.036-0.595
		l0.025-0.088l-0.003,0.124l0.012-0.153l0.03-0.101l-0.033,0.573L46.64,16.268z"/>
	<polygon clip-path="url(#SVGID_2_)" fill="#FFFFFF" points="37.825,18.62 37.775,18.525 37.878,18.979 	"/>
	<polygon clip-path="url(#SVGID_2_)" fill="#FFFFFF" points="37.902,18.766 37.844,18.66 37.956,19.232 	"/>
	<path clip-path="url(#SVGID_2_)" fill="#FFFFFF" d="M38.063,19.092l0.087,0.518L38.201,20c0.147,0.606,0.376,1.165,0.617,1.596
		c0.032-0.046,0.059-0.101,0.092-0.147C38.705,20.989,38.428,20.241,38.063,19.092"/>
	<polygon clip-path="url(#SVGID_2_)" fill="#FFFFFF" points="38.167,19.928 38.119,19.635 38.152,19.893 	"/>
	<path clip-path="url(#SVGID_2_)" fill="#FFFFFF" d="M41.349,16.117L41.254,16.7l-0.012,0.56c0.024-0.126,0.048-0.206,0.07-0.302
		l0.019-0.101L41.349,16.117z"/>
	<path clip-path="url(#SVGID_2_)" fill="#FFFFFF" d="M40.413,19.636l0.427-0.342l0.084-0.206l0.232-0.242
		c-0.044-0.159-0.073-0.299-0.082-0.411c-0.808-2.222-1.175-1.59-0.515,0.612l0.016,0.242l-0.336,0.377
		c-0.02-0.082-0.04-0.153-0.064-0.225l0.333-0.365L40.41,19l-0.291,0.254c-0.398-1.357-0.578-1.634-0.643-1.343l-0.165-1.262
		c-0.358-0.011-0.196,1.19,0.141,2.452c0.009,0.236,0.019,0.489,0.03,0.743l-0.32,0.327l0.135,0.224l0.085-0.098l0.112-0.118
		c0.002,0.109,0.005,0.216,0.008,0.323l-0.084,0.094l0.064,0.101C39.796,20.321,40.116,19.944,40.413,19.636"/>
	<polygon clip-path="url(#SVGID_2_)" fill="#FFFFFF" points="37.532,18.918 37.553,18.605 37.676,18.866 37.664,19.17 
		37.645,19.378 37.826,20.018 37.877,19.3 37.936,19.43 37.762,18.493 37.524,18.029 37.5,17.952 37.494,17.975 37.468,17.912 
		37.471,18.064 37.432,18.216 37.4,18.518 37.529,18.97 	"/>
	<path clip-path="url(#SVGID_2_)" fill="#FFFFFF" d="M36.623,26.665l0.238,0.017c0-0.022-0.009-0.058-0.009-0.083L36.623,26.665z"/>
	<path clip-path="url(#SVGID_2_)" fill="#FFFFFF" d="M38.106,19.878l-0.033,1.006c0.062,0.184,0.188,0.768,0.318,1.385
		c0.088-0.147,0.176-0.288,0.268-0.425C38.491,21.131,38.312,20.462,38.106,19.878"/>
	<polygon clip-path="url(#SVGID_2_)" fill="#FFFFFF" points="129.808,53.46 129.805,53.438 129.3,53.719 	"/>
	<polygon clip-path="url(#SVGID_2_)" fill="#FFFFFF" points="110.781,40.689 110.679,40.346 110.518,40.359 	"/>
	<path clip-path="url(#SVGID_2_)" fill="#FFFFFF" d="M98.535,24.88l-0.76-0.359l0.517,0.477
		C98.372,24.957,98.452,24.92,98.535,24.88"/>
	<path clip-path="url(#SVGID_2_)" fill="#FFFFFF" d="M88.441,34.092l-0.579-0.066l0.573,0.083
		C88.436,34.104,88.438,34.098,88.441,34.092"/>
	<polygon clip-path="url(#SVGID_2_)" fill="#FFFFFF" points="90.074,62.987 89.908,62.28 90.014,62.982 	"/>
	<polygon clip-path="url(#SVGID_2_)" fill="#FFFFFF" points="89.661,61.292 89.646,61.286 89.652,61.803 	"/>
	<polygon clip-path="url(#SVGID_2_)" fill="#FFFFFF" points="89.922,62.982 89.991,62.987 89.818,62.011 	"/>
	<polygon clip-path="url(#SVGID_2_)" fill="#FFFFFF" points="91.546,60.95 91.523,60.754 90.493,61.375 90.585,61.556 
		91.273,61.108 	"/>
	<path clip-path="url(#SVGID_2_)" fill="#FFFFFF" d="M127.518,43.996c0.041-0.011,0.061,0,0.09-0.006l0.057-0.153L127.518,43.996z"
		/>
	<polygon clip-path="url(#SVGID_2_)" fill="#FFFFFF" points="124.287,39.465 124.437,39.29 124.434,39.246 	"/>
	<path clip-path="url(#SVGID_2_)" fill="#FFFFFF" d="M126.315,41.587l-0.141,0.184c0.087-0.077,0.138-0.101,0.21-0.149l0.155-0.21
		L126.315,41.587z"/>
	<polygon clip-path="url(#SVGID_2_)" fill="#FFFFFF" points="124.184,39.538 124.256,39.431 124.302,39.409 124.321,39.332 
		124.428,39.173 124.413,38.978 124.419,38.959 124.413,38.959 124.41,38.92 124.342,38.978 124.256,39 124.118,39.061 
		124.063,39.219 124.086,39.208 124.192,39.15 124.189,39.274 124.109,39.319 124.015,39.36 123.938,39.584 124.187,39.466 	"/>
	<polygon clip-path="url(#SVGID_2_)" fill="#FFFFFF" points="124.434,39.229 124.431,39.183 124.324,39.364 	"/>
	<path clip-path="url(#SVGID_2_)" fill="#FFFFFF" d="M119.14,36.585l-0.132,0.201l-0.117,0.153c0.005,0.101,0.011,0.23,0.017,0.343
		l-0.264,0.747l-0.121,0.293l-0.166,1.02l0.487-1.218l0.075-0.607c0.022,0.523,0.049,1.102,0.12,1.768l0.138,0.345l0.098,0.566
		c0.161,0.029,0.315,0.055,0.471,0.084C119.476,39.054,119.008,36.967,119.14,36.585"/>
	<path clip-path="url(#SVGID_2_)" fill="#FFFFFF" d="M122.66,37.146l0.052,0.017c0.026,0,0.031-0.005,0.063-0.005
		C122.718,37.146,122.703,37.152,122.66,37.146"/>
	<path clip-path="url(#SVGID_2_)" fill="#FFFFFF" d="M103.293,39.74c0.015,0.077,0.028,0.164,0.043,0.235
		c0.146,0.017,0.293,0.035,0.444,0.046c-0.077-0.688-0.24-1.426-0.404-2.202c-0.04-1.031-0.16-2.098-0.224-2.869
		c-0.066-0.046-0.095-0.005-0.146-0.017c0-0.035-0.003-0.072-0.003-0.107c-0.376-0.776-0.382-0.288-0.318,0.448
		c-0.052,0.395,0.015,1.047,0.132,1.791c-0.003,0.029,0,0.076-0.006,0.098c0.158,1.239,0.253,2.145,0.302,2.789
		c0.043,0.006,0.086,0.011,0.129,0.011C103.259,39.893,103.278,39.817,103.293,39.74"/>
	<path clip-path="url(#SVGID_2_)" fill="#FFFFFF" d="M107.195,38.443c0.149,0.578,0.307,1.118,0.436,1.543l1.177-0.035l0.055,0.011
		c0.025-0.144,0.04-0.308,0.043-0.483l0.203,0.535l0.454,0.095l0.502,0.505l-0.201-0.453l0.089,0.017l0.405-0.022l0.06,0.077
		c0.127-0.713,0.146-1.443,0.356-2.038c0.097,0.583,0.227,1.207,0.393,1.772l0.583-0.166c-0.259-1.401-0.302-2.956-1.298-3.645
		c-0.077,0.931-0.502,3.044-0.616,4.142c-0.491-1.284-0.807-2.71-0.964-4.226l-0.167,0.65c0.158-0.837-0.184-1.167-0.31-0.189
		l-0.092,1.774l-0.026,0.376l0.244-0.776l-0.267,1.943c-0.798-0.813-0.525-4.299-0.981-4.682v-0.011
		c-0.006,0-0.009,0.005-0.015,0.005c-0.077-0.055-0.175-0.014-0.301,0.129h-0.003c-0.095,0.112-0.201,0.265-0.33,0.512
		c0.109,0.994-0.117,3.058-0.195,4.21l0.64-0.017C107.114,39.48,107.166,38.961,107.195,38.443"/>
	<path clip-path="url(#SVGID_2_)" fill="#FFFFFF" d="M101.021,40.071c0.058-0.483,0.055-1.286-0.043-2.55l-0.104-1.537
		c0.009-0.035,0.006-0.079,0.012-0.112c0.275,1.371,0.665,2.779,1.153,4.222c0.144-0.04,0.284-0.074,0.419-0.141
		c-0.474-1.415-1.094-3.645-1.569-5.102c-0.086-0.682-0.29-1.201-0.318-0.905c-0.425-1.078-0.571-0.673-0.018,3.492
		c0.071,1.138,0.109,1.92,0.117,2.443l0.253,0.172C100.954,40.071,100.989,40.06,101.021,40.071"/>
	<path clip-path="url(#SVGID_2_)" fill="#FFFFFF" d="M105.936,40.363l0.281,0.276l-0.218-0.4l-0.155-0.153
		c0.017,0.07,0.037,0.136,0.055,0.205L105.936,40.363z"/>
	<path clip-path="url(#SVGID_2_)" fill="#FFFFFF" d="M104.544,40.049c0.086-0.584,0.106-1.342,0.104-2.109
		c0.189,0.718,0.459,1.419,0.857,2.098h0.092l-0.275-1.385c0.238,0.261,0.373,0.836,0.505,1.379l0.247-0.005
		c-0.826-1.392-0.866-3.57-1.475-4.56c-0.003-0.258-0.003-0.5,0.006-0.695l-0.106,0.264c-0.232-0.118,0.654-0.807-0.491-0.399
		c0.023,0.124,0.041,0.247,0.063,0.371c-0.031-0.011-0.049-0.041-0.08-0.046c0.123,1.753,0.028,3.426-0.141,5.065
		C104.079,40.038,104.309,40.049,104.544,40.049"/>
	<path clip-path="url(#SVGID_2_)" fill="#FFFFFF" d="M113.12,37.691c0.192,1.012,0.477,1.937,1.001,2.073h0.207
		c0.111-0.018,0.221-0.023,0.353-0.101c0.052-0.328,0.155-0.899,0.256-1.511c0.063,0.565,0.166,1.123,0.27,1.673l0.29,0.039
		c0.071,0.006,0.144,0.019,0.215,0.024c-0.037-1.041-0.275-2.679-0.542-3.532c0.037-0.59-0.034-0.877-0.302-0.538
		c-0.178-0.046-0.338,0.514-0.428,2.15c0.359,3.906-0.573,0.1-1.288-1.573c-0.046-0.422-0.166-0.747-0.419-0.911
		c0.021,0.074,0.037,0.187,0.055,0.276c-0.278-0.26-0.447,0.354-0.339,2.963c0.006,0.282-0.089,0.669-0.194,1.072l0.533-0.009
		C112.905,39.105,113.043,38.369,113.12,37.691"/>
	<path clip-path="url(#SVGID_2_)" fill="#FFFFFF" d="M117.103,36.001c0.077-0.219,0.232-0.46-0.355-0.512
		c0.02,0.07,0.04,0.164,0.06,0.242C116.947,35.576,117.094,35.612,117.103,36.001"/>
	<path clip-path="url(#SVGID_2_)" fill="#FFFFFF" d="M118.681,39.285l-0.304,0.771c0.095,0.014,0.187,0.025,0.283,0.043
		C118.681,39.869,118.692,39.617,118.681,39.285"/>
	<path clip-path="url(#SVGID_2_)" fill="#FFFFFF" d="M117.1,36.243c0.009-0.101,0.006-0.17,0.003-0.242
		C117.071,36.089,117.054,36.177,117.1,36.243"/>
	<path clip-path="url(#SVGID_2_)" fill="#FFFFFF" d="M116.839,38.157c0.08,0.672,0.272,1.331,0.511,1.854
		c0.141,0.003,0.281,0.003,0.422,0.003c-0.213-0.886-0.491-2.276-0.752-3.406c0.049-0.623,0.025-0.883-0.075-0.337
		c-0.048-0.204-0.092-0.371-0.138-0.54c-0.132,0.153-0.255,0.466-0.221,0.814c-0.006,0.328-0.321,2.073-0.594,3.368
		c0.155,0.018,0.313,0.035,0.468,0.046C116.618,39.424,116.744,38.78,116.839,38.157"/>
	<polygon clip-path="url(#SVGID_2_)" fill="#FFFFFF" points="118.904,36.888 118.965,36.792 118.913,36.866 119.02,36.581 
		119.122,36.457 119.117,36.411 119.03,36.546 119.042,36.518 119.045,36.482 119.114,36.394 119.108,36.354 119.051,36.463 
		119.054,36.422 119.105,36.345 119.085,36.187 119.088,36.134 119.079,36.153 119.074,36.104 118.867,36.299 118.876,36.551 
		118.721,36.935 118.617,37.664 118.646,37.584 	"/>
	<path clip-path="url(#SVGID_2_)" fill="#FFFFFF" d="M99.118,33.57l-0.026,0.071l0.021,0.447l0.015-0.052l0.028-0.095l0.037,0.365
		l-0.065,0.178l0.028,0.63l0.241-0.748l-0.028,0.435l-0.058,0.637c-0.003,0.041,0,0.092-0.003,0.136l-0.112,0.393
		c0.109,0.971,0.003,2.073-0.104,3.223c0.121,0.046,0.244,0.077,0.37,0.118c0.069-0.442,0.118-0.938,0.149-1.437
		c0.138,0.584,0.305,1.161,0.477,1.632c0.034,0.011,0.063,0.024,0.098,0.035l0.144,0.101c-0.33-1.746-0.792-5.068-0.907-5.669
		l-0.017,0.267l-0.04-0.543l-0.078,0.276l0.063-0.586l-0.021-0.162l-0.011-0.118l-0.003,0.005l-0.015-0.105l-0.006-0.058
		l-0.003,0.058l-0.006,0.16L99.271,33.2l0.011-0.195l0.006-0.112c-0.011-0.216-0.06-0.271-0.117-0.277
		c0.02-0.112,0.006-0.163-0.146,0.024l0.015,0.141c-0.023,0.083-0.012,0.167,0.025,0.255v0.005L99.118,33.57z M99.273,33.559
		l-0.006,0.124l0.014-0.152l0.029-0.101l-0.032,0.571l-0.065,0.242l0.031-0.595L99.273,33.559z"/>
	<polygon clip-path="url(#SVGID_2_)" fill="#FFFFFF" points="99.327,34.828 99.29,35.239 99.296,35.305 	"/>
	<polygon clip-path="url(#SVGID_2_)" fill="#FFFFFF" points="90.502,37.405 90.329,36.467 90.034,35.89 90.054,36.439 	"/>
	<polygon clip-path="url(#SVGID_2_)" fill="#FFFFFF" points="90.47,36.742 90.413,36.635 90.521,37.208 	"/>
	<polygon clip-path="url(#SVGID_2_)" fill="#FFFFFF" points="90.393,36.596 90.347,36.501 90.444,36.956 	"/>
	<path clip-path="url(#SVGID_2_)" fill="#FFFFFF" d="M93.916,34.098l-0.092,0.583l-0.015,0.56c0.023-0.132,0.046-0.219,0.075-0.313
		l0.014-0.09L93.916,34.098z"/>
	<path clip-path="url(#SVGID_2_)" fill="#FFFFFF" d="M93.13,37.028l0.015,0.23l-0.336,0.381c-0.023-0.083-0.043-0.151-0.066-0.23
		l0.333-0.359l-0.098-0.074l-0.289,0.247c-0.402-1.35-0.58-1.627-0.646-1.339l-0.164-1.259c-0.361-0.011-0.198,1.196,0.141,2.46
		c0.009,0.236,0.021,0.48,0.028,0.733l-0.318,0.328l0.135,0.223l0.086-0.094l0.109-0.124c0.006,0.112,0.009,0.217,0.012,0.324
		l-0.086,0.095l0.063,0.1c0.319-0.376,0.638-0.75,0.936-1.06l0.425-0.342l0.086-0.208l0.229-0.241
		c-0.043-0.152-0.074-0.299-0.083-0.41C92.834,34.188,92.47,34.832,93.13,37.028"/>
	<polygon clip-path="url(#SVGID_2_)" fill="#FFFFFF" points="90.734,37.904 90.688,37.611 90.72,37.869 	"/>
	<path clip-path="url(#SVGID_2_)" fill="#FFFFFF" d="M90.72,37.584l0.052,0.394c0.146,0.606,0.379,1.161,0.62,1.592
		c0.028-0.043,0.054-0.1,0.086-0.143c-0.207-0.463-0.479-1.207-0.844-2.361L90.72,37.584z"/>
	<polygon clip-path="url(#SVGID_2_)" fill="#FFFFFF" points="89.781,37.264 89.781,36.264 89.692,35.934 89.638,36.293 
		89.624,36.704 89.781,37.336 	"/>
	<polygon clip-path="url(#SVGID_2_)" fill="#FFFFFF" points="89.919,37.91 90.141,38.807 90.154,37.657 89.916,36.771 
		89.931,37.633 	"/>
	<path clip-path="url(#SVGID_2_)" fill="#FFFFFF" d="M87.107,39.403c-0.146-0.107-0.227,0.005-0.187,0.488l0.924,2.964
		c0.161,0.724,0.29,1.264,0.396,1.684c-0.292-0.814-0.794-1.95-1.5-2.94c-0.003,0-0.003-0.005-0.003-0.005
		c-0.006-0.007-0.012-0.019-0.015-0.024c-0.037-0.046-0.068-0.101-0.105-0.146c-0.222-0.489-0.425-1.769-0.681-0.768
		c-0.104-0.104-0.203-0.21-0.315-0.304l1.627,4.193l0.043-0.5c0.009,0.034,0.022,0.056,0.034,0.085l0.204,1.339l0.387,1.489
		l0.075,0.326l0.025-0.708l0.084,0.653c0.014-0.087,0.02-0.159,0.034-0.242l0.264-0.153l-0.232,0.035l0.175-0.619
		c-0.065-0.206-0.135-0.422-0.209-0.64c0.114,0.146,0.218,0.236,0.31,0.281l0.052-0.181l0.287-0.472l-0.052-0.352l0.422-1.426
		c-0.488-1.207-1.202-2.811-1.693-3.611C87.096,38.92,87.007,38.898,87.107,39.403"/>
	<path clip-path="url(#SVGID_2_)" fill="#FFFFFF" d="M89.377,44.259h0.083c-0.003-0.011-0.006-0.017-0.009-0.028L89.377,44.259z"/>
	<path clip-path="url(#SVGID_2_)" fill="#FFFFFF" d="M90.441,40.032c0.04,0.147,0.101,0.425,0.166,0.765
		c0.072-0.141,0.161-0.242,0.238-0.371c-0.138-0.606-0.264-1.236-0.425-1.771L90.441,40.032z"/>
	<path clip-path="url(#SVGID_2_)" fill="#FFFFFF" d="M88.597,38.657c-0.144-0.195-0.247-0.431-0.439-0.573
		c0.462,1.604,0.855,3.307,1.15,5.06l0.644-1.213h0.003c-0.437-1.113-0.709-2.372-1.338-3.251
		C88.608,38.668,88.603,38.662,88.597,38.657"/>
	<path clip-path="url(#SVGID_2_)" fill="#FFFFFF" d="M90.686,40.958l-0.049-0.017c0.003,0.005,0.003,0.011,0.003,0.017H90.686z"/>
	<polygon clip-path="url(#SVGID_2_)" fill="#FFFFFF" points="38.749,85.701 38.878,85.69 38.743,85.213 38.59,84.837 38.343,84.814 
		38.37,84.876 	"/>
	<polygon clip-path="url(#SVGID_2_)" fill="#FFFFFF" points="38.551,85.724 38.226,85.056 38.122,84.798 37.772,84.77 
		38.201,85.752 	"/>
	<polygon clip-path="url(#SVGID_2_)" fill="#FFFFFF" points="39.733,85.718 39.234,84.888 38.878,84.927 39.143,85.662 	"/>
	<polygon clip-path="url(#SVGID_2_)" fill="#FFFFFF" points="39.886,85.472 40.021,85.746 40.045,85.746 	"/>
	<path clip-path="url(#SVGID_2_)" fill="#FFFFFF" d="M31.033,87.633c0.216,1.185,0.323,2.419,0.082,3.693l-0.19,1.151
		c0.661,0.915-1.52,0.746,1.478,2.588l2.125,0.022l1.692-0.382l-0.212-0.825l0.582,0.803l0.59,0.006l0.126,0.028l-0.261-0.674
		l0.694,0.769l1.089,0.292l4.432-0.017l-0.306-0.303l-0.32-0.579l0.408,0.404l0.264,0.478l2.41-0.028
		c2.649-2.239,0.714-1.931,1.295-2.998c-0.569-0.695-0.793-1.555-0.572-2.374l0.491-1.241l-0.095-2.936
		c-2.134-2.049-2.153-0.506-3.238-0.93c-1.624,0.076-2.979,0.166-3.998,0.267l0.278,0.483l0.212,0.421
		c0.937,0.078,2.109,0.151,3.474,0.219l0.52-0.163l1.252,0.242c-0.206,0.415-0.838,6.669,0.32,6.978l0.087,0.365l-0.246-0.37
		l-1.966-0.018l0.553,1.527l-1.246-1.538l-4.031-0.012l-3.711,0.012l-0.78,0.359c-0.462,0.027-0.894-0.112-1.287-0.343h-0.053
		l-0.014-0.758l-0.516,0.196l0.505-0.482c-0.177-2.077,0.19-6.372-0.494-5.895c2.15-0.079,3.967-0.18,5.352-0.287l-0.51-1.055
		l-2.411-0.141l0.291,0.359l-0.652-0.382l-2.345-0.096C30.032,86.448,31.53,86.471,31.033,87.633"/>
	<polygon clip-path="url(#SVGID_2_)" fill="#FFFFFF" points="39.312,84.876 39.253,84.882 39.496,85.247 	"/>
	<polygon clip-path="url(#SVGID_2_)" fill="#FFFFFF" points="39.403,84.865 39.336,84.87 39.642,85.382 	"/>
	<polygon clip-path="url(#SVGID_2_)" fill="#FFFFFF" points="93.807,43.277 93.818,43.225 93.029,43.125 	"/>
	<polygon clip-path="url(#SVGID_2_)" fill="#FFFFFF" points="93.793,43.372 93.807,43.306 92.717,43.147 	"/>
</g>
</svg>
