<?xml version="1.0" encoding="utf-8"?>
<!-- Generator: Adobe Illustrator 15.0.2, SVG Export Plug-In . SVG Version: 6.00 Build 0)  -->
<!DOCTYPE svg PUBLIC "-//W3C//DTD SVG 1.1//EN" "http://www.w3.org/Graphics/SVG/1.1/DTD/svg11.dtd">
<svg version="1.1" id="Layer_1" xmlns="http://www.w3.org/2000/svg" xmlns:xlink="http://www.w3.org/1999/xlink" x="0px" y="0px"
	 width="15px" height="50px" viewBox="0 0 15 50" enable-background="new 0 0 15 50" xml:space="preserve">
<path fill="#47C3D1" d="M13.162,41.959c0-0.002-0.002-0.004-0.002-0.006l-0.299,0.042l0.18-0.246
	c-0.032-0.003-0.063-0.007-0.089-0.009l-0.15-0.006l-0.003-0.141c-0.003-0.079,0.011-0.154,0.028-0.228
	c-0.057-0.07-0.118-0.141-0.186-0.214c-0.089,0.025-0.179,0.051-0.269,0.073l-0.137,0.034l-0.055-0.123
	c-0.07-0.163-0.104-0.337-0.102-0.524c-0.008-0.007-0.017-0.015-0.025-0.022c-0.003,0.001-0.006,0.003-0.01,0.003
	c-0.121,0.035-0.246,0.072-0.324,0.125l-0.415,0.279l0.167-0.449c0.021-0.057,0.013-0.167,0.005-0.257
	c-0.001-0.02-0.003-0.039-0.004-0.057l-0.112,0.03l-0.057-0.12c-0.038-0.079-0.068-0.16-0.095-0.24
	c-0.146-0.111-0.282-0.213-0.411-0.308l-0.122,0.074l-0.061-0.195c-0.001-0.004-0.004-0.008-0.005-0.013
	c-0.031-0.022-0.063-0.044-0.091-0.064c-0.025,0.006-0.05,0.013-0.072,0.019c-0.055,0.013-0.122,0.029-0.146,0.045l-0.14,0.092
	l-0.091-0.134c-0.054-0.079-0.113-0.211-0.139-0.309c-0.008-0.007-0.015-0.015-0.022-0.024c-0.058-0.063-0.117-0.131-0.167-0.196
	c-0.067,0.018-0.137,0.028-0.203,0.038c-0.069,0.01-0.155,0.022-0.188,0.041l-0.167,0.09l-0.067-0.168
	c-0.041-0.105-0.078-0.213-0.113-0.318c-0.031-0.094-0.063-0.183-0.098-0.27c-0.06-0.042-0.119-0.083-0.176-0.123l-0.153,0.063
	l-0.046-0.176c-0.003-0.011-0.006-0.021-0.008-0.032c-0.028-0.02-0.058-0.039-0.084-0.058c-0.001,0-0.002,0.001-0.003,0.002
	l-0.225,0.196l-0.046-0.283c-0.007-0.044-0.023-0.091-0.043-0.14c-0.062-0.045-0.119-0.085-0.17-0.124l-0.129-0.082
	c-0.018-0.013-0.037-0.026-0.055-0.039L7.708,37.53l-0.013-0.072c-0.299-0.209-0.625-0.426-0.955-0.63
	c-0.061,0.015-0.118,0.032-0.167,0.053L6.39,36.962l-0.045-0.183c-0.013-0.052-0.062-0.12-0.109-0.184
	c-0.026-0.036-0.053-0.073-0.079-0.114c-0.012-0.007-0.025-0.014-0.037-0.021c-0.246,0.029-0.375-0.112-0.457-0.204
	c-0.03-0.034-0.054-0.057-0.075-0.075c-0.021-0.01-0.043-0.021-0.064-0.03c-0.01-0.002-0.021-0.002-0.035-0.002
	c-0.244,0.017-0.391-0.071-0.483-0.198c-0.226-0.08-0.454-0.159-0.682-0.237c0.022,0.032,0.044,0.063,0.066,0.095l-0.789-0.589
	c-0.464-0.346-1.144-0.278-1.517,0.151c-0.269,0.309-0.305,0.719-0.133,1.055c-0.144-0.124-0.298-0.261-0.45-0.345
	c0,0,0,0.002,0,0.003c0.1,0.074,0.253,0.221,0.347,0.287L1.5,36.127c0.001,0.031,0.006,0.062,0.012,0.095
	c0.073,0.075,0.149,0.147,0.24,0.211l-0.23-0.164c0.019,0.082,0.049,0.167,0.088,0.253c0.202,0.27,0.356,0.568,0.504,0.673
	c1.161,0.88,2.344,1.746,3.553,2.575c0.046-0.045,0.026-0.137,0.147-0.09c0.359,0.17,0.465,0.499,0.826,0.668l0.094-0.061
	c0.215,0.198,0.432,0.413,0.659,0.625c0.492,0.313,0.988,0.617,1.489,0.913c0.012-0.033,0.03-0.059,0.078-0.045l0.2,0.149
	c0.002,0.003,0.003,0.005,0.005,0.008H9.17l0.021,0.017c-0.263,0.265-0.588,0.594-0.854,0.86c-0.032,0.025-0.066,0.052-0.1,0.078
	c0.005,0.023,0.01,0.048,0.011,0.073l0.015,0.228l-0.182-0.122c-0.006,0.023-0.012,0.047-0.014,0.065l-0.016,0.095l-0.102-0.003
	c-0.045-0.001-0.088-0.007-0.13-0.016c-0.076,0.059-0.152,0.117-0.228,0.176c0.007,0.031,0.015,0.064,0.022,0.096l0.018,0.093
	l-0.097,0.029c-0.092,0.028-0.188,0.042-0.286,0.046c-0.046,0.036-0.093,0.072-0.139,0.108c0.013,0.046,0.029,0.089,0.051,0.12
	l0.197,0.278l-0.335-0.118c-0.045-0.016-0.137-0.013-0.209-0.013c-0.015,0-0.031,0-0.046,0c-0.002,0.002-0.005,0.004-0.007,0.006
	l0.016,0.069l-0.096,0.033c-0.025,0.008-0.051,0.014-0.075,0.021c-0.132,0.103-0.261,0.205-0.386,0.304l0.038,0.059l-0.15,0.029
	c-0.027,0.022-0.054,0.044-0.082,0.066c0.003,0.013,0.007,0.026,0.01,0.041c0.006,0.031,0.014,0.075,0.024,0.089l0.069,0.099
	L6.013,44.9c-0.067,0.031-0.179,0.065-0.257,0.078c-0.005,0.004-0.014,0.009-0.022,0.014c-0.044,0.028-0.108,0.067-0.17,0.101
	c0.009,0.043,0.013,0.086,0.016,0.128c0.003,0.043,0.008,0.097,0.019,0.117l0.065,0.116L5.526,45.49
	c-0.086,0.024-0.175,0.042-0.262,0.062c-0.13,0.028-0.254,0.055-0.37,0.093c0.002,0.002,0.003,0.006,0.005,0.008
	c0.007,0.013,0.014,0.027,0.018,0.04l0.049,0.121l-0.137,0.022c-0.043,0.008-0.078,0.013-0.109,0.02
	c0.008,0.013,0.014,0.022,0.021,0.03l0.149,0.158l-0.227,0.02c-0.06,0.006-0.127,0.025-0.198,0.048
	c-0.135,0.245-0.225,0.507-0.295,0.752L3.78,47.149l0.011,0.023l-0.052,0.006l-0.411,0.3c-0.041,0.063-0.104,0.104-0.153,0.134
	c-0.077,0.048-0.098,0.067-0.1,0.107c-0.005,0.251-0.206,0.335-0.404,0.369c-0.172,0.333-0.138,0.741,0.125,1.05
	c0.08,0.096,0.175,0.172,0.279,0.232c-0.035,0.025-0.062,0.047-0.073,0.067c-0.063,0.111,0.137,0.056,0.294,0.029
	c0.053,0.017,0.108,0.029,0.163,0.037c-0.002,0.006-0.003,0.01-0.007,0.018c0.008-0.005,0.016-0.01,0.024-0.014
	c0.055,0.007,0.111,0.014,0.167,0.014c0.233,0,0.469-0.07,0.667-0.215l4.343-3.168c0.593-0.398,1.188-0.796,1.8-1.192
	c0.069-0.064,0.184-0.157,0.336-0.273l0.256-0.19l0.075-0.054l0.147-0.101l0.983-0.698c0.097-0.049,0.164-0.085,0.19-0.104
	c0.122-0.082,0.383-0.259,0.563-0.563l0.496-0.36l-0.313-0.234C13.195,42.243,13.189,42.108,13.162,41.959z"/>
<path fill="#FFFFFF" d="M13.162,11.959c0-0.002-0.002-0.005-0.002-0.006l-0.299,0.042l0.18-0.246
	c-0.032-0.004-0.063-0.007-0.089-0.009l-0.15-0.006l-0.003-0.141c-0.003-0.078,0.011-0.154,0.028-0.227
	c-0.057-0.071-0.118-0.142-0.186-0.215c-0.089,0.026-0.179,0.051-0.269,0.073l-0.137,0.034l-0.055-0.122
	c-0.07-0.163-0.104-0.337-0.102-0.525c-0.008-0.007-0.017-0.014-0.025-0.021c-0.003,0.001-0.006,0.002-0.01,0.003
	c-0.121,0.035-0.246,0.072-0.324,0.124l-0.415,0.28l0.167-0.45c0.021-0.056,0.013-0.167,0.005-0.256
	c-0.001-0.02-0.003-0.039-0.004-0.058l-0.112,0.031l-0.057-0.12c-0.038-0.079-0.068-0.159-0.095-0.24
	c-0.146-0.11-0.282-0.212-0.411-0.307L10.677,9.67l-0.061-0.196c-0.001-0.004-0.004-0.009-0.005-0.013
	c-0.031-0.022-0.063-0.044-0.091-0.064c-0.025,0.006-0.05,0.013-0.072,0.02c-0.055,0.013-0.122,0.029-0.146,0.045l-0.14,0.092
	l-0.091-0.134C10.019,9.34,9.959,9.208,9.934,9.11C9.926,9.104,9.919,9.095,9.911,9.086C9.854,9.024,9.794,8.955,9.744,8.89
	C9.677,8.908,9.607,8.918,9.541,8.928C9.472,8.937,9.386,8.95,9.354,8.968l-0.167,0.09L9.119,8.891
	C9.078,8.785,9.041,8.677,9.006,8.572C8.975,8.479,8.943,8.389,8.908,8.302C8.849,8.26,8.789,8.22,8.732,8.18L8.579,8.243
	L8.533,8.068C8.53,8.057,8.527,8.047,8.525,8.036c-0.028-0.02-0.058-0.039-0.084-0.058C8.44,7.979,8.439,7.979,8.438,7.979
	L8.213,8.176L8.167,7.893C8.16,7.849,8.144,7.801,8.124,7.753c-0.062-0.044-0.119-0.086-0.17-0.124L7.825,7.548
	C7.807,7.535,7.787,7.522,7.77,7.509L7.708,7.53L7.695,7.458C7.396,7.249,7.069,7.032,6.74,6.827
	C6.679,6.842,6.623,6.859,6.573,6.881L6.39,6.962L6.345,6.779c-0.013-0.052-0.062-0.12-0.109-0.184
	C6.21,6.56,6.183,6.521,6.157,6.481C6.145,6.474,6.132,6.467,6.121,6.46C5.875,6.49,5.746,6.348,5.664,6.256
	C5.633,6.222,5.61,6.199,5.589,6.182c-0.021-0.01-0.043-0.021-0.064-0.031C5.514,6.15,5.503,6.148,5.489,6.15
	C5.245,6.167,5.098,6.079,5.006,5.951C4.78,5.871,4.552,5.792,4.324,5.714C4.346,5.746,4.368,5.777,4.39,5.809L3.601,5.22
	C3.136,4.875,2.457,4.942,2.084,5.372c-0.269,0.309-0.305,0.72-0.133,1.055C1.807,6.304,1.653,6.167,1.5,6.082
	c0,0.001,0,0.002,0,0.003c0.1,0.074,0.253,0.221,0.347,0.287L1.5,6.126c0.001,0.031,0.006,0.063,0.012,0.095
	c0.073,0.075,0.149,0.147,0.24,0.211L1.522,6.27C1.541,6.35,1.571,6.435,1.61,6.522C1.812,6.792,1.966,7.09,2.114,7.196
	c1.161,0.88,2.344,1.747,3.553,2.575c0.046-0.045,0.026-0.136,0.147-0.09c0.359,0.17,0.465,0.499,0.826,0.668l0.094-0.06
	c0.215,0.198,0.432,0.412,0.659,0.624c0.492,0.313,0.988,0.618,1.489,0.914c0.012-0.033,0.03-0.06,0.078-0.045l0.2,0.149
	c0.002,0.003,0.003,0.005,0.005,0.008H9.17l0.021,0.016c-0.263,0.265-0.588,0.594-0.854,0.861c-0.032,0.025-0.066,0.051-0.1,0.078
	c0.005,0.023,0.01,0.047,0.011,0.072l0.015,0.229l-0.182-0.122c-0.006,0.023-0.012,0.046-0.014,0.065l-0.016,0.095l-0.102-0.002
	c-0.045-0.001-0.088-0.007-0.13-0.016c-0.075,0.058-0.151,0.117-0.227,0.176c0.007,0.031,0.015,0.064,0.022,0.096l0.018,0.093
	l-0.097,0.029c-0.092,0.028-0.188,0.042-0.286,0.046c-0.046,0.037-0.093,0.072-0.139,0.108c0.013,0.046,0.029,0.089,0.051,0.12
	l0.197,0.278l-0.335-0.118c-0.045-0.017-0.137-0.014-0.209-0.013c-0.015,0-0.031,0-0.046,0c-0.002,0.002-0.005,0.003-0.007,0.005
	l0.016,0.069l-0.096,0.032c-0.025,0.008-0.051,0.015-0.075,0.021c-0.132,0.104-0.261,0.205-0.386,0.305l0.038,0.059l-0.15,0.029
	c-0.027,0.023-0.054,0.044-0.082,0.066c0.003,0.014,0.007,0.027,0.01,0.041c0.006,0.032,0.014,0.075,0.024,0.09l0.069,0.1
	l-0.114,0.054c-0.067,0.032-0.179,0.065-0.257,0.079c-0.005,0.003-0.014,0.008-0.022,0.013c-0.044,0.028-0.108,0.068-0.17,0.101
	c0.009,0.043,0.013,0.086,0.016,0.128c0.003,0.043,0.008,0.097,0.019,0.117l0.065,0.116L5.526,15.49
	c-0.086,0.024-0.175,0.042-0.262,0.063c-0.13,0.028-0.254,0.056-0.37,0.093c0.002,0.003,0.003,0.005,0.005,0.008
	c0.007,0.013,0.014,0.026,0.018,0.04l0.049,0.121l-0.137,0.022c-0.043,0.007-0.078,0.014-0.109,0.02
	c0.008,0.013,0.014,0.023,0.021,0.031l0.149,0.158l-0.227,0.021c-0.06,0.005-0.127,0.024-0.198,0.047
	c-0.135,0.246-0.225,0.508-0.295,0.752L3.78,17.148l0.011,0.023l-0.052,0.007l-0.411,0.301c-0.041,0.063-0.104,0.104-0.153,0.134
	c-0.077,0.048-0.098,0.066-0.1,0.106c-0.005,0.252-0.206,0.335-0.404,0.37c-0.172,0.332-0.138,0.741,0.125,1.049
	c0.08,0.096,0.175,0.172,0.279,0.232c-0.035,0.024-0.062,0.047-0.073,0.066c-0.063,0.111,0.137,0.056,0.294,0.029
	c0.053,0.017,0.108,0.028,0.163,0.037c-0.002,0.006-0.003,0.01-0.007,0.018c0.008-0.006,0.016-0.01,0.024-0.015
	c0.055,0.007,0.111,0.014,0.167,0.014c0.233,0,0.469-0.07,0.667-0.215l4.343-3.168c0.593-0.398,1.188-0.797,1.8-1.193
	c0.069-0.063,0.184-0.157,0.336-0.273l0.256-0.19l0.075-0.054l0.147-0.101l0.983-0.698c0.097-0.049,0.164-0.085,0.19-0.104
	c0.122-0.082,0.383-0.259,0.563-0.563l0.496-0.36l-0.313-0.233C13.195,12.243,13.189,12.107,13.162,11.959z"/>
</svg>
